<svg width="2148" height="994" viewBox="0 0 2148 994" fill="none" xmlns="http://www.w3.org/2000/svg">
<rect x="1.96582" y="1.47461" width="2144.45" height="991.365" rx="28.7994" stroke="#7A7A7A" stroke-width="2"/>
<path d="M2110.97 267.315V50.212C2110.97 42.871 2105.02 36.9199 2097.68 36.9199H50.7032C43.3622 36.9199 37.4111 42.871 37.4111 50.212V267.315M2110.97 267.315H1883.9M2110.97 267.315V728.106M37.4111 267.315V944.102C37.4111 951.443 43.3621 957.394 50.7031 957.394H1193.27M37.4111 267.315H1193.27M1193.27 267.315V957.394M1193.27 267.315H1883.9M1193.27 957.394H1883.9M1883.9 50.212V254.023M1883.9 267.315V728.106M1883.9 957.394H2097.68C2105.02 957.394 2110.97 951.443 2110.97 944.102V728.106M1883.9 957.394V728.106M1883.9 728.106H2110.97" stroke="#E5E5E3" stroke-width="5"/>
<path d="M271.684 50.2119V254.023M271.684 280.607V497.711M271.684 497.711V728.106M271.684 497.711H52.9189M271.684 497.711H501.525M271.684 728.106V943.548M271.684 728.106H52.9189M271.684 728.106H501.525M501.525 50.2119V254.023M501.525 280.607V497.711M501.525 497.711V728.106M501.525 497.711H731.921M501.525 728.106V942.994M501.525 728.106H731.921M731.921 50.2119V254.023M731.921 280.607V497.711M731.921 497.711V728.106M731.921 497.711H962.316M731.921 728.106V942.994M731.921 728.106H934.071M962.316 50.2119V254.023M962.316 280.607V497.711M962.316 497.711H1180.53M962.316 497.711V699.861M962.316 942.994V756.352M1192.71 50.2119V254.023M1423.11 50.2119V254.023M1423.11 280.607V497.711M1423.11 497.711V728.106M1423.11 497.711H1204.9M1423.11 497.711H1653.5M1423.11 728.106V942.994M1423.11 728.106H1204.9M1423.11 728.106H1625.26M1653.5 50.2119V254.023M1653.5 280.607V497.711M1653.5 497.711H1870.61M1653.5 497.711V699.861M1653.5 942.994V756.352M1180.53 728.106H1046.5M1870.61 728.106H1740.45M1896.08 497.711H2097.68M990.562 728.106C990.562 743.706 977.916 756.352 962.316 756.352M990.562 728.106C990.562 712.507 977.916 699.861 962.316 699.861M990.562 728.106H1000.53M962.316 756.352C946.717 756.352 934.071 743.706 934.071 728.106M934.071 728.106C934.071 712.507 946.717 699.861 962.316 699.861M1681.75 728.106C1681.75 743.706 1669.1 756.352 1653.5 756.352M1681.75 728.106C1681.75 712.507 1669.1 699.861 1653.5 699.861M1681.75 728.106H1691.72M1653.5 756.352C1637.9 756.352 1625.26 743.706 1625.26 728.106M1625.26 728.106C1625.26 712.507 1637.9 699.861 1653.5 699.861M1075.3 778.505V676.6M1766.49 676.6V780.167" stroke="#E5E5E3" stroke-width="2"/>
<path d="M1033.76 750.26V760.783H1012.71M1012.71 760.783L1019.36 754.137M1012.71 760.783L1019.36 767.429" stroke="#7A7A7A" stroke-width="2"/>
<path d="M1008.84 695.43L1018.81 703.737L1029.33 695.43L1039.85 704.845" stroke="#7A7A7A" stroke-width="2"/>
<path d="M1010.5 723.676V732.537M1016.04 718.138V736.968M1021.58 722.568V732.537M1026.84 720.353V734.753M1032.1 724.784V730.322M1037.64 723.676V731.43" stroke="#7A7A7A" stroke-width="2"/>
<path d="M1700.3 695.43L1710.27 703.737L1720.79 695.43L1731.32 704.845" stroke="#7A7A7A" stroke-width="2"/>
<path d="M1701.96 723.676V732.537M1707.5 718.138V736.968M1713.04 722.568V732.537M1718.3 720.353V734.753M1723.56 724.784V730.322M1729.1 723.676V731.43" stroke="#7A7A7A" stroke-width="2"/>
<path d="M1727.72 753.029C1727.72 750.277 1722.51 748.045 1716.09 748.045C1709.66 748.045 1704.46 750.277 1704.46 753.029M1727.72 753.029V762.168C1727.72 764.248 1724.74 766.031 1720.52 766.778M1727.72 753.029C1727.72 755.11 1724.74 756.893 1720.52 757.64M1704.46 753.029V762.168C1704.46 764.248 1707.43 766.031 1711.65 766.778M1704.46 753.029C1704.46 755.11 1707.43 756.893 1711.65 757.64M1720.52 757.64C1719.15 757.881 1717.65 758.014 1716.09 758.014C1714.52 758.014 1713.02 757.881 1711.65 757.64M1720.52 757.64V766.778M1720.52 766.778C1719.15 767.019 1717.65 767.152 1716.09 767.152C1714.52 767.152 1713.02 767.019 1711.65 766.778M1711.65 757.64V766.778" stroke="#7A7A7A" stroke-width="2"/>
<path d="M1920.52 194.06C1921.05 194.218 1921.6 193.917 1921.76 193.388L1924.34 184.765C1924.5 184.235 1924.19 183.678 1923.67 183.52C1923.14 183.362 1922.58 183.663 1922.42 184.192L1920.13 191.857L1912.47 189.566C1911.94 189.408 1911.38 189.709 1911.22 190.238C1911.06 190.767 1911.36 191.325 1911.89 191.483L1920.52 194.06ZM1920.8 193.102L1921.68 192.626C1915.18 180.574 1911.48 166.779 1911.48 152.118H1910.48H1909.48C1909.48 167.118 1913.26 181.239 1919.92 193.577L1920.8 193.102ZM1910.48 152.118H1911.48C1911.48 131.366 1918.88 112.346 1931.19 97.5476L1930.42 96.9082L1929.65 96.2688C1917.06 111.413 1909.48 130.882 1909.48 152.118H1910.48Z" fill="#7A7A7A"/>
<path d="M1996.88 57.9658V89.5344" stroke="#7A7A7A" stroke-width="2"/>
<path d="M2072 193.388C2072.16 193.917 2072.72 194.218 2073.25 194.06L2081.87 191.483C2082.4 191.325 2082.7 190.767 2082.54 190.238C2082.38 189.709 2081.82 189.408 2081.3 189.566L2073.63 191.857L2071.34 184.192C2071.18 183.663 2070.62 183.362 2070.1 183.52C2069.57 183.678 2069.27 184.235 2069.42 184.765L2072 193.388ZM2083.28 152.118H2082.28C2082.28 166.779 2078.59 180.574 2072.08 192.626L2072.96 193.102L2073.84 193.577C2080.5 181.239 2084.28 167.118 2084.28 152.118H2083.28ZM2063.34 96.9082L2062.57 97.5476C2074.88 112.346 2082.28 131.366 2082.28 152.118H2083.28H2084.28C2084.28 130.882 2076.7 111.413 2064.11 96.2688L2063.34 96.9082Z" fill="#7A7A7A"/>
<path d="M1935.07 91.7492C1936.38 90.4141 1937.72 89.121 1939.11 87.8723L1932.64 80.288C1935.78 77.474 1939.11 74.8634 1942.6 72.4769L1948.14 80.7677C1951.32 78.5935 1954.65 76.6259 1958.11 74.8843L1953.68 65.9514C1955.67 64.9507 1957.71 64.017 1959.77 63.1533L1963.59 72.3649C1965.43 71.5984 1967.29 70.8932 1969.19 70.2521M2024.57 70.2521C2026.47 70.8932 2028.33 71.5984 2030.17 72.3649L2033.99 63.1533C2036.06 64.017 2038.09 64.9507 2040.08 65.9514L2035.65 74.8843C2039.11 76.6259 2042.44 78.5935 2045.62 80.7677L2051.16 72.4769C2054.65 74.8634 2057.98 77.474 2061.13 80.288L2054.65 87.8723C2056.04 89.121 2057.39 90.4141 2058.69 91.7492" stroke="#7A7A7A" stroke-width="2"/>
<path d="M307.748 194.059C308.277 194.218 308.834 193.917 308.992 193.388L311.569 184.764C311.727 184.235 311.426 183.678 310.897 183.52C310.368 183.362 309.811 183.663 309.653 184.192L307.362 191.857L299.697 189.566C299.168 189.408 298.611 189.709 298.453 190.238C298.295 190.767 298.595 191.324 299.125 191.483L307.748 194.059ZM308.034 193.101L308.914 192.626C302.407 180.574 298.714 166.778 298.714 152.118H297.714H296.714C296.714 167.118 300.494 181.239 307.154 193.576L308.034 193.101ZM297.714 152.118H298.714C298.714 134.305 304.167 117.768 313.494 104.083L312.667 103.52L311.841 102.956C302.295 116.963 296.714 133.89 296.714 152.118H297.714Z" fill="#7A7A7A"/>
<path d="M384.112 57.9658V89.5344" stroke="#7A7A7A" stroke-width="2"/>
<path d="M459.586 192.739C459.748 193.267 460.308 193.563 460.836 193.4L469.436 190.749C469.964 190.586 470.26 190.027 470.097 189.499C469.935 188.971 469.375 188.675 468.847 188.838L461.202 191.195L458.845 183.55C458.683 183.022 458.123 182.726 457.595 182.889C457.067 183.051 456.771 183.611 456.934 184.139L459.586 192.739ZM470.51 152.118H469.51C469.51 166.516 465.948 180.08 459.657 191.977L460.541 192.445L461.425 192.912C467.865 180.733 471.51 166.85 471.51 152.118H470.51ZM440.627 86.7656L439.973 87.5217C458.066 103.182 469.51 126.313 469.51 152.118H470.51H471.51C471.51 125.708 459.795 102.034 441.281 86.0095L440.627 86.7656Z" fill="#7A7A7A"/>
<path d="M318.892 100.695L310.859 93.3945L314.113 89.8139C315.03 88.804 316.048 88.2833 317.023 88.2258C317.845 88.1975 318.661 88.4989 319.361 89.1351L319.383 89.1559C320.703 90.3554 320.775 91.8669 320.085 93.2721L325.097 93.8669L323.575 95.5425L318.981 94.9715L317.375 96.7388L320.175 99.2837L318.892 100.695ZM316.124 95.602L318.001 93.5363C318.919 92.5264 318.975 91.404 318.16 90.6635L318.137 90.6426C317.276 89.8604 316.243 90.0525 315.294 91.0968L313.427 93.151L316.124 95.602Z" fill="#7A7A7A"/>
<path d="M327.176 91.8175L324.008 80.3154L325.382 79.2029L335.974 84.6934L334.407 85.9621L331.902 84.6183L327.913 87.8485L328.695 90.5879L327.176 91.8175ZM327.392 86.0958L330.296 83.7438L326.105 81.5502L327.392 86.0958Z" fill="#7A7A7A"/>
<path d="M339.714 82.1136L334.451 72.6194L335.997 71.7623L344.722 75.5076L341.083 68.943L342.724 68.0334L347.987 77.5275L346.59 78.3019L337.611 74.4495L341.355 81.2039L339.714 82.1136Z" fill="#7A7A7A"/>
<path d="M352.772 75.0689L349.418 64.7451L353.267 63.4943C356.512 62.4401 359.477 63.9387 360.421 66.8441L360.431 66.8736C361.375 69.7791 359.866 72.764 356.622 73.8182L352.772 75.0689ZM353.804 65.1462L351.769 65.8075L354.05 72.8277L356.085 72.1664C358.253 71.462 359.194 69.5418 358.538 67.5213L358.528 67.4918C357.872 65.4713 355.972 64.4417 353.804 65.1462Z" fill="#7A7A7A"/>
<path d="M407.216 72.2733L410.896 62.061L414.704 63.4332C417.913 64.5898 419.337 67.5919 418.301 70.4659L418.291 70.4951C417.255 73.3691 414.233 74.8021 411.024 73.6455L407.216 72.2733ZM414.115 65.0671L412.102 64.3416L409.599 71.286L411.613 72.0115C413.757 72.7843 415.678 71.8447 416.398 69.846L416.409 69.8169C417.129 67.8182 416.26 65.84 414.115 65.0671Z" fill="#7A7A7A"/>
<path d="M420.097 77.3689L424.855 67.6123L426.57 68.4484L421.811 78.205L420.097 77.3689Z" fill="#7A7A7A"/>
<path d="M429.929 83.1156L432.556 71.5897L434.28 72.8054L432.144 81.5089L439.615 76.5686L441.3 77.7575L431.323 84.0989L429.929 83.1156Z" fill="#7A7A7A"/>
<path d="M2048.39 918.902H2040.08L2027.89 897.856" stroke="#7A7A7A" stroke-width="2"/>
<path d="M2056.56 910.318C2055.4 912.847 2054.76 915.661 2054.76 918.626C2054.76 921.591 2055.4 924.404 2056.56 926.933" stroke="#7A7A7A" stroke-width="2"/>
<path d="M2062.09 913.642C2061.47 915.181 2061.12 916.863 2061.12 918.626C2061.12 920.389 2061.47 922.071 2062.09 923.611" stroke="#7A7A7A" stroke-width="2"/>
<path d="M2077.19 918.349C2077.19 920.49 2074.95 922.226 2072.2 922.226C2069.45 922.226 2067.22 920.49 2067.22 918.349C2067.22 916.208 2069.45 914.472 2072.2 914.472C2074.95 914.472 2077.19 916.208 2077.19 918.349ZM2077.19 918.349V898.134L2083.83 903.118" stroke="#7A7A7A" stroke-width="2"/>
<path d="M2045.62 457.835H2040.08L2027.89 436.789" stroke="#7A7A7A" stroke-width="2"/>
<path d="M2062.79 455.57C2061.82 453.475 2059.7 452.02 2057.25 452.02C2053.88 452.02 2051.16 454.747 2051.16 458.112C2051.16 461.476 2053.88 464.204 2057.25 464.204C2058.87 464.204 2060.34 463.572 2061.43 462.542C2062.52 461.512 2067.21 455.107 2068.32 453.93C2069.43 452.754 2071.01 452.02 2072.75 452.02C2076.12 452.02 2078.85 454.747 2078.85 458.112C2078.85 461.476 2076.12 464.204 2072.75 464.204C2070.39 464.204 2068.34 462.853 2067.33 460.881" stroke="#7A7A7A" stroke-width="2"/>
<path d="M205.777 227.993H197.47L185.285 206.947" stroke="#7A7A7A" stroke-width="2"/>
<circle cx="220.731" cy="227.994" r="10.5229" stroke="#7A7A7A" stroke-width="2"/>
<path d="M220.73 220.793V227.993L224.607 231.87" stroke="#7A7A7A" stroke-width="2"/>
<path d="M60.025 253.324C55.9178 253.324 52.8673 250.154 52.8673 246.147V246.107C52.8673 242.139 55.858 238.889 60.1447 238.889C62.7765 238.889 64.3516 239.766 65.6476 241.042L63.6936 243.295C62.617 242.318 61.5204 241.72 60.1247 241.72C57.772 241.72 56.0773 243.674 56.0773 246.067V246.107C56.0773 248.499 57.7322 250.493 60.1247 250.493C61.7198 250.493 62.6967 249.855 63.7933 248.858L65.7473 250.832C64.3117 252.367 62.7167 253.324 60.025 253.324ZM69.4015 253.085V239.128H72.472V250.294H79.4304V253.085H69.4015ZM88.9229 253.324C84.6163 253.324 81.5259 250.114 81.5259 246.147V246.107C81.5259 242.139 84.6562 238.889 88.9628 238.889C93.2694 238.889 96.3598 242.099 96.3598 246.067V246.107C96.3598 250.074 93.2295 253.324 88.9229 253.324ZM88.9628 250.493C91.4351 250.493 93.1498 248.539 93.1498 246.147V246.107C93.1498 243.714 91.3952 241.72 88.9229 241.72C86.4506 241.72 84.7359 243.674 84.7359 246.067V246.107C84.7359 248.499 86.4905 250.493 88.9628 250.493ZM106.82 253.324C102.712 253.324 99.6618 250.154 99.6618 246.147V246.107C99.6618 242.139 102.652 238.889 106.939 238.889C109.571 238.889 111.146 239.766 112.442 241.042L110.488 243.295C109.411 242.318 108.315 241.72 106.919 241.72C104.567 241.72 102.872 243.674 102.872 246.067V246.107C102.872 248.499 104.527 250.493 106.919 250.493C108.514 250.493 109.491 249.855 110.588 248.858L112.542 250.832C111.106 252.367 109.511 253.324 106.82 253.324ZM116.196 253.085V239.128H119.266V245.229L124.889 239.128H128.657L122.955 245.05L128.897 253.085H125.208L120.881 247.143L119.266 248.818V253.085H116.196Z" fill="#7A7A7A"/>
<path d="M288.845 253.284C286.732 253.284 284.599 252.547 282.924 251.051L284.738 248.878C285.994 249.915 287.31 250.573 288.905 250.573C290.161 250.573 290.919 250.074 290.919 249.257V249.217C290.919 248.439 290.44 248.041 288.108 247.442C285.296 246.725 283.482 245.947 283.482 243.176V243.136C283.482 240.604 285.516 238.929 288.367 238.929C290.401 238.929 292.135 239.567 293.551 240.703L291.956 243.016C290.72 242.159 289.503 241.641 288.327 241.641C287.151 241.641 286.533 242.179 286.533 242.857V242.897C286.533 243.814 287.131 244.113 289.543 244.731C292.374 245.469 293.97 246.485 293.97 248.918V248.958C293.97 251.729 291.856 253.284 288.845 253.284ZM297.83 253.085V239.128H303.533C306.862 239.128 308.876 241.102 308.876 243.953V243.993C308.876 247.223 306.364 248.898 303.234 248.898H300.901V253.085H297.83ZM300.901 246.166H303.333C304.869 246.166 305.766 245.249 305.766 244.053V244.013C305.766 242.637 304.809 241.9 303.274 241.9H300.901V246.166ZM312.345 253.085V239.128H318.725C320.499 239.128 321.875 239.627 322.792 240.544C323.57 241.321 323.989 242.418 323.989 243.734V243.774C323.989 246.027 322.772 247.442 320.998 248.1L324.407 253.085H320.818L317.828 248.619H315.415V253.085H312.345ZM315.415 245.907H318.526C320.021 245.907 320.878 245.11 320.878 243.933V243.894C320.878 242.578 319.961 241.9 318.466 241.9H315.415V245.907ZM327.949 253.085V239.128H338.477V241.86H331V244.691H337.58V247.423H331V250.353H338.576V253.085H327.949ZM341.306 253.085L347.288 239.029H350.119L356.1 253.085H352.89L351.614 249.955H345.713L344.437 253.085H341.306ZM346.809 247.243H350.518L348.664 242.717L346.809 247.243ZM359.451 253.085V239.128H364.894C369.28 239.128 372.311 242.139 372.311 246.067V246.107C372.311 250.034 369.28 253.085 364.894 253.085H359.451ZM364.894 241.9H362.521V250.314H364.894C367.406 250.314 369.101 248.619 369.101 246.147V246.107C369.101 243.634 367.406 241.9 364.894 241.9Z" fill="#7A7A7A"/>
<path d="M520.348 253.284C518.235 253.284 516.102 252.547 514.427 251.051L516.241 248.878C517.497 249.915 518.813 250.573 520.408 250.573C521.664 250.573 522.422 250.074 522.422 249.257V249.217C522.422 248.439 521.943 248.041 519.611 247.442C516.799 246.725 514.985 245.947 514.985 243.176V243.136C514.985 240.604 517.019 238.929 519.87 238.929C521.904 238.929 523.638 239.567 525.054 240.703L523.459 243.016C522.223 242.159 521.006 241.641 519.83 241.641C518.654 241.641 518.036 242.179 518.036 242.857V242.897C518.036 243.814 518.634 244.113 521.046 244.731C523.877 245.469 525.472 246.485 525.472 248.918V248.958C525.472 251.729 523.359 253.284 520.348 253.284ZM529.333 253.085V239.128H532.404V244.651H538.066V239.128H541.137V253.085H538.066V247.482H532.404V253.085H529.333ZM551.5 253.304C547.752 253.304 545.459 251.211 545.459 247.104V239.128H548.529V247.024C548.529 249.297 549.666 250.473 551.54 250.473C553.414 250.473 554.55 249.337 554.55 247.123V239.128H557.621V247.004C557.621 251.231 555.248 253.304 551.5 253.304ZM561.945 253.085V239.128H572.572V241.92H565.015V244.89H571.674V247.682H565.015V253.085H561.945ZM576.225 253.085V239.128H586.852V241.92H579.296V244.89H585.955V247.682H579.296V253.085H576.225ZM590.506 253.085V239.128H593.576V250.294H600.535V253.085H590.506ZM604.047 253.085V239.128H614.574V241.86H607.097V244.691H613.677V247.423H607.097V250.353H614.674V253.085H604.047Z" fill="#7A7A7A"/>
<path d="M795.241 253.324C791.134 253.324 788.083 250.154 788.083 246.147V246.107C788.083 242.139 791.074 238.889 795.36 238.889C797.992 238.889 799.567 239.766 800.863 241.042L798.909 243.295C797.833 242.318 796.736 241.72 795.341 241.72C792.988 241.72 791.293 243.674 791.293 246.067V246.107C791.293 248.499 792.948 250.493 795.341 250.493C796.936 250.493 797.913 249.855 799.009 248.858L800.963 250.832C799.528 252.367 797.932 253.324 795.241 253.324ZM804.617 253.085V239.128H807.688V244.651H813.35V239.128H816.421V253.085H813.35V247.482H807.688V253.085H804.617ZM819.766 253.085L825.747 239.029H828.578L834.56 253.085H831.35L830.074 249.955H824.172L822.896 253.085H819.766ZM825.269 247.243H828.977L827.123 242.717L825.269 247.243ZM837.91 253.085V239.128H844.29C846.065 239.128 847.44 239.627 848.358 240.544C849.135 241.321 849.554 242.418 849.554 243.734V243.774C849.554 246.027 848.338 247.442 846.563 248.1L849.973 253.085H846.384L843.393 248.619H840.98V253.085H837.91ZM840.98 245.907H844.091C845.586 245.907 846.444 245.11 846.444 243.933V243.894C846.444 242.578 845.526 241.9 844.031 241.9H840.98V245.907ZM860.294 253.324C855.987 253.324 852.897 250.114 852.897 246.147V246.107C852.897 242.139 856.027 238.889 860.334 238.889C864.64 238.889 867.731 242.099 867.731 246.067V246.107C867.731 250.074 864.6 253.324 860.294 253.324ZM860.334 250.493C862.806 250.493 864.521 248.539 864.521 246.147V246.107C864.521 243.714 862.766 241.72 860.294 241.72C857.821 241.72 856.107 243.674 856.107 246.067V246.107C856.107 248.499 857.861 250.493 860.334 250.493ZM871.651 253.085V239.128H874.482L881.021 247.722V239.128H884.052V253.085H881.44L874.681 244.213V253.085H871.651Z" fill="#7A7A7A"/>
<path d="M1024.34 253.284C1022.23 253.284 1020.09 252.547 1018.42 251.051L1020.23 248.878C1021.49 249.915 1022.8 250.573 1024.4 250.573C1025.65 250.573 1026.41 250.074 1026.41 249.257V249.217C1026.41 248.439 1025.93 248.041 1023.6 247.442C1020.79 246.725 1018.98 245.947 1018.98 243.176V243.136C1018.98 240.604 1021.01 238.929 1023.86 238.929C1025.89 238.929 1027.63 239.567 1029.04 240.703L1027.45 243.016C1026.21 242.159 1025 241.641 1023.82 241.641C1022.64 241.641 1022.03 242.179 1022.03 242.857V242.897C1022.03 243.814 1022.62 244.113 1025.04 244.731C1027.87 245.469 1029.46 246.485 1029.46 248.918V248.958C1029.46 251.729 1027.35 253.284 1024.34 253.284ZM1036.28 253.085V241.96H1032.03V239.128H1043.6V241.96H1039.35V253.085H1036.28ZM1051.08 253.085V247.582L1045.72 239.128H1049.31L1052.64 244.731L1056.03 239.128H1059.52L1054.15 247.522V253.085H1051.08ZM1070.63 239.128H1074.12L1069.46 245.947L1074.32 253.085H1070.73L1067.6 248.3L1064.45 253.085H1060.96L1065.83 245.987L1061.16 239.128H1064.75L1067.66 243.654L1070.63 239.128Z" fill="#7A7A7A"/>
<path d="M1249.22 253.085V239.128H1252.05L1258.59 247.722V239.128H1261.62V253.085H1259.01L1252.25 244.213V253.085H1249.22ZM1266.3 253.085V239.128H1269.37V253.085H1266.3ZM1282.67 239.128H1286.16L1281.5 245.947L1286.36 253.085H1282.77L1279.64 248.3L1276.49 253.085H1273L1277.87 245.987L1273.2 239.128H1276.79L1279.7 243.654L1282.67 239.128Z" fill="#7A7A7A"/>
<path d="M1479.89 253.085V239.128H1482.96V245.229L1488.58 239.128H1492.35L1486.65 245.05L1492.59 253.085H1488.9L1484.57 247.143L1482.96 248.818V253.085H1479.89ZM1495.65 253.085V239.128H1506.18V241.86H1498.7V244.691H1505.28V247.423H1498.7V250.353H1506.28V253.085H1495.65ZM1510.2 253.085V239.128H1516.58C1518.36 239.128 1519.73 239.627 1520.65 240.544C1521.43 241.321 1521.85 242.418 1521.85 243.734V243.774C1521.85 246.027 1520.63 247.442 1518.85 248.1L1522.26 253.085H1518.68L1515.68 248.619H1513.27V253.085H1510.2ZM1513.27 245.907H1516.38C1517.88 245.907 1518.73 245.11 1518.73 243.933V243.894C1518.73 242.578 1517.82 241.9 1516.32 241.9H1513.27V245.907ZM1525.81 253.085V239.128H1532.29C1533.88 239.128 1535.14 239.567 1535.93 240.364C1536.57 241.002 1536.89 241.78 1536.89 242.737V242.777C1536.89 244.352 1536.05 245.229 1535.06 245.788C1536.67 246.406 1537.67 247.343 1537.67 249.217V249.257C1537.67 251.809 1535.6 253.085 1532.45 253.085H1525.81ZM1533.84 243.295V243.255C1533.84 242.338 1533.12 241.82 1531.83 241.82H1528.8V244.771H1531.63C1532.98 244.771 1533.84 244.332 1533.84 243.295ZM1534.62 248.838C1534.62 247.901 1533.92 247.323 1532.35 247.323H1528.8V250.393H1532.45C1533.8 250.393 1534.62 249.915 1534.62 248.878V248.838ZM1541.39 253.085V239.128H1551.92V241.86H1544.44V244.691H1551.02V247.423H1544.44V250.353H1552.02V253.085H1541.39ZM1555.94 253.085V239.128H1562.32C1564.1 239.128 1565.47 239.627 1566.39 240.544C1567.17 241.321 1567.59 242.418 1567.59 243.734V243.774C1567.59 246.027 1566.37 247.442 1564.6 248.1L1568.01 253.085H1564.42L1561.43 248.619H1559.01V253.085H1555.94ZM1559.01 245.907H1562.13C1563.62 245.907 1564.48 245.11 1564.48 243.933V243.894C1564.48 242.578 1563.56 241.9 1562.07 241.9H1559.01V245.907ZM1578.33 253.324C1574.02 253.324 1570.93 250.114 1570.93 246.147V246.107C1570.93 242.139 1574.06 238.889 1578.37 238.889C1582.67 238.889 1585.76 242.099 1585.76 246.067V246.107C1585.76 250.074 1582.63 253.324 1578.33 253.324ZM1578.37 250.493C1580.84 250.493 1582.55 248.539 1582.55 246.147V246.107C1582.55 243.714 1580.8 241.72 1578.33 241.72C1575.86 241.72 1574.14 243.674 1574.14 246.067V246.107C1574.14 248.499 1575.9 250.493 1578.37 250.493ZM1594.55 253.284C1592.44 253.284 1590.31 252.547 1588.63 251.051L1590.44 248.878C1591.7 249.915 1593.02 250.573 1594.61 250.573C1595.87 250.573 1596.63 250.074 1596.63 249.257V249.217C1596.63 248.439 1596.15 248.041 1593.81 247.442C1591 246.725 1589.19 245.947 1589.19 243.176V243.136C1589.19 240.604 1591.22 238.929 1594.07 238.929C1596.11 238.929 1597.84 239.567 1599.26 240.703L1597.66 243.016C1596.43 242.159 1595.21 241.641 1594.03 241.641C1592.86 241.641 1592.24 242.179 1592.24 242.857V242.897C1592.24 243.814 1592.84 244.113 1595.25 244.731C1598.08 245.469 1599.68 246.485 1599.68 248.918V248.958C1599.68 251.729 1597.56 253.284 1594.55 253.284Z" fill="#7A7A7A"/>
<path d="M1710.84 253.085V239.128H1713.91V244.651H1719.57V239.128H1722.64V253.085H1719.57V247.482H1713.91V253.085H1710.84ZM1731.11 253.085V247.582L1725.75 239.128H1729.33L1732.66 244.731L1736.05 239.128H1739.54L1734.18 247.522V253.085H1731.11ZM1742.65 253.085V239.128H1748.09C1752.48 239.128 1755.51 242.139 1755.51 246.067V246.107C1755.51 250.034 1752.48 253.085 1748.09 253.085H1742.65ZM1748.09 241.9H1745.72V250.314H1748.09C1750.61 250.314 1752.3 248.619 1752.3 246.147V246.107C1752.3 243.634 1750.61 241.9 1748.09 241.9ZM1759.44 253.085V239.128H1765.82C1767.6 239.128 1768.97 239.627 1769.89 240.544C1770.67 241.321 1771.09 242.418 1771.09 243.734V243.774C1771.09 246.027 1769.87 247.442 1768.1 248.1L1771.5 253.085H1767.92L1764.93 248.619H1762.51V253.085H1759.44ZM1762.51 245.907H1765.62C1767.12 245.907 1767.98 245.11 1767.98 243.933V243.894C1767.98 242.578 1767.06 241.9 1765.56 241.9H1762.51V245.907ZM1773.85 253.085L1779.83 239.029H1782.66L1788.64 253.085H1785.43L1784.16 249.955H1778.26L1776.98 253.085H1773.85ZM1779.35 247.243H1783.06L1781.21 242.717L1779.35 247.243Z" fill="#7A7A7A"/>
<path d="M1900.34 253.185L1895.57 239.128H1898.86L1901.75 248.579L1904.88 239.088H1907.52L1910.65 248.579L1913.54 239.128H1916.75L1911.98 253.185H1909.31L1906.16 244.053L1903.01 253.185H1900.34ZM1920.36 253.085V239.128H1923.43V253.085H1920.36ZM1928.11 253.085V239.128H1933.55C1937.94 239.128 1940.97 242.139 1940.97 246.067V246.107C1940.97 250.034 1937.94 253.085 1933.55 253.085H1928.11ZM1933.55 241.9H1931.18V250.314H1933.55C1936.07 250.314 1937.76 248.619 1937.76 246.147V246.107C1937.76 243.634 1936.07 241.9 1933.55 241.9ZM1947.36 253.085V241.96H1943.11V239.128H1954.67V241.96H1950.43V253.085H1947.36ZM1958.23 253.085V239.128H1961.3V244.651H1966.96V239.128H1970.03V253.085H1966.96V247.482H1961.3V253.085H1958.23Z" fill="#7A7A7A"/>
<path d="M1211.53 944.471C1209.42 944.471 1207.29 943.733 1205.61 942.238L1207.43 940.065C1208.68 941.101 1210 941.759 1211.59 941.759C1212.85 941.759 1213.61 941.261 1213.61 940.443V940.403C1213.61 939.626 1213.13 939.227 1210.8 938.629C1207.99 937.911 1206.17 937.134 1206.17 934.362V934.322C1206.17 931.79 1208.21 930.115 1211.06 930.115C1213.09 930.115 1214.82 930.753 1216.24 931.89L1214.65 934.203C1213.41 933.345 1212.19 932.827 1211.02 932.827C1209.84 932.827 1209.22 933.365 1209.22 934.043V934.083C1209.22 935 1209.82 935.299 1212.23 935.917C1215.06 936.655 1216.66 937.672 1216.66 940.104V940.144C1216.66 942.916 1214.55 944.471 1211.53 944.471ZM1220.52 944.271V930.315H1231.05V933.046H1223.57V935.878H1230.15V938.609H1223.57V941.54H1231.15V944.271H1220.52ZM1249.49 942.517L1247.53 944.69L1246 943.314C1244.82 944.072 1243.41 944.511 1241.85 944.511C1237.55 944.511 1234.46 941.301 1234.46 937.333V937.293C1234.46 933.325 1237.59 930.076 1241.89 930.076C1246.2 930.076 1249.29 933.286 1249.29 937.253V937.293C1249.29 938.769 1248.83 940.144 1248.05 941.301L1249.49 942.517ZM1241.89 941.68C1242.57 941.68 1243.19 941.56 1243.73 941.301L1241.45 939.367L1243.41 937.174L1245.7 939.247C1245.94 938.689 1246.08 938.031 1246.08 937.333V937.293C1246.08 934.901 1244.32 932.907 1241.85 932.907C1239.38 932.907 1237.67 934.861 1237.67 937.253V937.293C1237.67 939.686 1239.42 941.68 1241.89 941.68ZM1259.03 944.491C1255.28 944.491 1252.99 942.397 1252.99 938.29V930.315H1256.06V938.21C1256.06 940.483 1257.2 941.66 1259.07 941.66C1260.95 941.66 1262.08 940.523 1262.08 938.31V930.315H1265.15V938.19C1265.15 942.417 1262.78 944.491 1259.03 944.491ZM1269.48 944.271V930.315H1280V933.046H1272.53V935.878H1279.11V938.609H1272.53V941.54H1280.1V944.271H1269.48ZM1284.03 944.271V930.315H1286.86L1293.4 938.908V930.315H1296.43V944.271H1293.82L1287.06 935.399V944.271H1284.03ZM1307.52 944.511C1303.41 944.511 1300.36 941.341 1300.36 937.333V937.293C1300.36 933.325 1303.35 930.076 1307.64 930.076C1310.27 930.076 1311.84 930.953 1313.14 932.229L1311.19 934.482C1310.11 933.505 1309.01 932.907 1307.62 932.907C1305.26 932.907 1303.57 934.861 1303.57 937.253V937.293C1303.57 939.686 1305.22 941.68 1307.62 941.68C1309.21 941.68 1310.19 941.042 1311.29 940.045L1313.24 942.018C1311.8 943.554 1310.21 944.511 1307.52 944.511ZM1316.89 944.271V930.315H1327.42V933.046H1319.94V935.878H1326.52V938.609H1319.94V941.54H1327.52V944.271H1316.89ZM1337.92 944.271V941.839L1342.57 938.031C1344.3 936.595 1344.98 935.838 1344.98 934.681C1344.98 933.505 1344.2 932.867 1343.11 932.867C1342.03 932.867 1341.29 933.465 1340.26 934.741L1338.1 933.006C1339.48 931.132 1340.81 930.115 1343.31 930.115C1346.2 930.115 1348.11 931.81 1348.11 934.422V934.462C1348.11 936.795 1346.91 937.951 1344.44 939.865L1342.17 941.62H1348.25V944.271H1337.92Z" fill="#7A7A7A"/>
<path d="M58.4499 483.68C56.3365 483.68 54.2031 482.942 52.5283 481.447L54.3427 479.274C55.5988 480.31 56.9147 480.968 58.5097 480.968C59.7658 480.968 60.5235 480.47 60.5235 479.652V479.612C60.5235 478.835 60.045 478.436 57.7122 477.838C54.9009 477.12 53.0866 476.343 53.0866 473.571V473.531C53.0866 470.999 55.1203 469.324 57.9714 469.324C60.0051 469.324 61.7397 469.962 63.1553 471.099L61.5603 473.412C60.3241 472.554 59.1079 472.036 57.9315 472.036C56.7552 472.036 56.1371 472.574 56.1371 473.252V473.292C56.1371 474.209 56.7352 474.508 59.1478 475.126C61.979 475.864 63.574 476.881 63.574 479.313V479.353C63.574 482.125 61.4606 483.68 58.4499 483.68ZM70.3928 483.48V472.355H66.146V469.524H77.7101V472.355H73.4633V483.48H70.3928ZM81.2678 483.48V469.524H91.7951V472.255H84.3183V475.087H90.8979V477.818H84.3183V480.749H91.8948V483.48H81.2678ZM95.821 483.48V469.524H101.523C104.853 469.524 106.867 471.498 106.867 474.349V474.389C106.867 477.619 104.355 479.293 101.224 479.293H98.8915V483.48H95.821ZM98.8915 476.562H101.324C102.859 476.562 103.756 475.645 103.756 474.449V474.409C103.756 473.033 102.799 472.295 101.264 472.295H98.8915V476.562Z" fill="#7A7A7A"/>
<path d="M288.845 483.68C286.732 483.68 284.599 482.942 282.924 481.447L284.738 479.274C285.994 480.31 287.31 480.968 288.905 480.968C290.161 480.968 290.919 480.47 290.919 479.652V479.612C290.919 478.835 290.44 478.436 288.108 477.838C285.296 477.12 283.482 476.343 283.482 473.571V473.531C283.482 470.999 285.516 469.324 288.367 469.324C290.401 469.324 292.135 469.962 293.551 471.099L291.956 473.412C290.72 472.554 289.503 472.036 288.327 472.036C287.151 472.036 286.533 472.574 286.533 473.252V473.292C286.533 474.209 287.131 474.508 289.543 475.126C292.374 475.864 293.97 476.881 293.97 479.313V479.353C293.97 482.125 291.856 483.68 288.845 483.68ZM300.788 483.48V472.355H296.542V469.524H308.106V472.355H303.859V483.48H300.788ZM311.663 483.48V469.524H322.191V472.255H314.714V475.087H321.293V477.818H314.714V480.749H322.29V483.48H311.663ZM326.217 483.48V469.524H331.919C335.248 469.524 337.262 471.498 337.262 474.349V474.389C337.262 477.619 334.75 479.293 331.62 479.293H329.287V483.48H326.217ZM329.287 476.562H331.719C333.255 476.562 334.152 475.645 334.152 474.449V474.409C334.152 473.033 333.195 472.295 331.66 472.295H329.287V476.562ZM348.044 483.48V469.524H351.115V483.48H348.044ZM355.799 483.48V469.524H358.63L365.17 478.117V469.524H368.2V483.48H365.588L358.829 474.608V483.48H355.799ZM377.193 483.58L371.551 469.524H374.94L378.589 479.353L382.238 469.524H385.547L379.905 483.58H377.193ZM388.897 483.48V469.524H399.424V472.255H391.947V475.087H398.527V477.818H391.947V480.749H399.524V483.48H388.897ZM403.45 483.48V469.524H409.83C411.605 469.524 412.98 470.022 413.898 470.939C414.675 471.717 415.094 472.814 415.094 474.13V474.169C415.094 476.422 413.878 477.838 412.103 478.496L415.513 483.48H411.924L408.933 479.014H406.521V483.48H403.45ZM406.521 476.303H409.631C411.126 476.303 411.984 475.505 411.984 474.329V474.289C411.984 472.973 411.066 472.295 409.571 472.295H406.521V476.303ZM422.305 483.48V472.355H418.058V469.524H429.622V472.355H425.375V483.48H422.305Z" fill="#7A7A7A"/>
<path d="M518.634 483.48V472.355H514.387V469.524H525.951V472.355H521.704V483.48H518.634ZM529.509 483.48V469.524H532.579V475.047H538.242V469.524H541.312V483.48H538.242V477.878H532.579V483.48H529.509ZM545.853 483.48V469.524H552.233C554.008 469.524 555.384 470.022 556.301 470.939C557.078 471.717 557.497 472.814 557.497 474.13V474.169C557.497 476.422 556.281 477.838 554.506 478.496L557.916 483.48H554.327L551.336 479.014H548.924V483.48H545.853ZM548.924 476.303H552.034C553.529 476.303 554.387 475.505 554.387 474.329V474.289C554.387 472.973 553.47 472.295 551.974 472.295H548.924V476.303ZM561.458 483.48V469.524H571.985V472.255H564.508V475.087H571.088V477.818H564.508V480.749H572.085V483.48H561.458ZM580.976 483.68C578.862 483.68 576.729 482.942 575.054 481.447L576.868 479.274C578.125 480.31 579.44 480.968 581.035 480.968C582.292 480.968 583.049 480.47 583.049 479.652V479.612C583.049 478.835 582.571 478.436 580.238 477.838C577.427 477.12 575.612 476.343 575.612 473.571V473.531C575.612 470.999 577.646 469.324 580.497 469.324C582.531 469.324 584.265 469.962 585.681 471.099L584.086 473.412C582.85 472.554 581.634 472.036 580.457 472.036C579.281 472.036 578.663 472.574 578.663 473.252V473.292C578.663 474.209 579.261 474.508 581.673 475.126C584.505 475.864 586.1 476.881 586.1 479.313V479.353C586.1 482.125 583.986 483.68 580.976 483.68ZM589.961 483.48V469.524H593.031V475.047H598.694V469.524H601.764V483.48H598.694V477.878H593.031V483.48H589.961ZM613.084 483.72C608.778 483.72 605.687 480.51 605.687 476.542V476.502C605.687 472.534 608.817 469.285 613.124 469.285C617.431 469.285 620.521 472.495 620.521 476.462V476.502C620.521 480.47 617.391 483.72 613.084 483.72ZM613.124 480.889C615.596 480.889 617.311 478.935 617.311 476.542V476.502C617.311 474.11 615.557 472.116 613.084 472.116C610.612 472.116 608.897 474.07 608.897 476.462V476.502C608.897 478.895 610.652 480.889 613.124 480.889ZM624.441 483.48V469.524H627.512V480.689H634.47V483.48H624.441ZM637.982 483.48V469.524H643.425C647.811 469.524 650.842 472.534 650.842 476.462V476.502C650.842 480.43 647.811 483.48 643.425 483.48H637.982ZM643.425 472.295H641.052V480.709H643.425C645.937 480.709 647.632 479.014 647.632 476.542V476.502C647.632 474.03 645.937 472.295 643.425 472.295Z" fill="#7A7A7A"/>
<path d="M748.752 483.48V472.355H744.505V469.524H756.069V472.355H751.822V483.48H748.752ZM765.802 483.72C761.496 483.72 758.405 480.51 758.405 476.542V476.502C758.405 472.534 761.535 469.285 765.842 469.285C770.149 469.285 773.239 472.495 773.239 476.462V476.502C773.239 480.47 770.109 483.72 765.802 483.72ZM765.842 480.889C768.314 480.889 770.029 478.935 770.029 476.542V476.502C770.029 474.11 768.274 472.116 765.802 472.116C763.33 472.116 761.615 474.07 761.615 476.462V476.502C761.615 478.895 763.37 480.889 765.842 480.889ZM782.981 483.7C779.233 483.7 776.94 481.606 776.94 477.499V469.524H780.01V477.419C780.01 479.692 781.147 480.869 783.021 480.869C784.895 480.869 786.032 479.732 786.032 477.519V469.524H789.102V477.399C789.102 481.626 786.729 483.7 782.981 483.7ZM799.965 483.72C795.858 483.72 792.808 480.55 792.808 476.542V476.502C792.808 472.534 795.798 469.285 800.085 469.285C802.717 469.285 804.292 470.162 805.588 471.438L803.634 473.691C802.557 472.714 801.461 472.116 800.065 472.116C797.712 472.116 796.018 474.07 796.018 476.462V476.502C796.018 478.895 797.673 480.889 800.065 480.889C801.66 480.889 802.637 480.251 803.734 479.254L805.688 481.227C804.252 482.763 802.657 483.72 799.965 483.72ZM809.342 483.48V469.524H812.412V475.047H818.075V469.524H821.145V483.48H818.075V477.878H812.412V483.48H809.342Z" fill="#7A7A7A"/>
<path d="M975.067 483.48V469.524H978.138V480.689H985.096V483.48H975.067ZM988.608 483.48V469.524H999.135V472.255H991.659V475.087H998.238V477.818H991.659V480.749H999.235V483.48H988.608ZM1007.61 483.58L1001.97 469.524H1005.35L1009 479.353L1012.65 469.524H1015.96L1010.32 483.58H1007.61ZM1019.31 483.48V469.524H1029.84V472.255H1022.36V475.087H1028.94V477.818H1022.36V480.749H1029.94V483.48H1019.31ZM1033.86 483.48V469.524H1036.93V480.689H1043.89V483.48H1033.86Z" fill="#7A7A7A"/>
<path d="M1211.53 483.68C1209.42 483.68 1207.29 482.942 1205.61 481.447L1207.43 479.274C1208.68 480.31 1210 480.968 1211.59 480.968C1212.85 480.968 1213.61 480.47 1213.61 479.652V479.612C1213.61 478.835 1213.13 478.436 1210.8 477.838C1207.99 477.12 1206.17 476.343 1206.17 473.571V473.531C1206.17 470.999 1208.21 469.324 1211.06 469.324C1213.09 469.324 1214.82 469.962 1216.24 471.099L1214.65 473.412C1213.41 472.554 1212.19 472.036 1211.02 472.036C1209.84 472.036 1209.22 472.574 1209.22 473.252V473.292C1209.22 474.209 1209.82 474.508 1212.23 475.126C1215.06 475.864 1216.66 476.881 1216.66 479.313V479.353C1216.66 482.125 1214.55 483.68 1211.53 483.68ZM1223.48 483.48V472.355H1219.23V469.524H1230.8V472.355H1226.55V483.48H1223.48ZM1234.35 483.48V469.524H1244.88V472.255H1237.4V475.087H1243.98V477.818H1237.4V480.749H1244.98V483.48H1234.35ZM1248.91 483.48V469.524H1254.61C1257.94 469.524 1259.95 471.498 1259.95 474.349V474.389C1259.95 477.619 1257.44 479.293 1254.31 479.293H1251.98V483.48H1248.91ZM1251.98 476.562H1254.41C1255.94 476.562 1256.84 475.645 1256.84 474.449V474.409C1256.84 473.033 1255.88 472.295 1254.35 472.295H1251.98V476.562Z" fill="#7A7A7A"/>
<path d="M1435.86 483.48V469.524H1441.3C1445.69 469.524 1448.72 472.534 1448.72 476.462V476.502C1448.72 480.43 1445.69 483.48 1441.3 483.48H1435.86ZM1441.3 472.295H1438.93V480.709H1441.3C1443.81 480.709 1445.51 479.014 1445.51 476.542V476.502C1445.51 474.03 1443.81 472.295 1441.3 472.295ZM1452.79 483.48V469.524H1455.86V483.48H1452.79ZM1460.54 483.48V469.524H1466.93C1468.7 469.524 1470.08 470.022 1470.99 470.939C1471.77 471.717 1472.19 472.814 1472.19 474.13V474.169C1472.19 476.422 1470.97 477.838 1469.2 478.496L1472.61 483.48H1469.02L1466.03 479.014H1463.62V483.48H1460.54ZM1463.62 476.303H1466.73C1468.22 476.303 1469.08 475.505 1469.08 474.329V474.289C1469.08 472.973 1468.16 472.295 1466.67 472.295H1463.62V476.303ZM1476.15 483.48V469.524H1486.68V472.255H1479.2V475.087H1485.78V477.818H1479.2V480.749H1486.78V483.48H1476.15ZM1497.24 483.72C1493.14 483.72 1490.08 480.55 1490.08 476.542V476.502C1490.08 472.534 1493.08 469.285 1497.36 469.285C1499.99 469.285 1501.57 470.162 1502.87 471.438L1500.91 473.691C1499.83 472.714 1498.74 472.116 1497.34 472.116C1494.99 472.116 1493.29 474.07 1493.29 476.462V476.502C1493.29 478.895 1494.95 480.889 1497.34 480.889C1498.94 480.889 1499.91 480.251 1501.01 479.254L1502.96 481.227C1501.53 482.763 1499.93 483.72 1497.24 483.72ZM1509.87 483.48V472.355H1505.62V469.524H1517.19V472.355H1512.94V483.48H1509.87ZM1520.88 483.48V469.524H1523.95V483.48H1520.88ZM1535.42 483.72C1531.11 483.72 1528.02 480.51 1528.02 476.542V476.502C1528.02 472.534 1531.15 469.285 1535.46 469.285C1539.76 469.285 1542.85 472.495 1542.85 476.462V476.502C1542.85 480.47 1539.72 483.72 1535.42 483.72ZM1535.46 480.889C1537.93 480.889 1539.64 478.935 1539.64 476.542V476.502C1539.64 474.11 1537.89 472.116 1535.42 472.116C1532.94 472.116 1531.23 474.07 1531.23 476.462V476.502C1531.23 478.895 1532.98 480.889 1535.46 480.889ZM1546.77 483.48V469.524H1549.61L1556.14 478.117V469.524H1559.18V483.48H1556.56L1549.8 474.608V483.48H1546.77Z" fill="#7A7A7A"/>
<path d="M1665.15 483.48V469.524H1668.22V480.689H1675.17V483.48H1665.15ZM1678.69 483.48V469.524H1689.21V472.255H1681.74V475.087H1688.32V477.818H1681.74V480.749H1689.31V483.48H1678.69ZM1697.69 483.58L1692.04 469.524H1695.43L1699.08 479.353L1702.73 469.524H1706.04L1700.4 483.58H1697.69ZM1709.39 483.48V469.524H1719.92V472.255H1712.44V475.087H1719.02V477.818H1712.44V480.749H1720.02V483.48H1709.39ZM1723.94 483.48V469.524H1727.01V480.689H1733.97V483.48H1723.94Z" fill="#7A7A7A"/>
<path d="M1896.79 483.48V469.524H1899.86V483.48H1896.79ZM1904.54 483.48V469.524H1907.37L1913.91 478.117V469.524H1916.95V483.48H1914.33L1907.57 474.608V483.48H1904.54ZM1924.74 483.48V472.355H1920.49V469.524H1932.06V472.355H1927.81V483.48H1924.74ZM1935.62 483.48V469.524H1946.14V472.255H1938.67V475.087H1945.25V477.818H1938.67V480.749H1946.24V483.48H1935.62ZM1950.17 483.48V469.524H1953L1959.54 478.117V469.524H1962.57V483.48H1959.96L1953.2 474.608V483.48H1950.17ZM1972.08 483.68C1969.97 483.68 1967.84 482.942 1966.16 481.447L1967.98 479.274C1969.23 480.31 1970.55 480.968 1972.14 480.968C1973.4 480.968 1974.16 480.47 1974.16 479.652V479.612C1974.16 478.835 1973.68 478.436 1971.34 477.838C1968.53 477.12 1966.72 476.343 1966.72 473.571V473.531C1966.72 470.999 1968.75 469.324 1971.6 469.324C1973.64 469.324 1975.37 469.962 1976.79 471.099L1975.19 473.412C1973.96 472.554 1972.74 472.036 1971.56 472.036C1970.39 472.036 1969.77 472.574 1969.77 473.252V473.292C1969.77 474.209 1970.37 474.508 1972.78 475.126C1975.61 475.864 1977.21 476.881 1977.21 479.313V479.353C1977.21 482.125 1975.09 483.68 1972.08 483.68ZM1981.21 483.48V469.524H1984.28V483.48H1981.21ZM1992.21 483.48V472.355H1987.96V469.524H1999.53V472.355H1995.28V483.48H1992.21ZM2007.01 483.48V477.978L2001.65 469.524H2005.24L2008.57 475.126L2011.96 469.524H2015.45L2010.09 477.918V483.48H2007.01Z" fill="#7A7A7A"/>
<path d="M1899.9 713.6V702.474H1895.65V699.643H1907.22V702.474H1902.97V713.6H1899.9ZM1910.91 713.6V699.643H1913.98V713.6H1910.91ZM1918.67 713.6V699.643H1921.98L1925.65 705.545L1929.32 699.643H1932.63V713.6H1929.57V704.488L1925.65 710.449H1925.57L1921.68 704.548V713.6H1918.67ZM1937.17 713.6V699.643H1947.7V702.374H1940.22V705.206H1946.8V707.937H1940.22V710.868H1947.8V713.6H1937.17Z" fill="#7A7A7A"/>
<path d="M1901.61 944.471C1899.5 944.471 1897.37 943.733 1895.69 942.238L1897.51 940.065C1898.76 941.101 1900.08 941.759 1901.67 941.759C1902.93 941.759 1903.69 941.261 1903.69 940.443V940.403C1903.69 939.626 1903.21 939.227 1900.88 938.629C1898.07 937.911 1896.25 937.134 1896.25 934.362V934.322C1896.25 931.79 1898.28 930.115 1901.14 930.115C1903.17 930.115 1904.9 930.753 1906.32 931.89L1904.72 934.203C1903.49 933.345 1902.27 932.827 1901.1 932.827C1899.92 932.827 1899.3 933.365 1899.3 934.043V934.083C1899.3 935 1899.9 935.299 1902.31 935.917C1905.14 936.655 1906.74 937.672 1906.74 940.104V940.144C1906.74 942.916 1904.62 944.471 1901.61 944.471ZM1917.14 944.511C1913.03 944.511 1909.98 941.341 1909.98 937.333V937.293C1909.98 933.325 1912.97 930.076 1917.26 930.076C1919.89 930.076 1921.47 930.953 1922.76 932.229L1920.81 934.482C1919.73 933.505 1918.63 932.907 1917.24 932.907C1914.89 932.907 1913.19 934.861 1913.19 937.253V937.293C1913.19 939.686 1914.85 941.68 1917.24 941.68C1918.83 941.68 1919.81 941.042 1920.91 940.045L1922.86 942.018C1921.43 943.554 1919.83 944.511 1917.14 944.511ZM1925.32 944.271L1931.3 930.215H1934.13L1940.11 944.271H1936.9L1935.63 941.141H1929.73L1928.45 944.271H1925.32ZM1930.82 938.43H1934.53L1932.68 933.904L1930.82 938.43ZM1943.46 944.271V930.315H1946.53V941.48H1953.49V944.271H1943.46ZM1957 944.271V930.315H1967.53V933.046H1960.05V935.878H1966.63V938.609H1960.05V941.54H1967.63V944.271H1957Z" fill="#7A7A7A"/>
<path d="M1669.59 944.371L1663.95 930.315H1667.34L1670.99 940.144L1674.64 930.315H1677.95L1672.3 944.371H1669.59ZM1687.18 944.511C1682.87 944.511 1679.78 941.301 1679.78 937.333V937.293C1679.78 933.325 1682.91 930.076 1687.22 930.076C1691.53 930.076 1694.62 933.286 1694.62 937.253V937.293C1694.62 941.261 1691.49 944.511 1687.18 944.511ZM1687.22 941.68C1689.69 941.68 1691.41 939.726 1691.41 937.333V937.293C1691.41 934.901 1689.65 932.907 1687.18 932.907C1684.71 932.907 1682.99 934.861 1682.99 937.253V937.293C1682.99 939.686 1684.75 941.68 1687.22 941.68ZM1698.68 944.271V930.315H1701.75V944.271H1698.68ZM1712.97 944.511C1708.86 944.511 1705.81 941.341 1705.81 937.333V937.293C1705.81 933.325 1708.8 930.076 1713.09 930.076C1715.72 930.076 1717.3 930.953 1718.59 932.229L1716.64 934.482C1715.56 933.505 1714.46 932.907 1713.07 932.907C1710.72 932.907 1709.02 934.861 1709.02 937.253V937.293C1709.02 939.686 1710.68 941.68 1713.07 941.68C1714.66 941.68 1715.64 941.042 1716.74 940.045L1718.69 942.018C1717.26 943.554 1715.66 944.511 1712.97 944.511ZM1722.35 944.271V930.315H1732.87V933.046H1725.4V935.878H1731.98V938.609H1725.4V941.54H1732.97V944.271H1722.35ZM1743.38 944.271V941.839L1748.02 938.031C1749.76 936.595 1750.43 935.838 1750.43 934.681C1750.43 933.505 1749.66 932.867 1748.56 932.867C1747.48 932.867 1746.74 933.465 1745.71 934.741L1743.55 933.006C1744.93 931.132 1746.27 930.115 1748.76 930.115C1751.65 930.115 1753.56 931.81 1753.56 934.422V934.462C1753.56 936.795 1752.37 937.951 1749.89 939.865L1747.62 941.62H1753.7V944.271H1743.38Z" fill="#7A7A7A"/>
<path d="M58.4499 944.471C56.3365 944.471 54.2031 943.733 52.5283 942.238L54.3427 940.065C55.5988 941.101 56.9147 941.759 58.5097 941.759C59.7658 941.759 60.5235 941.261 60.5235 940.443V940.403C60.5235 939.626 60.045 939.227 57.7122 938.629C54.9009 937.911 53.0866 937.134 53.0866 934.362V934.322C53.0866 931.79 55.1203 930.115 57.9714 930.115C60.0051 930.115 61.7397 930.753 63.1553 931.89L61.5603 934.203C60.3241 933.345 59.1079 932.827 57.9315 932.827C56.7552 932.827 56.1371 933.365 56.1371 934.043V934.083C56.1371 935 56.7352 935.299 59.1478 935.917C61.979 936.655 63.574 937.672 63.574 940.104V940.144C63.574 942.916 61.4606 944.471 58.4499 944.471ZM67.435 944.271V930.315H77.9623V933.046H70.4855V935.878H77.0651V938.609H70.4855V941.54H78.062V944.271H67.435ZM96.4034 942.517L94.4495 944.69L92.9143 943.314C91.7379 944.072 90.3223 944.511 88.7672 944.511C84.4605 944.511 81.3701 941.301 81.3701 937.333V937.293C81.3701 933.325 84.5004 930.076 88.807 930.076C93.1137 930.076 96.2041 933.286 96.2041 937.253V937.293C96.2041 938.769 95.7455 940.144 94.9679 941.301L96.4034 942.517ZM88.807 941.68C89.4849 941.68 90.103 941.56 90.6413 941.301L88.3684 939.367L90.3223 937.174L92.6152 939.247C92.8545 938.689 92.994 938.031 92.994 937.333V937.293C92.994 934.901 91.2395 932.907 88.7672 932.907C86.2948 932.907 84.5802 934.861 84.5802 937.253V937.293C84.5802 939.686 86.3347 941.68 88.807 941.68ZM105.946 944.491C102.198 944.491 99.9048 942.397 99.9048 938.29V930.315H102.975V938.21C102.975 940.483 104.112 941.66 105.986 941.66C107.86 941.66 108.997 940.523 108.997 938.31V930.315H112.067V938.19C112.067 942.417 109.694 944.491 105.946 944.491ZM116.391 944.271V930.315H126.918V933.046H119.441V935.878H126.021V938.609H119.441V941.54H127.018V944.271H116.391ZM130.944 944.271V930.315H133.775L140.315 938.908V930.315H143.345V944.271H140.734L133.975 935.399V944.271H130.944ZM154.432 944.511C150.325 944.511 147.274 941.341 147.274 937.333V937.293C147.274 933.325 150.265 930.076 154.551 930.076C157.183 930.076 158.758 930.953 160.054 932.229L158.1 934.482C157.024 933.505 155.927 932.907 154.531 932.907C152.179 932.907 150.484 934.861 150.484 937.253V937.293C150.484 939.686 152.139 941.68 154.531 941.68C156.127 941.68 157.103 941.042 158.2 940.045L160.154 942.018C158.718 943.554 157.123 944.511 154.432 944.511ZM163.808 944.271V930.315H174.336V933.046H166.859V935.878H173.438V938.609H166.859V941.54H174.435V944.271H163.808ZM187.41 944.271V933.325L184.977 933.924L184.339 931.411L188.347 930.215H190.44V944.271H187.41Z" fill="#7A7A7A"/>
<path d="M979.514 944.371L973.871 930.315H977.261L980.909 940.144L984.558 930.315H987.868L982.225 944.371H979.514ZM997.1 944.511C992.794 944.511 989.703 941.301 989.703 937.333V937.293C989.703 933.325 992.834 930.076 997.14 930.076C1001.45 930.076 1004.54 933.286 1004.54 937.253V937.293C1004.54 941.261 1001.41 944.511 997.1 944.511ZM997.14 941.68C999.613 941.68 1001.33 939.726 1001.33 937.333V937.293C1001.33 934.901 999.573 932.907 997.1 932.907C994.628 932.907 992.914 934.861 992.914 937.253V937.293C992.914 939.686 994.668 941.68 997.14 941.68ZM1008.6 944.271V930.315H1011.67V944.271H1008.6ZM1022.89 944.511C1018.78 944.511 1015.73 941.341 1015.73 937.333V937.293C1015.73 933.325 1018.72 930.076 1023.01 930.076C1025.64 930.076 1027.22 930.953 1028.51 932.229L1026.56 934.482C1025.48 933.505 1024.39 932.907 1022.99 932.907C1020.64 932.907 1018.94 934.861 1018.94 937.253V937.293C1018.94 939.686 1020.6 941.68 1022.99 941.68C1024.59 941.68 1025.56 941.042 1026.66 940.045L1028.61 942.018C1027.18 943.554 1025.58 944.511 1022.89 944.511ZM1032.27 944.271V930.315H1042.8V933.046H1035.32V935.878H1041.9V938.609H1035.32V941.54H1042.89V944.271H1032.27ZM1055.87 944.271V933.325L1053.44 933.924L1052.8 931.411L1056.81 930.215H1058.9V944.271H1055.87Z" fill="#7A7A7A"/>
<circle cx="962.315" cy="728.105" r="10" fill="#FF00FF"/>
<circle cx="1653.5" cy="728.105" r="10" fill="#FF00FF"/>
<circle cx="297.714" cy="697.092" r="16.115" stroke="#7A7A7A"/>
<circle cx="297.714" cy="697.092" r="10" fill="#FF00FF"/>
<circle cx="67.3181" cy="697.092" r="16.115" stroke="#7A7A7A"/>
<circle cx="67.3184" cy="697.092" r="10" fill="#FF00FF"/>
<circle cx="758.505" cy="697.092" r="16.115" stroke="#7A7A7A"/>
<circle cx="758.505" cy="697.092" r="10" fill="#FF00FF"/>
<circle cx="1396.52" cy="697.092" r="16.115" stroke="#7A7A7A"/>
<circle cx="1396.52" cy="697.092" r="10" fill="#FF00FF"/>
<circle cx="1449.69" cy="753.583" r="16.115" stroke="#7A7A7A"/>
<circle cx="1449.69" cy="753.583" r="10" fill="#FF00FF"/>
<circle cx="1910.48" cy="811.181" r="16.115" stroke="#7A7A7A"/>
<circle cx="1910.48" cy="811.182" r="10" fill="#FF00FF"/>
<circle cx="1910.48" cy="523.187" r="16.115" stroke="#7A7A7A"/>
<circle cx="1910.48" cy="523.188" r="10" fill="#FF00FF"/>
<circle cx="1449.69" cy="236.301" r="16.115" stroke="#7A7A7A"/>
<circle cx="1449.69" cy="236.301" r="10" fill="#FF00FF"/>
<circle cx="988.9" cy="236.301" r="16.115" stroke="#7A7A7A"/>
<circle cx="988.9" cy="236.301" r="10" fill="#FF00FF"/>
<circle cx="758.505" cy="236.301" r="16.115" stroke="#7A7A7A"/>
<circle cx="758.505" cy="236.301" r="10" fill="#FF00FF"/>
<circle cx="1219.3" cy="236.301" r="16.115" stroke="#7A7A7A"/>
<circle cx="1219.3" cy="236.301" r="10" fill="#FF00FF"/>
<circle cx="1680.09" cy="236.301" r="16.115" stroke="#7A7A7A"/>
<circle cx="1680.09" cy="236.301" r="10" fill="#FF00FF"/>
<circle cx="1910.48" cy="867.673" r="16.115" stroke="#7A7A7A"/>
<circle cx="1910.48" cy="867.673" r="10" fill="#FF00FF"/>
<circle cx="1449.69" cy="697.092" r="16.115" stroke="#7A7A7A"/>
<circle cx="1449.69" cy="697.092" r="10" fill="#FF00FF"/>
<circle cx="528.109" cy="697.092" r="16.115" stroke="#7A7A7A"/>
<circle cx="528.109" cy="697.092" r="10" fill="#FF00FF"/>
<circle cx="1910.48" cy="753.583" r="16.115" stroke="#7A7A7A"/>
<circle cx="1910.48" cy="753.583" r="10" fill="#FF00FF"/>
<circle cx="1396.52" cy="753.583" r="16.115" stroke="#7A7A7A"/>
<circle cx="1396.52" cy="753.583" r="10" fill="#FF00FF"/>
<circle cx="614.508" cy="843.304" r="10" fill="#FF00FF"/>
<circle cx="614.507" cy="843.304" r="64.855" stroke="#7A7A7A"/>
<circle cx="384.113" cy="843.304" r="10" fill="#FF00FF"/>
<circle cx="384.113" cy="843.304" r="64.855" stroke="#7A7A7A"/>
<circle cx="153.717" cy="843.304" r="10" fill="#FF00FF"/>
<circle cx="153.716" cy="843.304" r="64.855" stroke="#7A7A7A"/>
<circle cx="844.903" cy="843.304" r="10" fill="#FF00FF"/>
<circle cx="844.903" cy="843.304" r="64.855" stroke="#7A7A7A"/>
<circle cx="614.508" cy="382.513" r="10" fill="#FF00FF"/>
<circle cx="614.507" cy="382.513" r="64.855" stroke="#7A7A7A"/>
<circle cx="1305.69" cy="152.117" r="10" fill="#FF00FF"/>
<circle cx="1305.69" cy="152.118" r="64.855" stroke="#7A7A7A"/>
<circle cx="1766.49" cy="152.117" r="10" fill="#FF00FF"/>
<circle cx="1766.48" cy="152.118" r="64.855" stroke="#7A7A7A"/>
<circle cx="384.113" cy="382.513" r="10" fill="#FF00FF"/>
<circle cx="384.113" cy="382.513" r="64.855" stroke="#7A7A7A"/>
<circle cx="844.903" cy="152.117" r="10" fill="#FF00FF"/>
<circle cx="844.903" cy="152.118" r="64.855" stroke="#7A7A7A"/>
<circle cx="1075.3" cy="152.117" r="10" fill="#FF00FF"/>
<circle cx="1075.3" cy="152.118" r="64.855" stroke="#7A7A7A"/>
<circle cx="1536.09" cy="152.117" r="10" fill="#FF00FF"/>
<circle cx="1536.09" cy="152.118" r="64.855" stroke="#7A7A7A"/>
<circle cx="844.903" cy="382.513" r="10" fill="#FF00FF"/>
<circle cx="844.903" cy="382.513" r="64.855" stroke="#7A7A7A"/>
<circle cx="1075.3" cy="612.908" r="10" fill="#FF00FF"/>
<circle cx="1075.3" cy="612.909" r="64.855" stroke="#7A7A7A"/>
<circle cx="1305.69" cy="382.513" r="10" fill="#FF00FF"/>
<circle cx="1305.69" cy="382.513" r="64.855" stroke="#7A7A7A"/>
<circle cx="1766.49" cy="382.513" r="10" fill="#FF00FF"/>
<circle cx="1766.48" cy="382.513" r="64.855" stroke="#7A7A7A"/>
<circle cx="614.508" cy="152.117" r="10" fill="#FF00FF"/>
<circle cx="614.507" cy="152.118" r="64.855" stroke="#7A7A7A"/>
<circle cx="1536.09" cy="382.513" r="10" fill="#FF00FF"/>
<circle cx="1536.09" cy="382.513" r="64.855" stroke="#7A7A7A"/>
<circle cx="1075.3" cy="382.513" r="10" fill="#FF00FF"/>
<circle cx="1075.3" cy="382.513" r="64.855" stroke="#7A7A7A"/>
<circle cx="1766.49" cy="612.908" r="10" fill="#FF00FF"/>
<circle cx="1766.48" cy="612.909" r="64.855" stroke="#7A7A7A"/>
<circle cx="153.717" cy="382.513" r="10" fill="#FF00FF"/>
<circle cx="153.716" cy="382.513" r="64.855" stroke="#7A7A7A"/>
<circle cx="384.113" cy="612.908" r="10" fill="#FF00FF"/>
<circle cx="384.113" cy="612.909" r="64.855" stroke="#7A7A7A"/>
<circle cx="844.904" cy="612.908" r="10" fill="#FF00FF"/>
<circle cx="844.904" cy="612.909" r="64.855" stroke="#7A7A7A"/>
<circle cx="1766.49" cy="843.306" r="10" fill="#FF00FF"/>
<circle cx="1766.48" cy="843.306" r="64.855" stroke="#7A7A7A"/>
<circle cx="1536.09" cy="843.306" r="10" fill="#FF00FF"/>
<circle cx="1536.09" cy="843.306" r="64.855" stroke="#7A7A7A"/>
<circle cx="153.717" cy="152.117" r="10" fill="#FF00FF"/>
<circle cx="153.716" cy="152.118" r="64.855" stroke="#7A7A7A"/>
<circle cx="1996.88" cy="382.513" r="10" fill="#FF00FF"/>
<circle cx="1996.88" cy="382.513" r="64.855" stroke="#7A7A7A"/>
<circle cx="1536.09" cy="612.908" r="10" fill="#FF00FF"/>
<circle cx="1536.09" cy="612.909" r="64.855" stroke="#7A7A7A"/>
<circle cx="1305.69" cy="612.908" r="10" fill="#FF00FF"/>
<circle cx="1305.69" cy="612.909" r="64.855" stroke="#7A7A7A"/>
<circle cx="1996.88" cy="152.117" r="10" fill="#FF00FF"/>
<circle cx="1996.88" cy="152.118" r="64.855" stroke="#7A7A7A"/>
<circle cx="1075.3" cy="843.306" r="10" fill="#FF00FF"/>
<circle cx="1075.3" cy="843.306" r="64.855" stroke="#7A7A7A"/>
<circle cx="1305.69" cy="843.306" r="10" fill="#FF00FF"/>
<circle cx="1305.69" cy="843.306" r="64.855" stroke="#7A7A7A"/>
<circle cx="1996.88" cy="612.908" r="10" fill="#FF00FF"/>
<circle cx="1996.88" cy="612.909" r="64.855" stroke="#7A7A7A"/>
<circle cx="384.113" cy="152.117" r="10" fill="#FF00FF"/>
<circle cx="384.113" cy="152.118" r="64.855" stroke="#7A7A7A"/>
<circle cx="1996.88" cy="843.306" r="10" fill="#FF00FF"/>
<circle cx="1996.88" cy="843.306" r="64.855" stroke="#7A7A7A"/>
<circle cx="614.508" cy="612.908" r="10" fill="#FF00FF"/>
<circle cx="614.507" cy="612.909" r="64.855" stroke="#7A7A7A"/>
<circle cx="153.717" cy="612.908" r="10" fill="#FF00FF"/>
<circle cx="153.716" cy="612.909" r="64.855" stroke="#7A7A7A"/>
</svg>
