<svg width="2148" height="995" viewBox="0 0 2148 995" fill="none" xmlns="http://www.w3.org/2000/svg">
<rect x="1.96582" y="1.81836" width="2144.45" height="991.365" rx="28.7994" stroke="#7A7A7A" stroke-width="2"/>
<path d="M2110.97 267.659V50.5557C2110.97 43.2147 2105.02 37.2637 2097.68 37.2637H50.7032C43.3622 37.2637 37.4111 43.2147 37.4111 50.5557V267.659M2110.97 267.659H1883.9M2110.97 267.659V728.45M37.4111 267.659V944.446C37.4111 951.787 43.3621 957.738 50.7031 957.738H1193.27M37.4111 267.659H1193.27M1193.27 267.659V957.738M1193.27 267.659H1883.9M1193.27 957.738H1883.9M1883.9 50.5557V254.367M1883.9 267.659V728.45M1883.9 957.738H2097.68C2105.02 957.738 2110.97 951.787 2110.97 944.446V728.45M1883.9 957.738V728.45M1883.9 728.45H2110.97" stroke="#E5E5E3" stroke-width="5"/>
<path d="M271.684 50.5557V254.367M271.684 280.951V498.055M271.684 498.055V728.45M271.684 498.055H52.9189M271.684 498.055H501.525M271.684 728.45V943.892M271.684 728.45H52.9189M271.684 728.45H501.525M501.525 50.5557V254.367M501.525 280.951V498.055M501.525 498.055V728.45M501.525 498.055H731.921M501.525 728.45V943.338M501.525 728.45H731.921M731.921 50.5557V254.367M731.921 280.951V498.055M731.921 498.055V728.45M731.921 498.055H962.316M731.921 728.45V943.338M731.921 728.45H934.071M962.316 50.5557V254.367M962.316 280.951V498.055M962.316 498.055H1180.53M962.316 498.055V700.204M962.316 943.338V756.696M1192.71 50.5557V254.367M1423.11 50.5557V254.367M1423.11 280.951V498.055M1423.11 498.055V728.45M1423.11 498.055H1204.9M1423.11 498.055H1653.5M1423.11 728.45V943.338M1423.11 728.45H1204.9M1423.11 728.45H1625.26M1653.5 50.5557V254.367M1653.5 280.951V498.055M1653.5 498.055H1870.61M1653.5 498.055V700.204M1653.5 943.338V756.696M1180.53 728.45H1046.5M1870.61 728.45H1740.45M1896.08 498.055H2097.68M990.562 728.45C990.562 744.05 977.916 756.696 962.316 756.696M990.562 728.45C990.562 712.85 977.916 700.204 962.316 700.204M990.562 728.45H1000.53M962.316 756.696C946.717 756.696 934.071 744.05 934.071 728.45M934.071 728.45C934.071 712.85 946.717 700.204 962.316 700.204M1681.75 728.45C1681.75 744.05 1669.1 756.696 1653.5 756.696M1681.75 728.45C1681.75 712.85 1669.1 700.204 1653.5 700.204M1681.75 728.45H1691.72M1653.5 756.696C1637.9 756.696 1625.26 744.05 1625.26 728.45M1625.26 728.45C1625.26 712.85 1637.9 700.204 1653.5 700.204M1075.3 778.849V676.943M1766.49 676.943V780.51" stroke="#E5E5E3" stroke-width="2"/>
<path d="M1033.76 750.604V761.126H1012.71M1012.71 761.126L1019.36 754.48M1012.71 761.126L1019.36 767.772" stroke="#7A7A7A" stroke-width="2"/>
<path d="M1008.84 695.773L1018.81 704.081L1029.33 695.773L1039.85 705.189" stroke="#7A7A7A" stroke-width="2"/>
<path d="M1010.5 724.02V732.881M1016.04 718.481V737.312M1021.58 722.912V732.881M1026.84 720.697V735.097M1032.1 725.127V730.666M1037.64 724.02V731.773" stroke="#7A7A7A" stroke-width="2"/>
<path d="M1700.3 695.773L1710.27 704.081L1720.79 695.773L1731.32 705.189" stroke="#7A7A7A" stroke-width="2"/>
<path d="M1701.96 724.02V732.881M1707.5 718.481V737.312M1713.04 722.912V732.881M1718.3 720.697V735.097M1723.56 725.127V730.666M1729.1 724.02V731.773" stroke="#7A7A7A" stroke-width="2"/>
<path d="M1727.72 753.373C1727.72 750.62 1722.51 748.389 1716.09 748.389C1709.66 748.389 1704.46 750.62 1704.46 753.373M1727.72 753.373V762.511C1727.72 764.592 1724.74 766.375 1720.52 767.122M1727.72 753.373C1727.72 755.454 1724.74 757.237 1720.52 757.983M1704.46 753.373V762.511C1704.46 764.592 1707.43 766.375 1711.65 767.122M1704.46 753.373C1704.46 755.454 1707.43 757.237 1711.65 757.983M1720.52 757.983C1719.15 758.225 1717.65 758.358 1716.09 758.358C1714.52 758.358 1713.02 758.225 1711.65 757.983M1720.52 757.983V767.122M1720.52 767.122C1719.15 767.363 1717.65 767.496 1716.09 767.496C1714.52 767.496 1713.02 767.363 1711.65 767.122M1711.65 757.983V767.122" stroke="#7A7A7A" stroke-width="2"/>
<path d="M1920.52 194.403C1921.05 194.562 1921.6 194.261 1921.76 193.732L1924.34 185.108C1924.5 184.579 1924.19 184.022 1923.67 183.864C1923.14 183.706 1922.58 184.007 1922.42 184.536L1920.13 192.201L1912.47 189.91C1911.94 189.752 1911.38 190.053 1911.22 190.582C1911.06 191.111 1911.36 191.668 1911.89 191.826L1920.52 194.403ZM1920.8 193.445L1921.68 192.97C1915.18 180.917 1911.48 167.122 1911.48 152.461H1910.48H1909.48C1909.48 167.462 1913.26 181.583 1919.92 193.92L1920.8 193.445ZM1910.48 152.461H1911.48C1911.48 131.71 1918.88 112.69 1931.19 97.8914L1930.42 97.252L1929.65 96.6125C1917.06 111.757 1909.48 131.226 1909.48 152.461H1910.48Z" fill="#7A7A7A"/>
<path d="M1996.88 58.3096V89.8782" stroke="#7A7A7A" stroke-width="2"/>
<path d="M2072 193.732C2072.16 194.261 2072.72 194.562 2073.25 194.403L2081.87 191.826C2082.4 191.668 2082.7 191.111 2082.54 190.582C2082.38 190.053 2081.82 189.752 2081.3 189.91L2073.63 192.201L2071.34 184.536C2071.18 184.007 2070.62 183.706 2070.1 183.864C2069.57 184.022 2069.27 184.579 2069.42 185.108L2072 193.732ZM2083.28 152.461H2082.28C2082.28 167.122 2078.59 180.917 2072.08 192.97L2072.96 193.445L2073.84 193.92C2080.5 181.583 2084.28 167.462 2084.28 152.461H2083.28ZM2063.34 97.252L2062.57 97.8914C2074.88 112.69 2082.28 131.71 2082.28 152.461H2083.28H2084.28C2084.28 131.226 2076.7 111.757 2064.11 96.6125L2063.34 97.252Z" fill="#7A7A7A"/>
<path d="M1935.07 92.0929C1936.38 90.7578 1937.72 89.4648 1939.11 88.2161L1932.64 80.6318C1935.78 77.8178 1939.11 75.2072 1942.6 72.8206L1948.14 81.1115C1951.32 78.9372 1954.65 76.9696 1958.11 75.2281L1953.68 66.2952C1955.67 65.2944 1957.71 64.3607 1959.77 63.4971L1963.59 72.7087C1965.43 71.9421 1967.29 71.237 1969.19 70.5959M2024.57 70.5959C2026.47 71.237 2028.33 71.9421 2030.17 72.7087L2033.99 63.4971C2036.06 64.3607 2038.09 65.2944 2040.08 66.2952L2035.65 75.2281C2039.11 76.9696 2042.44 78.9372 2045.62 81.1115L2051.16 72.8206C2054.65 75.2072 2057.98 77.8178 2061.13 80.6318L2054.65 88.2161C2056.04 89.4648 2057.39 90.7578 2058.69 92.0929" stroke="#7A7A7A" stroke-width="2"/>
<path d="M307.748 194.403C308.277 194.561 308.834 194.261 308.992 193.731L311.569 185.108C311.727 184.579 311.426 184.022 310.897 183.864C310.368 183.706 309.811 184.006 309.653 184.536L307.362 192.201L299.697 189.91C299.168 189.752 298.611 190.053 298.453 190.582C298.295 191.111 298.595 191.668 299.125 191.826L307.748 194.403ZM308.034 193.445L308.914 192.97C302.407 180.917 298.714 167.122 298.714 152.461H297.714H296.714C296.714 167.462 300.494 181.583 307.154 193.92L308.034 193.445ZM297.714 152.461H298.714C298.714 134.648 304.167 118.112 313.494 104.426L312.667 103.863L311.841 103.3C302.295 117.307 296.714 134.234 296.714 152.461H297.714Z" fill="#7A7A7A"/>
<path d="M384.112 58.3096V89.8782" stroke="#7A7A7A" stroke-width="2"/>
<path d="M459.586 193.083C459.748 193.611 460.308 193.907 460.836 193.744L469.436 191.093C469.964 190.93 470.26 190.37 470.097 189.843C469.935 189.315 469.375 189.019 468.847 189.181L461.202 191.538L458.845 183.893C458.683 183.366 458.123 183.07 457.595 183.232C457.067 183.395 456.771 183.955 456.934 184.482L459.586 193.083ZM470.51 152.462H469.51C469.51 166.86 465.948 180.423 459.657 192.321L460.541 192.788L461.425 193.256C467.865 181.077 471.51 167.194 471.51 152.462H470.51ZM440.627 87.1094L439.973 87.8655C458.066 103.526 469.51 126.657 469.51 152.462H470.51H471.51C471.51 126.052 459.795 102.377 441.281 86.3533L440.627 87.1094Z" fill="#7A7A7A"/>
<path d="M318.892 101.039L310.859 93.7382L314.113 90.1577C315.03 89.1478 316.048 88.6271 317.023 88.5696C317.845 88.5413 318.661 88.8426 319.361 89.4788L319.383 89.4997C320.703 90.6991 320.775 92.2106 320.085 93.6158L325.097 94.2107L323.575 95.8862L318.981 95.3153L317.375 97.0826L320.175 99.6274L318.892 101.039ZM316.124 95.9457L318.001 93.88C318.919 92.8701 318.975 91.7477 318.16 91.0072L318.137 90.9864C317.276 90.2041 316.243 90.3962 315.294 91.4405L313.427 93.4948L316.124 95.9457Z" fill="#7A7A7A"/>
<path d="M327.176 92.1613L324.008 80.6592L325.382 79.5466L335.974 85.0371L334.407 86.3058L331.902 84.962L327.913 88.1923L328.695 90.9316L327.176 92.1613ZM327.392 86.4395L330.296 84.0876L326.105 81.894L327.392 86.4395Z" fill="#7A7A7A"/>
<path d="M339.714 82.4573L334.451 72.9632L335.997 72.1061L344.722 75.8513L341.083 69.2868L342.724 68.3771L347.987 77.8713L346.59 78.6456L337.611 74.7932L341.355 81.5476L339.714 82.4573Z" fill="#7A7A7A"/>
<path d="M352.772 75.4127L349.418 65.0888L353.267 63.8381C356.512 62.7838 359.477 64.2825 360.421 67.1879L360.431 67.2174C361.375 70.1228 359.866 73.1077 356.622 74.162L352.772 75.4127ZM353.804 65.4899L351.769 66.1512L354.05 73.1714L356.085 72.5101C358.253 71.8057 359.194 69.8856 358.538 67.8651L358.528 67.8356C357.872 65.815 355.972 64.7855 353.804 65.4899Z" fill="#7A7A7A"/>
<path d="M407.216 72.6171L410.896 62.4048L414.704 63.7769C417.913 64.9335 419.337 67.9356 418.301 70.8096L418.291 70.8388C417.255 73.7129 414.233 75.1459 411.024 73.9892L407.216 72.6171ZM414.115 65.4109L412.102 64.6854L409.599 71.6297L411.613 72.3553C413.757 73.1281 415.678 72.1885 416.398 70.1898L416.409 70.1606C417.129 68.1619 416.26 66.1837 414.115 65.4109Z" fill="#7A7A7A"/>
<path d="M420.097 77.7126L424.855 67.956L426.57 68.7922L421.811 78.5488L420.097 77.7126Z" fill="#7A7A7A"/>
<path d="M429.929 83.4593L432.556 71.9334L434.28 73.1491L432.144 81.8527L439.615 76.9124L441.3 78.1013L431.323 84.4426L429.929 83.4593Z" fill="#7A7A7A"/>
<path d="M2048.39 919.246H2040.08L2027.89 898.2" stroke="#7A7A7A" stroke-width="2"/>
<path d="M2056.56 910.662C2055.4 913.191 2054.76 916.005 2054.76 918.97C2054.76 921.934 2055.4 924.748 2056.56 927.277" stroke="#7A7A7A" stroke-width="2"/>
<path d="M2062.09 913.985C2061.47 915.525 2061.12 917.207 2061.12 918.97C2061.12 920.733 2061.47 922.415 2062.09 923.954" stroke="#7A7A7A" stroke-width="2"/>
<path d="M2077.19 918.693C2077.19 920.834 2074.95 922.569 2072.2 922.569C2069.45 922.569 2067.22 920.834 2067.22 918.693C2067.22 916.551 2069.45 914.816 2072.2 914.816C2074.95 914.816 2077.19 916.551 2077.19 918.693ZM2077.19 918.693V898.478L2083.83 903.462" stroke="#7A7A7A" stroke-width="2"/>
<path d="M2045.62 458.179H2040.08L2027.89 437.133" stroke="#7A7A7A" stroke-width="2"/>
<path d="M2062.79 455.914C2061.82 453.818 2059.7 452.363 2057.25 452.363C2053.88 452.363 2051.16 455.091 2051.16 458.455C2051.16 461.82 2053.88 464.548 2057.25 464.548C2058.87 464.548 2060.34 463.916 2061.43 462.886C2062.52 461.856 2067.21 455.451 2068.32 454.274C2069.43 453.098 2071.01 452.363 2072.75 452.363C2076.12 452.363 2078.85 455.091 2078.85 458.455C2078.85 461.82 2076.12 464.548 2072.75 464.548C2070.39 464.548 2068.34 463.197 2067.33 461.225" stroke="#7A7A7A" stroke-width="2"/>
<path d="M205.777 228.337H197.47L185.285 207.291" stroke="#7A7A7A" stroke-width="2"/>
<circle cx="220.731" cy="228.337" r="10.5229" stroke="#7A7A7A" stroke-width="2"/>
<path d="M220.73 221.137V228.337L224.607 232.213" stroke="#7A7A7A" stroke-width="2"/>
<path d="M60.025 253.668C55.9178 253.668 52.8673 250.498 52.8673 246.49V246.45C52.8673 242.483 55.858 239.233 60.1447 239.233C62.7765 239.233 64.3516 240.11 65.6476 241.386L63.6936 243.639C62.617 242.662 61.5204 242.064 60.1247 242.064C57.772 242.064 56.0773 244.018 56.0773 246.411V246.45C56.0773 248.843 57.7322 250.837 60.1247 250.837C61.7198 250.837 62.6967 250.199 63.7933 249.202L65.7473 251.176C64.3117 252.711 62.7167 253.668 60.025 253.668ZM69.4015 253.429V239.472H72.472V250.637H79.4304V253.429H69.4015ZM88.9229 253.668C84.6163 253.668 81.5259 250.458 81.5259 246.49V246.45C81.5259 242.483 84.6562 239.233 88.9628 239.233C93.2694 239.233 96.3598 242.443 96.3598 246.411V246.45C96.3598 250.418 93.2295 253.668 88.9229 253.668ZM88.9628 250.837C91.4351 250.837 93.1498 248.883 93.1498 246.49V246.45C93.1498 244.058 91.3952 242.064 88.9229 242.064C86.4506 242.064 84.7359 244.018 84.7359 246.411V246.45C84.7359 248.843 86.4905 250.837 88.9628 250.837ZM106.82 253.668C102.712 253.668 99.6618 250.498 99.6618 246.49V246.45C99.6618 242.483 102.652 239.233 106.939 239.233C109.571 239.233 111.146 240.11 112.442 241.386L110.488 243.639C109.411 242.662 108.315 242.064 106.919 242.064C104.567 242.064 102.872 244.018 102.872 246.411V246.45C102.872 248.843 104.527 250.837 106.919 250.837C108.514 250.837 109.491 250.199 110.588 249.202L112.542 251.176C111.106 252.711 109.511 253.668 106.82 253.668ZM116.196 253.429V239.472H119.266V245.573L124.889 239.472H128.657L122.955 245.394L128.897 253.429H125.208L120.881 247.487L119.266 249.162V253.429H116.196Z" fill="#7A7A7A"/>
<path d="M288.845 253.628C286.732 253.628 284.599 252.89 282.924 251.395L284.738 249.222C285.994 250.259 287.31 250.917 288.905 250.917C290.161 250.917 290.919 250.418 290.919 249.601V249.561C290.919 248.783 290.44 248.384 288.108 247.786C285.296 247.068 283.482 246.291 283.482 243.519V243.48C283.482 240.947 285.516 239.273 288.367 239.273C290.401 239.273 292.135 239.911 293.551 241.047L291.956 243.36C290.72 242.503 289.503 241.984 288.327 241.984C287.151 241.984 286.533 242.523 286.533 243.2V243.24C286.533 244.158 287.131 244.457 289.543 245.075C292.374 245.812 293.97 246.829 293.97 249.262V249.302C293.97 252.073 291.856 253.628 288.845 253.628ZM297.83 253.429V239.472H303.533C306.862 239.472 308.876 241.446 308.876 244.297V244.337C308.876 247.567 306.364 249.242 303.234 249.242H300.901V253.429H297.83ZM300.901 246.51H303.333C304.869 246.51 305.766 245.593 305.766 244.397V244.357C305.766 242.981 304.809 242.243 303.274 242.243H300.901V246.51ZM312.345 253.429V239.472H318.725C320.499 239.472 321.875 239.971 322.792 240.888C323.57 241.665 323.989 242.762 323.989 244.078V244.118C323.989 246.371 322.772 247.786 320.998 248.444L324.407 253.429H320.818L317.828 248.963H315.415V253.429H312.345ZM315.415 246.251H318.526C320.021 246.251 320.878 245.453 320.878 244.277V244.237C320.878 242.921 319.961 242.243 318.466 242.243H315.415V246.251ZM327.949 253.429V239.472H338.477V242.204H331V245.035H337.58V247.766H331V250.697H338.576V253.429H327.949ZM341.306 253.429L347.288 239.372H350.119L356.1 253.429H352.89L351.614 250.298H345.713L344.437 253.429H341.306ZM346.809 247.587H350.518L348.664 243.061L346.809 247.587ZM359.451 253.429V239.472H364.894C369.28 239.472 372.311 242.483 372.311 246.411V246.45C372.311 250.378 369.28 253.429 364.894 253.429H359.451ZM364.894 242.243H362.521V250.657H364.894C367.406 250.657 369.101 248.963 369.101 246.49V246.45C369.101 243.978 367.406 242.243 364.894 242.243Z" fill="#7A7A7A"/>
<path d="M520.348 253.628C518.235 253.628 516.102 252.89 514.427 251.395L516.241 249.222C517.497 250.259 518.813 250.917 520.408 250.917C521.664 250.917 522.422 250.418 522.422 249.601V249.561C522.422 248.783 521.943 248.384 519.611 247.786C516.799 247.068 514.985 246.291 514.985 243.519V243.48C514.985 240.947 517.019 239.273 519.87 239.273C521.904 239.273 523.638 239.911 525.054 241.047L523.459 243.36C522.223 242.503 521.006 241.984 519.83 241.984C518.654 241.984 518.036 242.523 518.036 243.2V243.24C518.036 244.158 518.634 244.457 521.046 245.075C523.877 245.812 525.472 246.829 525.472 249.262V249.302C525.472 252.073 523.359 253.628 520.348 253.628ZM529.333 253.429V239.472H532.404V244.995H538.066V239.472H541.137V253.429H538.066V247.826H532.404V253.429H529.333ZM551.5 253.648C547.752 253.648 545.459 251.555 545.459 247.447V239.472H548.529V247.368C548.529 249.64 549.666 250.817 551.54 250.817C553.414 250.817 554.55 249.68 554.55 247.467V239.472H557.621V247.348C557.621 251.574 555.248 253.648 551.5 253.648ZM561.945 253.429V239.472H572.572V242.263H565.015V245.234H571.674V248.025H565.015V253.429H561.945ZM576.225 253.429V239.472H586.852V242.263H579.296V245.234H585.955V248.025H579.296V253.429H576.225ZM590.506 253.429V239.472H593.576V250.637H600.535V253.429H590.506ZM604.047 253.429V239.472H614.574V242.204H607.097V245.035H613.677V247.766H607.097V250.697H614.674V253.429H604.047Z" fill="#7A7A7A"/>
<path d="M795.241 253.668C791.134 253.668 788.083 250.498 788.083 246.49V246.45C788.083 242.483 791.074 239.233 795.36 239.233C797.992 239.233 799.567 240.11 800.863 241.386L798.909 243.639C797.833 242.662 796.736 242.064 795.341 242.064C792.988 242.064 791.293 244.018 791.293 246.411V246.45C791.293 248.843 792.948 250.837 795.341 250.837C796.936 250.837 797.913 250.199 799.009 249.202L800.963 251.176C799.528 252.711 797.932 253.668 795.241 253.668ZM804.617 253.429V239.472H807.688V244.995H813.35V239.472H816.421V253.429H813.35V247.826H807.688V253.429H804.617ZM819.766 253.429L825.747 239.372H828.578L834.56 253.429H831.35L830.074 250.298H824.172L822.896 253.429H819.766ZM825.269 247.587H828.977L827.123 243.061L825.269 247.587ZM837.91 253.429V239.472H844.29C846.065 239.472 847.44 239.971 848.358 240.888C849.135 241.665 849.554 242.762 849.554 244.078V244.118C849.554 246.371 848.338 247.786 846.563 248.444L849.973 253.429H846.384L843.393 248.963H840.98V253.429H837.91ZM840.98 246.251H844.091C845.586 246.251 846.444 245.453 846.444 244.277V244.237C846.444 242.921 845.526 242.243 844.031 242.243H840.98V246.251ZM860.294 253.668C855.987 253.668 852.897 250.458 852.897 246.49V246.45C852.897 242.483 856.027 239.233 860.334 239.233C864.64 239.233 867.731 242.443 867.731 246.411V246.45C867.731 250.418 864.6 253.668 860.294 253.668ZM860.334 250.837C862.806 250.837 864.521 248.883 864.521 246.49V246.45C864.521 244.058 862.766 242.064 860.294 242.064C857.821 242.064 856.107 244.018 856.107 246.411V246.45C856.107 248.843 857.861 250.837 860.334 250.837ZM871.651 253.429V239.472H874.482L881.021 248.065V239.472H884.052V253.429H881.44L874.681 244.556V253.429H871.651Z" fill="#7A7A7A"/>
<path d="M1024.34 253.628C1022.23 253.628 1020.09 252.89 1018.42 251.395L1020.23 249.222C1021.49 250.259 1022.8 250.917 1024.4 250.917C1025.65 250.917 1026.41 250.418 1026.41 249.601V249.561C1026.41 248.783 1025.93 248.384 1023.6 247.786C1020.79 247.068 1018.98 246.291 1018.98 243.519V243.48C1018.98 240.947 1021.01 239.273 1023.86 239.273C1025.89 239.273 1027.63 239.911 1029.04 241.047L1027.45 243.36C1026.21 242.503 1025 241.984 1023.82 241.984C1022.64 241.984 1022.03 242.523 1022.03 243.2V243.24C1022.03 244.158 1022.62 244.457 1025.04 245.075C1027.87 245.812 1029.46 246.829 1029.46 249.262V249.302C1029.46 252.073 1027.35 253.628 1024.34 253.628ZM1036.28 253.429V242.303H1032.03V239.472H1043.6V242.303H1039.35V253.429H1036.28ZM1051.08 253.429V247.926L1045.72 239.472H1049.31L1052.64 245.075L1056.03 239.472H1059.52L1054.15 247.866V253.429H1051.08ZM1070.63 239.472H1074.12L1069.46 246.291L1074.32 253.429H1070.73L1067.6 248.644L1064.45 253.429H1060.96L1065.83 246.331L1061.16 239.472H1064.75L1067.66 243.998L1070.63 239.472Z" fill="#7A7A7A"/>
<path d="M1249.22 253.429V239.472H1252.05L1258.59 248.065V239.472H1261.62V253.429H1259.01L1252.25 244.556V253.429H1249.22ZM1266.3 253.429V239.472H1269.37V253.429H1266.3ZM1282.67 239.472H1286.16L1281.5 246.291L1286.36 253.429H1282.77L1279.64 248.644L1276.49 253.429H1273L1277.87 246.331L1273.2 239.472H1276.79L1279.7 243.998L1282.67 239.472Z" fill="#7A7A7A"/>
<path d="M1479.89 253.429V239.472H1482.96V245.573L1488.58 239.472H1492.35L1486.65 245.394L1492.59 253.429H1488.9L1484.57 247.487L1482.96 249.162V253.429H1479.89ZM1495.65 253.429V239.472H1506.18V242.204H1498.7V245.035H1505.28V247.766H1498.7V250.697H1506.28V253.429H1495.65ZM1510.2 253.429V239.472H1516.58C1518.36 239.472 1519.73 239.971 1520.65 240.888C1521.43 241.665 1521.85 242.762 1521.85 244.078V244.118C1521.85 246.371 1520.63 247.786 1518.85 248.444L1522.26 253.429H1518.68L1515.68 248.963H1513.27V253.429H1510.2ZM1513.27 246.251H1516.38C1517.88 246.251 1518.73 245.453 1518.73 244.277V244.237C1518.73 242.921 1517.82 242.243 1516.32 242.243H1513.27V246.251ZM1525.81 253.429V239.472H1532.29C1533.88 239.472 1535.14 239.911 1535.93 240.708C1536.57 241.346 1536.89 242.124 1536.89 243.081V243.121C1536.89 244.696 1536.05 245.573 1535.06 246.131C1536.67 246.749 1537.67 247.687 1537.67 249.561V249.601C1537.67 252.153 1535.6 253.429 1532.45 253.429H1525.81ZM1533.84 243.639V243.599C1533.84 242.682 1533.12 242.164 1531.83 242.164H1528.8V245.115H1531.63C1532.98 245.115 1533.84 244.676 1533.84 243.639ZM1534.62 249.182C1534.62 248.245 1533.92 247.667 1532.35 247.667H1528.8V250.737H1532.45C1533.8 250.737 1534.62 250.259 1534.62 249.222V249.182ZM1541.39 253.429V239.472H1551.92V242.204H1544.44V245.035H1551.02V247.766H1544.44V250.697H1552.02V253.429H1541.39ZM1555.94 253.429V239.472H1562.32C1564.1 239.472 1565.47 239.971 1566.39 240.888C1567.17 241.665 1567.59 242.762 1567.59 244.078V244.118C1567.59 246.371 1566.37 247.786 1564.6 248.444L1568.01 253.429H1564.42L1561.43 248.963H1559.01V253.429H1555.94ZM1559.01 246.251H1562.13C1563.62 246.251 1564.48 245.453 1564.48 244.277V244.237C1564.48 242.921 1563.56 242.243 1562.07 242.243H1559.01V246.251ZM1578.33 253.668C1574.02 253.668 1570.93 250.458 1570.93 246.49V246.45C1570.93 242.483 1574.06 239.233 1578.37 239.233C1582.67 239.233 1585.76 242.443 1585.76 246.411V246.45C1585.76 250.418 1582.63 253.668 1578.33 253.668ZM1578.37 250.837C1580.84 250.837 1582.55 248.883 1582.55 246.49V246.45C1582.55 244.058 1580.8 242.064 1578.33 242.064C1575.86 242.064 1574.14 244.018 1574.14 246.411V246.45C1574.14 248.843 1575.9 250.837 1578.37 250.837ZM1594.55 253.628C1592.44 253.628 1590.31 252.89 1588.63 251.395L1590.44 249.222C1591.7 250.259 1593.02 250.917 1594.61 250.917C1595.87 250.917 1596.63 250.418 1596.63 249.601V249.561C1596.63 248.783 1596.15 248.384 1593.81 247.786C1591 247.068 1589.19 246.291 1589.19 243.519V243.48C1589.19 240.947 1591.22 239.273 1594.07 239.273C1596.11 239.273 1597.84 239.911 1599.26 241.047L1597.66 243.36C1596.43 242.503 1595.21 241.984 1594.03 241.984C1592.86 241.984 1592.24 242.523 1592.24 243.2V243.24C1592.24 244.158 1592.84 244.457 1595.25 245.075C1598.08 245.812 1599.68 246.829 1599.68 249.262V249.302C1599.68 252.073 1597.56 253.628 1594.55 253.628Z" fill="#7A7A7A"/>
<path d="M1710.84 253.429V239.472H1713.91V244.995H1719.57V239.472H1722.64V253.429H1719.57V247.826H1713.91V253.429H1710.84ZM1731.11 253.429V247.926L1725.75 239.472H1729.33L1732.66 245.075L1736.05 239.472H1739.54L1734.18 247.866V253.429H1731.11ZM1742.65 253.429V239.472H1748.09C1752.48 239.472 1755.51 242.483 1755.51 246.411V246.45C1755.51 250.378 1752.48 253.429 1748.09 253.429H1742.65ZM1748.09 242.243H1745.72V250.657H1748.09C1750.61 250.657 1752.3 248.963 1752.3 246.49V246.45C1752.3 243.978 1750.61 242.243 1748.09 242.243ZM1759.44 253.429V239.472H1765.82C1767.6 239.472 1768.97 239.971 1769.89 240.888C1770.67 241.665 1771.09 242.762 1771.09 244.078V244.118C1771.09 246.371 1769.87 247.786 1768.1 248.444L1771.5 253.429H1767.92L1764.93 248.963H1762.51V253.429H1759.44ZM1762.51 246.251H1765.62C1767.12 246.251 1767.98 245.453 1767.98 244.277V244.237C1767.98 242.921 1767.06 242.243 1765.56 242.243H1762.51V246.251ZM1773.85 253.429L1779.83 239.372H1782.66L1788.64 253.429H1785.43L1784.16 250.298H1778.26L1776.98 253.429H1773.85ZM1779.35 247.587H1783.06L1781.21 243.061L1779.35 247.587Z" fill="#7A7A7A"/>
<path d="M1900.34 253.528L1895.57 239.472H1898.86L1901.75 248.923L1904.88 239.432H1907.52L1910.65 248.923L1913.54 239.472H1916.75L1911.98 253.528H1909.31L1906.16 244.397L1903.01 253.528H1900.34ZM1920.36 253.429V239.472H1923.43V253.429H1920.36ZM1928.11 253.429V239.472H1933.55C1937.94 239.472 1940.97 242.483 1940.97 246.411V246.45C1940.97 250.378 1937.94 253.429 1933.55 253.429H1928.11ZM1933.55 242.243H1931.18V250.657H1933.55C1936.07 250.657 1937.76 248.963 1937.76 246.49V246.45C1937.76 243.978 1936.07 242.243 1933.55 242.243ZM1947.36 253.429V242.303H1943.11V239.472H1954.67V242.303H1950.43V253.429H1947.36ZM1958.23 253.429V239.472H1961.3V244.995H1966.96V239.472H1970.03V253.429H1966.96V247.826H1961.3V253.429H1958.23Z" fill="#7A7A7A"/>
<path d="M1211.53 944.815C1209.42 944.815 1207.29 944.077 1205.61 942.582L1207.43 940.408C1208.68 941.445 1210 942.103 1211.59 942.103C1212.85 942.103 1213.61 941.605 1213.61 940.787V940.747C1213.61 939.97 1213.13 939.571 1210.8 938.973C1207.99 938.255 1206.17 937.477 1206.17 934.706V934.666C1206.17 932.134 1208.21 930.459 1211.06 930.459C1213.09 930.459 1214.82 931.097 1216.24 932.234L1214.65 934.547C1213.41 933.689 1212.19 933.171 1211.02 933.171C1209.84 933.171 1209.22 933.709 1209.22 934.387V934.427C1209.22 935.344 1209.82 935.643 1212.23 936.261C1215.06 936.999 1216.66 938.016 1216.66 940.448V940.488C1216.66 943.259 1214.55 944.815 1211.53 944.815ZM1220.52 944.615V930.659H1231.05V933.39H1223.57V936.221H1230.15V938.953H1223.57V941.884H1231.15V944.615H1220.52ZM1249.49 942.861L1247.53 945.034L1246 943.658C1244.82 944.416 1243.41 944.854 1241.85 944.854C1237.55 944.854 1234.46 941.644 1234.46 937.677V937.637C1234.46 933.669 1237.59 930.419 1241.89 930.419C1246.2 930.419 1249.29 933.629 1249.29 937.597V937.637C1249.29 939.112 1248.83 940.488 1248.05 941.644L1249.49 942.861ZM1241.89 942.023C1242.57 942.023 1243.19 941.904 1243.73 941.644L1241.45 939.71L1243.41 937.517L1245.7 939.591C1245.94 939.033 1246.08 938.375 1246.08 937.677V937.637C1246.08 935.244 1244.32 933.251 1241.85 933.251C1239.38 933.251 1237.67 935.204 1237.67 937.597V937.637C1237.67 940.029 1239.42 942.023 1241.89 942.023ZM1259.03 944.835C1255.28 944.835 1252.99 942.741 1252.99 938.634V930.659H1256.06V938.554C1256.06 940.827 1257.2 942.003 1259.07 942.003C1260.95 942.003 1262.08 940.867 1262.08 938.654V930.659H1265.15V938.534C1265.15 942.761 1262.78 944.835 1259.03 944.835ZM1269.48 944.615V930.659H1280V933.39H1272.53V936.221H1279.11V938.953H1272.53V941.884H1280.1V944.615H1269.48ZM1284.03 944.615V930.659H1286.86L1293.4 939.252V930.659H1296.43V944.615H1293.82L1287.06 935.743V944.615H1284.03ZM1307.52 944.854C1303.41 944.854 1300.36 941.684 1300.36 937.677V937.637C1300.36 933.669 1303.35 930.419 1307.64 930.419C1310.27 930.419 1311.84 931.297 1313.14 932.573L1311.19 934.826C1310.11 933.849 1309.01 933.251 1307.62 933.251C1305.26 933.251 1303.57 935.204 1303.57 937.597V937.637C1303.57 940.029 1305.22 942.023 1307.62 942.023C1309.21 942.023 1310.19 941.385 1311.29 940.388L1313.24 942.362C1311.8 943.897 1310.21 944.854 1307.52 944.854ZM1316.89 944.615V930.659H1327.42V933.39H1319.94V936.221H1326.52V938.953H1319.94V941.884H1327.52V944.615H1316.89ZM1337.92 944.615V942.183L1342.57 938.375C1344.3 936.939 1344.98 936.181 1344.98 935.025C1344.98 933.849 1344.2 933.211 1343.11 933.211C1342.03 933.211 1341.29 933.809 1340.26 935.085L1338.1 933.35C1339.48 931.476 1340.81 930.459 1343.31 930.459C1346.2 930.459 1348.11 932.154 1348.11 934.766V934.806C1348.11 937.138 1346.91 938.295 1344.44 940.209L1342.17 941.963H1348.25V944.615H1337.92Z" fill="#7A7A7A"/>
<path d="M58.4499 484.024C56.3365 484.024 54.2031 483.286 52.5283 481.791L54.3427 479.617C55.5988 480.654 56.9147 481.312 58.5097 481.312C59.7658 481.312 60.5235 480.814 60.5235 479.996V479.956C60.5235 479.179 60.045 478.78 57.7122 478.182C54.9009 477.464 53.0866 476.686 53.0866 473.915V473.875C53.0866 471.343 55.1203 469.668 57.9714 469.668C60.0051 469.668 61.7397 470.306 63.1553 471.443L61.5603 473.755C60.3241 472.898 59.1079 472.38 57.9315 472.38C56.7552 472.38 56.1371 472.918 56.1371 473.596V473.636C56.1371 474.553 56.7352 474.852 59.1478 475.47C61.979 476.208 63.574 477.225 63.574 479.657V479.697C63.574 482.468 61.4606 484.024 58.4499 484.024ZM70.3928 483.824V472.699H66.146V469.868H77.7101V472.699H73.4633V483.824H70.3928ZM81.2678 483.824V469.868H91.7951V472.599H84.3183V475.43H90.8979V478.162H84.3183V481.093H91.8948V483.824H81.2678ZM95.821 483.824V469.868H101.523C104.853 469.868 106.867 471.841 106.867 474.693V474.732C106.867 477.962 104.355 479.637 101.224 479.637H98.8915V483.824H95.821ZM98.8915 476.906H101.324C102.859 476.906 103.756 475.989 103.756 474.792V474.752C103.756 473.377 102.799 472.639 101.264 472.639H98.8915V476.906Z" fill="#7A7A7A"/>
<path d="M288.845 484.024C286.732 484.024 284.599 483.286 282.924 481.791L284.738 479.617C285.994 480.654 287.31 481.312 288.905 481.312C290.161 481.312 290.919 480.814 290.919 479.996V479.956C290.919 479.179 290.44 478.78 288.108 478.182C285.296 477.464 283.482 476.686 283.482 473.915V473.875C283.482 471.343 285.516 469.668 288.367 469.668C290.401 469.668 292.135 470.306 293.551 471.443L291.956 473.755C290.72 472.898 289.503 472.38 288.327 472.38C287.151 472.38 286.533 472.918 286.533 473.596V473.636C286.533 474.553 287.131 474.852 289.543 475.47C292.374 476.208 293.97 477.225 293.97 479.657V479.697C293.97 482.468 291.856 484.024 288.845 484.024ZM300.788 483.824V472.699H296.542V469.868H308.106V472.699H303.859V483.824H300.788ZM311.663 483.824V469.868H322.191V472.599H314.714V475.43H321.293V478.162H314.714V481.093H322.29V483.824H311.663ZM326.217 483.824V469.868H331.919C335.248 469.868 337.262 471.841 337.262 474.693V474.732C337.262 477.962 334.75 479.637 331.62 479.637H329.287V483.824H326.217ZM329.287 476.906H331.719C333.255 476.906 334.152 475.989 334.152 474.792V474.752C334.152 473.377 333.195 472.639 331.66 472.639H329.287V476.906ZM348.044 483.824V469.868H351.115V483.824H348.044ZM355.799 483.824V469.868H358.63L365.17 478.461V469.868H368.2V483.824H365.588L358.829 474.952V483.824H355.799ZM377.193 483.924L371.551 469.868H374.94L378.589 479.697L382.238 469.868H385.547L379.905 483.924H377.193ZM388.897 483.824V469.868H399.424V472.599H391.947V475.43H398.527V478.162H391.947V481.093H399.524V483.824H388.897ZM403.45 483.824V469.868H409.83C411.605 469.868 412.98 470.366 413.898 471.283C414.675 472.061 415.094 473.157 415.094 474.473V474.513C415.094 476.766 413.878 478.182 412.103 478.84L415.513 483.824H411.924L408.933 479.358H406.521V483.824H403.45ZM406.521 476.647H409.631C411.126 476.647 411.984 475.849 411.984 474.673V474.633C411.984 473.317 411.066 472.639 409.571 472.639H406.521V476.647ZM422.305 483.824V472.699H418.058V469.868H429.622V472.699H425.375V483.824H422.305Z" fill="#7A7A7A"/>
<path d="M518.634 483.824V472.699H514.387V469.868H525.951V472.699H521.704V483.824H518.634ZM529.509 483.824V469.868H532.579V475.39H538.242V469.868H541.312V483.824H538.242V478.222H532.579V483.824H529.509ZM545.853 483.824V469.868H552.233C554.008 469.868 555.384 470.366 556.301 471.283C557.078 472.061 557.497 473.157 557.497 474.473V474.513C557.497 476.766 556.281 478.182 554.506 478.84L557.916 483.824H554.327L551.336 479.358H548.924V483.824H545.853ZM548.924 476.647H552.034C553.529 476.647 554.387 475.849 554.387 474.673V474.633C554.387 473.317 553.47 472.639 551.974 472.639H548.924V476.647ZM561.458 483.824V469.868H571.985V472.599H564.508V475.43H571.088V478.162H564.508V481.093H572.085V483.824H561.458ZM580.976 484.024C578.862 484.024 576.729 483.286 575.054 481.791L576.868 479.617C578.125 480.654 579.44 481.312 581.035 481.312C582.292 481.312 583.049 480.814 583.049 479.996V479.956C583.049 479.179 582.571 478.78 580.238 478.182C577.427 477.464 575.612 476.686 575.612 473.915V473.875C575.612 471.343 577.646 469.668 580.497 469.668C582.531 469.668 584.265 470.306 585.681 471.443L584.086 473.755C582.85 472.898 581.634 472.38 580.457 472.38C579.281 472.38 578.663 472.918 578.663 473.596V473.636C578.663 474.553 579.261 474.852 581.673 475.47C584.505 476.208 586.1 477.225 586.1 479.657V479.697C586.1 482.468 583.986 484.024 580.976 484.024ZM589.961 483.824V469.868H593.031V475.39H598.694V469.868H601.764V483.824H598.694V478.222H593.031V483.824H589.961ZM613.084 484.063C608.778 484.063 605.687 480.853 605.687 476.886V476.846C605.687 472.878 608.817 469.628 613.124 469.628C617.431 469.628 620.521 472.838 620.521 476.806V476.846C620.521 480.814 617.391 484.063 613.084 484.063ZM613.124 481.232C615.596 481.232 617.311 479.278 617.311 476.886V476.846C617.311 474.453 615.557 472.46 613.084 472.46C610.612 472.46 608.897 474.413 608.897 476.806V476.846C608.897 479.238 610.652 481.232 613.124 481.232ZM624.441 483.824V469.868H627.512V481.033H634.47V483.824H624.441ZM637.982 483.824V469.868H643.425C647.811 469.868 650.842 472.878 650.842 476.806V476.846C650.842 480.774 647.811 483.824 643.425 483.824H637.982ZM643.425 472.639H641.052V481.053H643.425C645.937 481.053 647.632 479.358 647.632 476.886V476.846C647.632 474.374 645.937 472.639 643.425 472.639Z" fill="#7A7A7A"/>
<path d="M748.752 483.824V472.699H744.505V469.868H756.069V472.699H751.822V483.824H748.752ZM765.802 484.063C761.496 484.063 758.405 480.853 758.405 476.886V476.846C758.405 472.878 761.535 469.628 765.842 469.628C770.149 469.628 773.239 472.838 773.239 476.806V476.846C773.239 480.814 770.109 484.063 765.802 484.063ZM765.842 481.232C768.314 481.232 770.029 479.278 770.029 476.886V476.846C770.029 474.453 768.274 472.46 765.802 472.46C763.33 472.46 761.615 474.413 761.615 476.806V476.846C761.615 479.238 763.37 481.232 765.842 481.232ZM782.981 484.044C779.233 484.044 776.94 481.95 776.94 477.843V469.868H780.01V477.763C780.01 480.036 781.147 481.212 783.021 481.212C784.895 481.212 786.032 480.076 786.032 477.863V469.868H789.102V477.743C789.102 481.97 786.729 484.044 782.981 484.044ZM799.965 484.063C795.858 484.063 792.808 480.893 792.808 476.886V476.846C792.808 472.878 795.798 469.628 800.085 469.628C802.717 469.628 804.292 470.506 805.588 471.782L803.634 474.035C802.557 473.058 801.461 472.46 800.065 472.46C797.712 472.46 796.018 474.413 796.018 476.806V476.846C796.018 479.238 797.673 481.232 800.065 481.232C801.66 481.232 802.637 480.594 803.734 479.597L805.688 481.571C804.252 483.106 802.657 484.063 799.965 484.063ZM809.342 483.824V469.868H812.412V475.39H818.075V469.868H821.145V483.824H818.075V478.222H812.412V483.824H809.342Z" fill="#7A7A7A"/>
<path d="M975.067 483.824V469.868H978.138V481.033H985.096V483.824H975.067ZM988.608 483.824V469.868H999.135V472.599H991.659V475.43H998.238V478.162H991.659V481.093H999.235V483.824H988.608ZM1007.61 483.924L1001.97 469.868H1005.35L1009 479.697L1012.65 469.868H1015.96L1010.32 483.924H1007.61ZM1019.31 483.824V469.868H1029.84V472.599H1022.36V475.43H1028.94V478.162H1022.36V481.093H1029.94V483.824H1019.31ZM1033.86 483.824V469.868H1036.93V481.033H1043.89V483.824H1033.86Z" fill="#7A7A7A"/>
<path d="M1211.53 484.024C1209.42 484.024 1207.29 483.286 1205.61 481.791L1207.43 479.617C1208.68 480.654 1210 481.312 1211.59 481.312C1212.85 481.312 1213.61 480.814 1213.61 479.996V479.956C1213.61 479.179 1213.13 478.78 1210.8 478.182C1207.99 477.464 1206.17 476.686 1206.17 473.915V473.875C1206.17 471.343 1208.21 469.668 1211.06 469.668C1213.09 469.668 1214.82 470.306 1216.24 471.443L1214.65 473.755C1213.41 472.898 1212.19 472.38 1211.02 472.38C1209.84 472.38 1209.22 472.918 1209.22 473.596V473.636C1209.22 474.553 1209.82 474.852 1212.23 475.47C1215.06 476.208 1216.66 477.225 1216.66 479.657V479.697C1216.66 482.468 1214.55 484.024 1211.53 484.024ZM1223.48 483.824V472.699H1219.23V469.868H1230.8V472.699H1226.55V483.824H1223.48ZM1234.35 483.824V469.868H1244.88V472.599H1237.4V475.43H1243.98V478.162H1237.4V481.093H1244.98V483.824H1234.35ZM1248.91 483.824V469.868H1254.61C1257.94 469.868 1259.95 471.841 1259.95 474.693V474.732C1259.95 477.962 1257.44 479.637 1254.31 479.637H1251.98V483.824H1248.91ZM1251.98 476.906H1254.41C1255.94 476.906 1256.84 475.989 1256.84 474.792V474.752C1256.84 473.377 1255.88 472.639 1254.35 472.639H1251.98V476.906Z" fill="#7A7A7A"/>
<path d="M1435.86 483.824V469.868H1441.3C1445.69 469.868 1448.72 472.878 1448.72 476.806V476.846C1448.72 480.774 1445.69 483.824 1441.3 483.824H1435.86ZM1441.3 472.639H1438.93V481.053H1441.3C1443.81 481.053 1445.51 479.358 1445.51 476.886V476.846C1445.51 474.374 1443.81 472.639 1441.3 472.639ZM1452.79 483.824V469.868H1455.86V483.824H1452.79ZM1460.54 483.824V469.868H1466.93C1468.7 469.868 1470.08 470.366 1470.99 471.283C1471.77 472.061 1472.19 473.157 1472.19 474.473V474.513C1472.19 476.766 1470.97 478.182 1469.2 478.84L1472.61 483.824H1469.02L1466.03 479.358H1463.62V483.824H1460.54ZM1463.62 476.647H1466.73C1468.22 476.647 1469.08 475.849 1469.08 474.673V474.633C1469.08 473.317 1468.16 472.639 1466.67 472.639H1463.62V476.647ZM1476.15 483.824V469.868H1486.68V472.599H1479.2V475.43H1485.78V478.162H1479.2V481.093H1486.78V483.824H1476.15ZM1497.24 484.063C1493.14 484.063 1490.08 480.893 1490.08 476.886V476.846C1490.08 472.878 1493.08 469.628 1497.36 469.628C1499.99 469.628 1501.57 470.506 1502.87 471.782L1500.91 474.035C1499.83 473.058 1498.74 472.46 1497.34 472.46C1494.99 472.46 1493.29 474.413 1493.29 476.806V476.846C1493.29 479.238 1494.95 481.232 1497.34 481.232C1498.94 481.232 1499.91 480.594 1501.01 479.597L1502.96 481.571C1501.53 483.106 1499.93 484.063 1497.24 484.063ZM1509.87 483.824V472.699H1505.62V469.868H1517.19V472.699H1512.94V483.824H1509.87ZM1520.88 483.824V469.868H1523.95V483.824H1520.88ZM1535.42 484.063C1531.11 484.063 1528.02 480.853 1528.02 476.886V476.846C1528.02 472.878 1531.15 469.628 1535.46 469.628C1539.76 469.628 1542.85 472.838 1542.85 476.806V476.846C1542.85 480.814 1539.72 484.063 1535.42 484.063ZM1535.46 481.232C1537.93 481.232 1539.64 479.278 1539.64 476.886V476.846C1539.64 474.453 1537.89 472.46 1535.42 472.46C1532.94 472.46 1531.23 474.413 1531.23 476.806V476.846C1531.23 479.238 1532.98 481.232 1535.46 481.232ZM1546.77 483.824V469.868H1549.61L1556.14 478.461V469.868H1559.18V483.824H1556.56L1549.8 474.952V483.824H1546.77Z" fill="#7A7A7A"/>
<path d="M1665.15 483.824V469.868H1668.22V481.033H1675.17V483.824H1665.15ZM1678.69 483.824V469.868H1689.21V472.599H1681.74V475.43H1688.32V478.162H1681.74V481.093H1689.31V483.824H1678.69ZM1697.69 483.924L1692.04 469.868H1695.43L1699.08 479.697L1702.73 469.868H1706.04L1700.4 483.924H1697.69ZM1709.39 483.824V469.868H1719.92V472.599H1712.44V475.43H1719.02V478.162H1712.44V481.093H1720.02V483.824H1709.39ZM1723.94 483.824V469.868H1727.01V481.033H1733.97V483.824H1723.94Z" fill="#7A7A7A"/>
<path d="M1896.79 483.824V469.868H1899.86V483.824H1896.79ZM1904.54 483.824V469.868H1907.37L1913.91 478.461V469.868H1916.95V483.824H1914.33L1907.57 474.952V483.824H1904.54ZM1924.74 483.824V472.699H1920.49V469.868H1932.06V472.699H1927.81V483.824H1924.74ZM1935.62 483.824V469.868H1946.14V472.599H1938.67V475.43H1945.25V478.162H1938.67V481.093H1946.24V483.824H1935.62ZM1950.17 483.824V469.868H1953L1959.54 478.461V469.868H1962.57V483.824H1959.96L1953.2 474.952V483.824H1950.17ZM1972.08 484.024C1969.97 484.024 1967.84 483.286 1966.16 481.791L1967.98 479.617C1969.23 480.654 1970.55 481.312 1972.14 481.312C1973.4 481.312 1974.16 480.814 1974.16 479.996V479.956C1974.16 479.179 1973.68 478.78 1971.34 478.182C1968.53 477.464 1966.72 476.686 1966.72 473.915V473.875C1966.72 471.343 1968.75 469.668 1971.6 469.668C1973.64 469.668 1975.37 470.306 1976.79 471.443L1975.19 473.755C1973.96 472.898 1972.74 472.38 1971.56 472.38C1970.39 472.38 1969.77 472.918 1969.77 473.596V473.636C1969.77 474.553 1970.37 474.852 1972.78 475.47C1975.61 476.208 1977.21 477.225 1977.21 479.657V479.697C1977.21 482.468 1975.09 484.024 1972.08 484.024ZM1981.21 483.824V469.868H1984.28V483.824H1981.21ZM1992.21 483.824V472.699H1987.96V469.868H1999.53V472.699H1995.28V483.824H1992.21ZM2007.01 483.824V478.321L2001.65 469.868H2005.24L2008.57 475.47L2011.96 469.868H2015.45L2010.09 478.261V483.824H2007.01Z" fill="#7A7A7A"/>
<path d="M1899.9 713.943V702.818H1895.65V699.987H1907.22V702.818H1902.97V713.943H1899.9ZM1910.91 713.943V699.987H1913.98V713.943H1910.91ZM1918.67 713.943V699.987H1921.98L1925.65 705.888L1929.32 699.987H1932.63V713.943H1929.57V704.832L1925.65 710.793H1925.57L1921.68 704.891V713.943H1918.67ZM1937.17 713.943V699.987H1947.7V702.718H1940.22V705.549H1946.8V708.281H1940.22V711.212H1947.8V713.943H1937.17Z" fill="#7A7A7A"/>
<path d="M1901.61 944.815C1899.5 944.815 1897.37 944.077 1895.69 942.582L1897.51 940.408C1898.76 941.445 1900.08 942.103 1901.67 942.103C1902.93 942.103 1903.69 941.605 1903.69 940.787V940.747C1903.69 939.97 1903.21 939.571 1900.88 938.973C1898.07 938.255 1896.25 937.477 1896.25 934.706V934.666C1896.25 932.134 1898.28 930.459 1901.14 930.459C1903.17 930.459 1904.9 931.097 1906.32 932.234L1904.72 934.547C1903.49 933.689 1902.27 933.171 1901.1 933.171C1899.92 933.171 1899.3 933.709 1899.3 934.387V934.427C1899.3 935.344 1899.9 935.643 1902.31 936.261C1905.14 936.999 1906.74 938.016 1906.74 940.448V940.488C1906.74 943.259 1904.62 944.815 1901.61 944.815ZM1917.14 944.854C1913.03 944.854 1909.98 941.684 1909.98 937.677V937.637C1909.98 933.669 1912.97 930.419 1917.26 930.419C1919.89 930.419 1921.47 931.297 1922.76 932.573L1920.81 934.826C1919.73 933.849 1918.63 933.251 1917.24 933.251C1914.89 933.251 1913.19 935.204 1913.19 937.597V937.637C1913.19 940.029 1914.85 942.023 1917.24 942.023C1918.83 942.023 1919.81 941.385 1920.91 940.388L1922.86 942.362C1921.43 943.897 1919.83 944.854 1917.14 944.854ZM1925.32 944.615L1931.3 930.559H1934.13L1940.11 944.615H1936.9L1935.63 941.485H1929.73L1928.45 944.615H1925.32ZM1930.82 938.773H1934.53L1932.68 934.247L1930.82 938.773ZM1943.46 944.615V930.659H1946.53V941.824H1953.49V944.615H1943.46ZM1957 944.615V930.659H1967.53V933.39H1960.05V936.221H1966.63V938.953H1960.05V941.884H1967.63V944.615H1957Z" fill="#7A7A7A"/>
<path d="M1669.59 944.715L1663.95 930.659H1667.34L1670.99 940.488L1674.64 930.659H1677.95L1672.3 944.715H1669.59ZM1687.18 944.854C1682.87 944.854 1679.78 941.644 1679.78 937.677V937.637C1679.78 933.669 1682.91 930.419 1687.22 930.419C1691.53 930.419 1694.62 933.629 1694.62 937.597V937.637C1694.62 941.605 1691.49 944.854 1687.18 944.854ZM1687.22 942.023C1689.69 942.023 1691.41 940.069 1691.41 937.677V937.637C1691.41 935.244 1689.65 933.251 1687.18 933.251C1684.71 933.251 1682.99 935.204 1682.99 937.597V937.637C1682.99 940.029 1684.75 942.023 1687.22 942.023ZM1698.68 944.615V930.659H1701.75V944.615H1698.68ZM1712.97 944.854C1708.86 944.854 1705.81 941.684 1705.81 937.677V937.637C1705.81 933.669 1708.8 930.419 1713.09 930.419C1715.72 930.419 1717.3 931.297 1718.59 932.573L1716.64 934.826C1715.56 933.849 1714.46 933.251 1713.07 933.251C1710.72 933.251 1709.02 935.204 1709.02 937.597V937.637C1709.02 940.029 1710.68 942.023 1713.07 942.023C1714.66 942.023 1715.64 941.385 1716.74 940.388L1718.69 942.362C1717.26 943.897 1715.66 944.854 1712.97 944.854ZM1722.35 944.615V930.659H1732.87V933.39H1725.4V936.221H1731.98V938.953H1725.4V941.884H1732.97V944.615H1722.35ZM1743.38 944.615V942.183L1748.02 938.375C1749.76 936.939 1750.43 936.181 1750.43 935.025C1750.43 933.849 1749.66 933.211 1748.56 933.211C1747.48 933.211 1746.74 933.809 1745.71 935.085L1743.55 933.35C1744.93 931.476 1746.27 930.459 1748.76 930.459C1751.65 930.459 1753.56 932.154 1753.56 934.766V934.806C1753.56 937.138 1752.37 938.295 1749.89 940.209L1747.62 941.963H1753.7V944.615H1743.38Z" fill="#7A7A7A"/>
<path d="M58.4499 944.815C56.3365 944.815 54.2031 944.077 52.5283 942.582L54.3427 940.408C55.5988 941.445 56.9147 942.103 58.5097 942.103C59.7658 942.103 60.5235 941.605 60.5235 940.787V940.747C60.5235 939.97 60.045 939.571 57.7122 938.973C54.9009 938.255 53.0866 937.477 53.0866 934.706V934.666C53.0866 932.134 55.1203 930.459 57.9714 930.459C60.0051 930.459 61.7397 931.097 63.1553 932.234L61.5603 934.547C60.3241 933.689 59.1079 933.171 57.9315 933.171C56.7552 933.171 56.1371 933.709 56.1371 934.387V934.427C56.1371 935.344 56.7352 935.643 59.1478 936.261C61.979 936.999 63.574 938.016 63.574 940.448V940.488C63.574 943.259 61.4606 944.815 58.4499 944.815ZM67.435 944.615V930.659H77.9623V933.39H70.4855V936.221H77.0651V938.953H70.4855V941.884H78.062V944.615H67.435ZM96.4034 942.861L94.4495 945.034L92.9143 943.658C91.7379 944.416 90.3223 944.854 88.7672 944.854C84.4605 944.854 81.3701 941.644 81.3701 937.677V937.637C81.3701 933.669 84.5004 930.419 88.807 930.419C93.1137 930.419 96.2041 933.629 96.2041 937.597V937.637C96.2041 939.112 95.7455 940.488 94.9679 941.644L96.4034 942.861ZM88.807 942.023C89.4849 942.023 90.103 941.904 90.6413 941.644L88.3684 939.71L90.3223 937.517L92.6152 939.591C92.8545 939.033 92.994 938.375 92.994 937.677V937.637C92.994 935.244 91.2395 933.251 88.7672 933.251C86.2948 933.251 84.5802 935.204 84.5802 937.597V937.637C84.5802 940.029 86.3347 942.023 88.807 942.023ZM105.946 944.835C102.198 944.835 99.9048 942.741 99.9048 938.634V930.659H102.975V938.554C102.975 940.827 104.112 942.003 105.986 942.003C107.86 942.003 108.997 940.867 108.997 938.654V930.659H112.067V938.534C112.067 942.761 109.694 944.835 105.946 944.835ZM116.391 944.615V930.659H126.918V933.39H119.441V936.221H126.021V938.953H119.441V941.884H127.018V944.615H116.391ZM130.944 944.615V930.659H133.775L140.315 939.252V930.659H143.345V944.615H140.734L133.975 935.743V944.615H130.944ZM154.432 944.854C150.325 944.854 147.274 941.684 147.274 937.677V937.637C147.274 933.669 150.265 930.419 154.551 930.419C157.183 930.419 158.758 931.297 160.054 932.573L158.1 934.826C157.024 933.849 155.927 933.251 154.531 933.251C152.179 933.251 150.484 935.204 150.484 937.597V937.637C150.484 940.029 152.139 942.023 154.531 942.023C156.127 942.023 157.103 941.385 158.2 940.388L160.154 942.362C158.718 943.897 157.123 944.854 154.432 944.854ZM163.808 944.615V930.659H174.336V933.39H166.859V936.221H173.438V938.953H166.859V941.884H174.435V944.615H163.808ZM187.41 944.615V933.669L184.977 934.267L184.339 931.755L188.347 930.559H190.44V944.615H187.41Z" fill="#7A7A7A"/>
<path d="M979.514 944.715L973.871 930.659H977.261L980.909 940.488L984.558 930.659H987.868L982.225 944.715H979.514ZM997.1 944.854C992.794 944.854 989.703 941.644 989.703 937.677V937.637C989.703 933.669 992.834 930.419 997.14 930.419C1001.45 930.419 1004.54 933.629 1004.54 937.597V937.637C1004.54 941.605 1001.41 944.854 997.1 944.854ZM997.14 942.023C999.613 942.023 1001.33 940.069 1001.33 937.677V937.637C1001.33 935.244 999.573 933.251 997.1 933.251C994.628 933.251 992.914 935.204 992.914 937.597V937.637C992.914 940.029 994.668 942.023 997.14 942.023ZM1008.6 944.615V930.659H1011.67V944.615H1008.6ZM1022.89 944.854C1018.78 944.854 1015.73 941.684 1015.73 937.677V937.637C1015.73 933.669 1018.72 930.419 1023.01 930.419C1025.64 930.419 1027.22 931.297 1028.51 932.573L1026.56 934.826C1025.48 933.849 1024.39 933.251 1022.99 933.251C1020.64 933.251 1018.94 935.204 1018.94 937.597V937.637C1018.94 940.029 1020.6 942.023 1022.99 942.023C1024.59 942.023 1025.56 941.385 1026.66 940.388L1028.61 942.362C1027.18 943.897 1025.58 944.854 1022.89 944.854ZM1032.27 944.615V930.659H1042.8V933.39H1035.32V936.221H1041.9V938.953H1035.32V941.884H1042.89V944.615H1032.27ZM1055.87 944.615V933.669L1053.44 934.267L1052.8 931.755L1056.81 930.559H1058.9V944.615H1055.87Z" fill="#7A7A7A"/>
<circle cx="962.315" cy="728.449" r="27.79" stroke="#E5E5E3"/>
<circle cx="1653.5" cy="728.449" r="27.79" stroke="#E5E5E3"/>
<circle cx="297.714" cy="697.435" r="16.115" stroke="#7A7A7A"/>
<circle cx="67.3181" cy="697.435" r="16.115" stroke="#7A7A7A"/>
<circle cx="758.505" cy="697.435" r="16.115" stroke="#7A7A7A"/>
<circle cx="1396.52" cy="697.435" r="16.115" stroke="#7A7A7A"/>
<circle cx="1449.69" cy="753.927" r="16.115" stroke="#7A7A7A"/>
<circle cx="1910.48" cy="811.525" r="16.115" stroke="#7A7A7A"/>
<circle cx="1910.48" cy="523.531" r="16.115" stroke="#7A7A7A"/>
<circle cx="1449.69" cy="236.644" r="16.115" stroke="#7A7A7A"/>
<circle cx="988.9" cy="236.644" r="16.115" stroke="#7A7A7A"/>
<circle cx="758.505" cy="236.644" r="16.115" stroke="#7A7A7A"/>
<circle cx="1219.3" cy="236.644" r="16.115" stroke="#7A7A7A"/>
<circle cx="1680.09" cy="236.644" r="16.115" stroke="#7A7A7A"/>
<circle cx="1910.48" cy="868.016" r="16.115" stroke="#7A7A7A"/>
<circle cx="1449.69" cy="697.435" r="16.115" stroke="#7A7A7A"/>
<circle cx="528.109" cy="697.435" r="16.115" stroke="#7A7A7A"/>
<circle cx="1910.48" cy="753.927" r="16.115" stroke="#7A7A7A"/>
<circle cx="1396.52" cy="753.927" r="16.115" stroke="#7A7A7A"/>
<circle cx="614.507" cy="843.648" r="64.855" stroke="#7A7A7A"/>
<circle cx="384.113" cy="843.648" r="64.855" stroke="#7A7A7A"/>
<circle cx="153.716" cy="843.648" r="64.855" stroke="#7A7A7A"/>
<circle cx="844.903" cy="843.648" r="64.855" stroke="#7A7A7A"/>
<circle cx="614.507" cy="382.857" r="64.855" stroke="#7A7A7A"/>
<circle cx="1305.69" cy="152.461" r="64.855" stroke="#7A7A7A"/>
<circle cx="1766.48" cy="152.461" r="64.855" stroke="#7A7A7A"/>
<circle cx="384.113" cy="382.857" r="64.855" stroke="#7A7A7A"/>
<circle cx="844.903" cy="152.461" r="64.855" stroke="#7A7A7A"/>
<circle cx="1075.3" cy="152.461" r="64.855" stroke="#7A7A7A"/>
<circle cx="1536.09" cy="152.461" r="64.855" stroke="#7A7A7A"/>
<circle cx="844.903" cy="382.857" r="64.855" stroke="#7A7A7A"/>
<circle cx="1075.3" cy="613.252" r="64.855" stroke="#7A7A7A"/>
<circle cx="1305.69" cy="382.857" r="64.855" stroke="#7A7A7A"/>
<circle cx="1766.48" cy="382.857" r="64.855" stroke="#7A7A7A"/>
<circle cx="614.507" cy="152.461" r="64.855" stroke="#7A7A7A"/>
<circle cx="1536.09" cy="382.857" r="64.855" stroke="#7A7A7A"/>
<circle cx="1075.3" cy="382.857" r="64.855" stroke="#7A7A7A"/>
<circle cx="1766.48" cy="613.252" r="64.855" stroke="#7A7A7A"/>
<circle cx="153.716" cy="382.857" r="64.855" stroke="#7A7A7A"/>
<circle cx="384.113" cy="613.252" r="64.855" stroke="#7A7A7A"/>
<circle cx="844.904" cy="613.252" r="64.855" stroke="#7A7A7A"/>
<circle cx="1766.48" cy="843.65" r="64.855" stroke="#7A7A7A"/>
<circle cx="1536.09" cy="843.65" r="64.855" stroke="#7A7A7A"/>
<circle cx="153.716" cy="152.461" r="64.855" stroke="#7A7A7A"/>
<circle cx="1996.88" cy="382.857" r="64.855" stroke="#7A7A7A"/>
<circle cx="1536.09" cy="613.252" r="64.855" stroke="#7A7A7A"/>
<circle cx="1305.69" cy="613.252" r="64.855" stroke="#7A7A7A"/>
<circle cx="1996.88" cy="152.461" r="64.855" stroke="#7A7A7A"/>
<circle cx="1075.3" cy="843.65" r="64.855" stroke="#7A7A7A"/>
<circle cx="1305.69" cy="843.65" r="64.855" stroke="#7A7A7A"/>
<circle cx="1996.88" cy="613.252" r="64.855" stroke="#7A7A7A"/>
<circle cx="384.113" cy="152.461" r="64.855" stroke="#7A7A7A"/>
<circle cx="1996.88" cy="843.65" r="64.855" stroke="#7A7A7A"/>
<circle cx="614.507" cy="613.252" r="64.855" stroke="#7A7A7A"/>
<circle cx="153.716" cy="613.252" r="64.855" stroke="#7A7A7A"/>
</svg>
