<svg width="1938" height="897" viewBox="0 0 1938 897" fill="none" xmlns="http://www.w3.org/2000/svg">
<rect x="1" y="1" width="1936" height="895" rx="26" fill="white" stroke="#969696" stroke-width="2"/>
<path d="M1905 241V45C1905 38.3726 1899.63 33 1893 33H45C38.3726 33 33 38.3726 33 45V241M1905 241H1700M1905 241V657M33 241V852C33 858.627 38.3726 864 45 864H1076.5M33 241H1076.5M1076.5 241V864M1076.5 241H1700M1076.5 864H1700M1700 45V229M1700 241V657M1700 864H1893C1899.63 864 1905 858.627 1905 852V657M1700 864V657M1700 657H1905" stroke="#E4E4E4" stroke-width="5"/>
<path d="M244.5 45V229M244.5 253V449M244.5 449V657M244.5 449H47M244.5 449H452M244.5 657V851.5M244.5 657H47M244.5 657H452M452 45V229M452 253V449M452 449V657M452 449H660M452 657V851M452 657H660M660 45V229M660 253V449M660 449V657M660 449H868M660 657V851M660 657H842.5M868 45V229M868 253V449M868 449H1065M868 449V631.5M868 851V682.5M1076 45V229M1284 45V229M1284 253V449M1284 449V657M1284 449H1087M1284 449H1492M1284 657V851M1284 657H1087M1284 657H1466.5M1492 45V229M1492 253V449M1492 449H1688M1492 449V631.5M1492 851V682.5M1065 657H944M1688 657H1570.5M1711 449H1893M893.5 657C893.5 671.083 882.083 682.5 868 682.5M893.5 657C893.5 642.917 882.083 631.5 868 631.5M893.5 657H902.5M868 682.5C853.917 682.5 842.5 671.083 842.5 657M842.5 657C842.5 642.917 853.917 631.5 868 631.5M1517.5 657C1517.5 671.083 1506.08 682.5 1492 682.5M1517.5 657C1517.5 642.917 1506.08 631.5 1492 631.5M1517.5 657H1526.5M1492 682.5C1477.92 682.5 1466.5 671.083 1466.5 657M1466.5 657C1466.5 642.917 1477.92 631.5 1492 631.5M970 702.5V610.5M1594 610.5V704" stroke="#E5E5E5" stroke-width="3"/>
<path d="M932.5 677V686.5H913.5M913.5 686.5L919.5 680.5M913.5 686.5L919.5 692.5" stroke="#5A5A5A" stroke-width="2"/>
<path d="M910 627.5L919 635L928.5 627.5L938 636" stroke="#5A5A5A" stroke-width="2"/>
<path d="M911.5 653V661M916.5 648V665M921.5 652V661M926.25 650V663M931 654V659M936 653V660" stroke="#5A5A5A" stroke-width="2"/>
<path d="M1534.25 627.5L1543.25 635L1552.75 627.5L1562.25 636" stroke="#5A5A5A" stroke-width="2"/>
<path d="M1535.75 653V661M1540.75 648V665M1545.75 652V661M1550.5 650V663M1555.25 654V659M1560.25 653V660" stroke="#5A5A5A" stroke-width="2"/>
<path d="M1559 679.5C1559 677.015 1554.3 675 1548.5 675C1542.7 675 1538 677.015 1538 679.5M1559 679.5V687.75C1559 689.628 1556.31 691.238 1552.5 691.912M1559 679.5C1559 681.378 1556.31 682.988 1552.5 683.662M1538 679.5V687.75C1538 689.628 1540.69 691.238 1544.5 691.912M1538 679.5C1538 681.378 1540.69 682.988 1544.5 683.662M1552.5 683.662C1551.27 683.88 1549.92 684 1548.5 684C1547.08 684 1545.73 683.88 1544.5 683.662M1552.5 683.662V691.912M1552.5 691.912C1551.27 692.13 1549.92 692.25 1548.5 692.25C1547.08 692.25 1545.73 692.13 1544.5 691.912M1544.5 683.662V691.912" stroke="#5A5A5A" stroke-width="2"/>
<path d="M1733.03 174.958C1733.56 175.116 1734.12 174.815 1734.28 174.286L1736.85 165.663C1737.01 165.134 1736.71 164.577 1736.18 164.419C1735.65 164.261 1735.09 164.561 1734.94 165.09L1732.65 172.756L1724.98 170.465C1724.45 170.307 1723.89 170.608 1723.74 171.137C1723.58 171.666 1723.88 172.223 1724.41 172.381L1733.03 174.958ZM1733.32 174L1734.2 173.525C1728.33 162.658 1725 150.219 1725 137H1724H1723C1723 150.559 1726.42 163.323 1732.44 174.475L1733.32 174ZM1724 137H1725C1725 118.289 1731.67 101.139 1742.77 87.7965L1742 87.1571L1741.23 86.5177C1729.85 100.206 1723 117.805 1723 137H1724Z" fill="#5A5A5A"/>
<path d="M1802 52V80.5" stroke="#5A5A5A" stroke-width="2"/>
<path d="M1869.72 174.286C1869.88 174.815 1870.44 175.116 1870.97 174.958L1879.59 172.381C1880.12 172.223 1880.42 171.666 1880.26 171.137C1880.11 170.608 1879.55 170.307 1879.02 170.465L1871.35 172.756L1869.06 165.09C1868.91 164.561 1868.35 164.261 1867.82 164.419C1867.29 164.577 1866.99 165.134 1867.15 165.663L1869.72 174.286ZM1880 137H1879C1879 150.219 1875.67 162.658 1869.8 173.525L1870.68 174L1871.56 174.475C1877.58 163.323 1881 150.559 1881 137H1880ZM1862 87.1571L1861.23 87.7965C1872.33 101.139 1879 118.289 1879 137H1880H1881C1881 117.805 1874.15 100.206 1862.77 86.5177L1862 87.1571Z" fill="#5A5A5A"/>
<path d="M1746.2 82.5C1747.38 81.2947 1748.59 80.1274 1749.85 79L1744 72.153C1746.84 69.6125 1749.84 67.2557 1753 65.1011L1758 72.5861C1760.87 70.6232 1763.87 68.8468 1767 67.2745L1763 59.21C1764.8 58.3065 1766.63 57.4636 1768.5 56.6838L1771.95 65.0001C1773.6 64.308 1775.29 63.6714 1777 63.0926M1827 63.0926C1828.71 63.6714 1830.4 64.308 1832.05 65.0001L1835.5 56.6838C1837.37 57.4636 1839.2 58.3065 1841 59.21L1837 67.2745C1840.13 68.8468 1843.13 70.6232 1846 72.5861L1851 65.1011C1854.16 67.2557 1857.16 69.6125 1860 72.153L1854.15 79C1855.41 80.1274 1856.62 81.2947 1857.8 82.5" stroke="#5A5A5A" stroke-width="2"/>
<path d="M277.031 174.958C277.56 175.116 278.117 174.815 278.275 174.286L280.852 165.663C281.01 165.134 280.709 164.576 280.18 164.418C279.651 164.26 279.094 164.561 278.936 165.09L276.645 172.755L268.98 170.465C268.451 170.307 267.894 170.607 267.736 171.136C267.578 171.666 267.878 172.223 268.407 172.381L277.031 174.958ZM277.317 174L278.197 173.525C272.33 162.657 269 150.219 269 137H268H267C267 150.559 270.417 163.323 276.437 174.475L277.317 174ZM268 137H269C269 120.938 273.916 106.028 282.326 93.6888L281.5 93.1256L280.674 92.5624C272.045 105.224 267 120.524 267 137H268Z" fill="#5A5A5A"/>
<path d="M346 51.9998V80.4998" stroke="#5A5A5A" stroke-width="2"/>
<path d="M414.044 173.701C414.207 174.229 414.767 174.525 415.295 174.362L423.895 171.711C424.423 171.548 424.719 170.988 424.556 170.46C424.393 169.933 423.834 169.637 423.306 169.799L415.661 172.156L413.304 164.511C413.142 163.983 412.582 163.687 412.054 163.85C411.526 164.013 411.23 164.573 411.393 165.1L414.044 173.701ZM424 137H423C423 149.982 419.788 162.211 414.116 172.939L415 173.406L415.884 173.874C421.705 162.865 425 150.316 425 137H424ZM397.021 77.9998L396.367 78.7559C412.681 92.8764 423 113.732 423 137H424H425C425 113.128 414.41 91.7279 397.676 77.2436L397.021 77.9998Z" fill="#5A5A5A"/>
<path d="M287.458 90.8837L280.206 84.2926L283.143 81.0601C283.972 80.1483 284.891 79.6783 285.771 79.6264C286.513 79.6008 287.249 79.8729 287.881 80.4472L287.902 80.4661C289.093 81.5489 289.159 82.9135 288.535 84.1821L293.06 84.7191L291.686 86.2318L287.538 85.7163L286.088 87.3119L288.616 89.6093L287.458 90.8837ZM284.959 86.2855L286.654 84.4206C287.482 83.5089 287.533 82.4956 286.797 81.827L286.777 81.8082C286 81.102 285.066 81.2754 284.21 82.2183L282.524 84.0728L284.959 86.2855Z" fill="#5A5A5A"/>
<path d="M294.887 82.9175L292.027 72.5334L293.267 71.529L302.829 76.4858L301.415 77.6312L299.153 76.418L295.552 79.3343L296.258 81.8074L294.887 82.9175ZM295.081 77.7519L297.704 75.6286L293.92 73.6482L295.081 77.7519Z" fill="#5A5A5A"/>
<path d="M306.139 74.2014L301.388 65.6302L302.784 64.8564L310.661 68.2376L307.376 62.3112L308.857 61.4899L313.609 70.0612L312.347 70.7603L304.241 67.2823L307.621 73.3802L306.139 74.2014Z" fill="#5A5A5A"/>
<path d="M317.848 67.8765L314.82 58.5561L318.295 57.427C321.225 56.4752 323.902 57.8282 324.754 60.4512L324.763 60.4778C325.615 63.1008 324.253 65.7956 321.324 66.7473L317.848 67.8765ZM318.78 58.9182L316.942 59.5153L319.002 65.8531L320.839 65.2561C322.796 64.6201 323.646 62.8866 323.054 61.0625L323.045 61.0359C322.452 59.2118 320.737 58.2823 318.78 58.9182Z" fill="#5A5A5A"/>
<path d="M366.702 65.3481L370.025 56.1284L373.463 57.3672C376.36 58.4114 377.645 61.1217 376.71 63.7163L376.701 63.7427C375.766 66.3373 373.038 67.631 370.14 66.5869L366.702 65.3481ZM372.931 58.8424L371.113 58.1874L368.854 64.4567L370.672 65.1117C372.608 65.8094 374.342 64.9611 374.992 63.1567L375.002 63.1304C375.652 61.326 374.867 59.5401 372.931 58.8424Z" fill="#5A5A5A"/>
<path d="M378.286 69.9284L382.582 61.1202L384.129 61.8751L379.833 70.6833L378.286 69.9284Z" fill="#5A5A5A"/>
<path d="M387.1 75.0797L389.472 64.6741L391.027 65.7716L389.1 73.6292L395.844 69.1691L397.365 70.2424L388.358 75.9674L387.1 75.0797Z" fill="#5A5A5A"/>
<path d="M1848.5 829.25H1841L1830 810.25" stroke="#5A5A5A" stroke-width="2"/>
<path d="M1855.88 821.5C1854.83 823.783 1854.25 826.323 1854.25 829C1854.25 831.677 1854.83 834.217 1855.88 836.5" stroke="#5A5A5A" stroke-width="2"/>
<path d="M1860.87 824.5C1860.31 825.89 1860 827.409 1860 829C1860 830.591 1860.31 832.11 1860.87 833.5" stroke="#5A5A5A" stroke-width="2"/>
<path d="M1874.5 828.75C1874.5 830.683 1872.49 832.25 1870 832.25C1867.51 832.25 1865.5 830.683 1865.5 828.75C1865.5 826.817 1867.51 825.25 1870 825.25C1872.49 825.25 1874.5 826.817 1874.5 828.75ZM1874.5 828.75V810.5L1880.5 815" stroke="#5A5A5A" stroke-width="2"/>
<path d="M1846 413H1841L1830 394" stroke="#5A5A5A" stroke-width="2"/>
<path d="M1861.5 410.956C1860.63 409.064 1858.72 407.75 1856.5 407.75C1853.46 407.75 1851 410.212 1851 413.25C1851 416.288 1853.46 418.75 1856.5 418.75C1857.96 418.75 1859.29 418.18 1860.27 417.25C1861.26 416.32 1865.5 410.537 1866.5 409.475C1867.5 408.413 1868.92 407.75 1870.5 407.75C1873.54 407.75 1876 410.212 1876 413.25C1876 416.288 1873.54 418.75 1870.5 418.75C1868.36 418.75 1866.51 417.531 1865.6 415.75" stroke="#5A5A5A" stroke-width="2"/>
<path d="M185 205.5H177.5L166.5 186.5" stroke="#5A5A5A" stroke-width="2"/>
<circle cx="198.5" cy="205.5" r="9.5" stroke="#5A5A5A" stroke-width="2"/>
<path d="M198.5 199V205.5L202 209" stroke="#5A5A5A" stroke-width="2"/>
<circle cx="138" cy="137" r="58.5" stroke="#606060"/>
<circle cx="138" cy="553" r="58.5" stroke="#606060"/>
<circle cx="346" cy="553" r="58.5" stroke="#606060"/>
<circle cx="554" cy="553" r="58.5" stroke="#606060"/>
<circle cx="762" cy="553" r="58.5" stroke="#606060"/>
<circle cx="1178" cy="553" r="58.5" stroke="#606060"/>
<circle cx="1178" cy="761" r="58.5" stroke="#606060"/>
<circle cx="1386" cy="761" r="58.5" stroke="#606060"/>
<circle cx="1594" cy="761" r="58.5" stroke="#606060"/>
<circle cx="1802" cy="761" r="58.5" stroke="#606060"/>
<circle cx="970" cy="761" r="58.5" stroke="#606060"/>
<circle cx="1386" cy="553" r="58.5" stroke="#606060"/>
<circle cx="1802" cy="553" r="58.5" stroke="#606060"/>
<circle cx="346" cy="137" r="58.5" stroke="#606060"/>
<circle cx="554" cy="137" r="58.5" stroke="#606060"/>
<circle cx="138" cy="345" r="58.5" stroke="#606060"/>
<circle cx="138" cy="761" r="58.5" stroke="#606060"/>
<circle cx="346" cy="761" r="58.5" stroke="#606060"/>
<circle cx="554" cy="761" r="58.5" stroke="#606060"/>
<circle cx="762" cy="761" r="58.5" stroke="#606060"/>
<circle cx="970" cy="345" r="58.5" stroke="#606060"/>
<circle cx="1178" cy="345" r="58.5" stroke="#606060"/>
<circle cx="1386" cy="345" r="58.5" stroke="#606060"/>
<circle cx="1594" cy="345" r="58.5" stroke="#606060"/>
<circle cx="1594" cy="553" r="58.5" stroke="#606060"/>
<circle cx="970" cy="553" r="58.5" stroke="#606060"/>
<circle cx="346" cy="345" r="58.5" stroke="#606060"/>
<circle cx="554" cy="345" r="58.5" stroke="#606060"/>
<circle cx="762" cy="345" r="58.5" stroke="#606060"/>
<circle cx="762" cy="137" r="58.5" stroke="#606060"/>
<circle cx="970" cy="137" r="58.5" stroke="#606060"/>
<circle cx="1178" cy="137" r="58.5" stroke="#606060"/>
<circle cx="1386" cy="137" r="58.5" stroke="#606060"/>
<circle cx="1594" cy="137" r="58.5" stroke="#606060"/>
<circle cx="1802" cy="137" r="58.5" stroke="#606060"/>
<circle cx="1802" cy="345" r="58.5" stroke="#606060"/>
<circle cx="684" cy="213" r="14.5" stroke="#606060"/>
<circle cx="60" cy="629" r="14.5" stroke="#606060"/>
<circle cx="892" cy="213" r="14.5" stroke="#606060"/>
<circle cx="268" cy="629" r="14.5" stroke="#606060"/>
<circle cx="1100" cy="213" r="14.5" stroke="#606060"/>
<circle cx="476" cy="629" r="14.5" stroke="#606060"/>
<circle cx="1308" cy="213" r="14.5" stroke="#606060"/>
<circle cx="684" cy="629" r="14.5" stroke="#606060"/>
<circle cx="1308" cy="629" r="14.5" stroke="#606060"/>
<circle cx="1308" cy="680" r="14.5" stroke="#606060"/>
<circle cx="1724" cy="680" r="14.5" stroke="#606060"/>
<circle cx="1724" cy="472" r="14.5" stroke="#606060"/>
<circle cx="1724" cy="732" r="14.5" stroke="#606060"/>
<circle cx="1724" cy="783" r="14.5" stroke="#606060"/>
<circle cx="1260" cy="629" r="14.5" stroke="#606060"/>
<circle cx="1260" cy="680" r="14.5" stroke="#606060"/>
<circle cx="1516" cy="213" r="14.5" stroke="#606060"/>
<path d="M53.416 228.216C49.708 228.216 46.954 225.354 46.954 221.736V221.7C46.954 218.118 49.654 215.184 53.524 215.184C55.9 215.184 57.322 215.976 58.492 217.128L56.728 219.162C55.756 218.28 54.766 217.74 53.506 217.74C51.382 217.74 49.852 219.504 49.852 221.664V221.7C49.852 223.86 51.346 225.66 53.506 225.66C54.946 225.66 55.828 225.084 56.818 224.184L58.582 225.966C57.286 227.352 55.846 228.216 53.416 228.216ZM61.8811 228V215.4H64.6531V225.48H70.9351V228H61.8811ZM79.5049 228.216C75.6169 228.216 72.8269 225.318 72.8269 221.736V221.7C72.8269 218.118 75.6529 215.184 79.5409 215.184C83.4289 215.184 86.2189 218.082 86.2189 221.664V221.7C86.2189 225.282 83.3929 228.216 79.5049 228.216ZM79.5409 225.66C81.7729 225.66 83.3209 223.896 83.3209 221.736V221.7C83.3209 219.54 81.7369 217.74 79.5049 217.74C77.2729 217.74 75.7249 219.504 75.7249 221.664V221.7C75.7249 223.86 77.3089 225.66 79.5409 225.66ZM95.6619 228.216C91.9539 228.216 89.1999 225.354 89.1999 221.736V221.7C89.1999 218.118 91.8999 215.184 95.7699 215.184C98.1459 215.184 99.5679 215.976 100.738 217.128L98.9739 219.162C98.0019 218.28 97.0119 217.74 95.7519 217.74C93.6279 217.74 92.0979 219.504 92.0979 221.664V221.7C92.0979 223.86 93.5919 225.66 95.7519 225.66C97.1919 225.66 98.0739 225.084 99.0639 224.184L100.828 225.966C99.5319 227.352 98.0919 228.216 95.6619 228.216ZM104.127 228V215.4H106.899V220.908L111.975 215.4H115.377L110.229 220.746L115.593 228H112.263L108.357 222.636L106.899 224.148V228H104.127Z" fill="#5A5A5A"/>
<path d="M259.994 228.18C258.086 228.18 256.16 227.514 254.648 226.164L256.286 224.202C257.42 225.138 258.608 225.732 260.048 225.732C261.182 225.732 261.866 225.282 261.866 224.544V224.508C261.866 223.806 261.434 223.446 259.328 222.906C256.79 222.258 255.152 221.556 255.152 219.054V219.018C255.152 216.732 256.988 215.22 259.562 215.22C261.398 215.22 262.964 215.796 264.242 216.822L262.802 218.91C261.686 218.136 260.588 217.668 259.526 217.668C258.464 217.668 257.906 218.154 257.906 218.766V218.802C257.906 219.63 258.446 219.9 260.624 220.458C263.18 221.124 264.62 222.042 264.62 224.238V224.274C264.62 226.776 262.712 228.18 259.994 228.18ZM268.106 228V215.4H273.254C276.26 215.4 278.078 217.182 278.078 219.756V219.792C278.078 222.708 275.81 224.22 272.984 224.22H270.878V228H268.106ZM270.878 221.754H273.074C274.46 221.754 275.27 220.926 275.27 219.846V219.81C275.27 218.568 274.406 217.902 273.02 217.902H270.878V221.754ZM281.209 228V215.4H286.969C288.571 215.4 289.813 215.85 290.641 216.678C291.343 217.38 291.721 218.37 291.721 219.558V219.594C291.721 221.628 290.623 222.906 289.021 223.5L292.099 228H288.859L286.159 223.968H283.981V228H281.209ZM283.981 221.52H286.789C288.139 221.52 288.913 220.8 288.913 219.738V219.702C288.913 218.514 288.085 217.902 286.735 217.902H283.981V221.52ZM295.297 228V215.4H304.801V217.866H298.051V220.422H303.991V222.888H298.051V225.534H304.891V228H295.297ZM307.356 228L312.756 215.31H315.312L320.712 228H317.814L316.662 225.174H311.334L310.182 228H307.356ZM312.324 222.726H315.672L313.998 218.64L312.324 222.726ZM323.736 228V215.4H328.65C332.61 215.4 335.346 218.118 335.346 221.664V221.7C335.346 225.246 332.61 228 328.65 228H323.736ZM328.65 217.902H326.508V225.498H328.65C330.918 225.498 332.448 223.968 332.448 221.736V221.7C332.448 219.468 330.918 217.902 328.65 217.902Z" fill="#5A5A5A"/>
<path d="M468.994 228.18C467.086 228.18 465.16 227.514 463.648 226.164L465.286 224.202C466.42 225.138 467.608 225.732 469.048 225.732C470.182 225.732 470.866 225.282 470.866 224.544V224.508C470.866 223.806 470.434 223.446 468.328 222.906C465.79 222.258 464.152 221.556 464.152 219.054V219.018C464.152 216.732 465.988 215.22 468.562 215.22C470.398 215.22 471.964 215.796 473.242 216.822L471.802 218.91C470.686 218.136 469.588 217.668 468.526 217.668C467.464 217.668 466.906 218.154 466.906 218.766V218.802C466.906 219.63 467.446 219.9 469.624 220.458C472.18 221.124 473.62 222.042 473.62 224.238V224.274C473.62 226.776 471.712 228.18 468.994 228.18ZM477.106 228V215.4H479.878V220.386H484.99V215.4H487.762V228H484.99V222.942H479.878V228H477.106ZM497.117 228.198C493.733 228.198 491.663 226.308 491.663 222.6V215.4H494.435V222.528C494.435 224.58 495.461 225.642 497.153 225.642C498.845 225.642 499.871 224.616 499.871 222.618V215.4H502.643V222.51C502.643 226.326 500.501 228.198 497.117 228.198ZM506.547 228V215.4H516.141V217.92H509.319V220.602H515.331V223.122H509.319V228H506.547ZM519.439 228V215.4H529.033V217.92H522.211V220.602H528.223V223.122H522.211V228H519.439ZM532.332 228V215.4H535.104V225.48H541.386V228H532.332ZM544.556 228V215.4H554.06V217.866H547.31V220.422H553.25V222.888H547.31V225.534H554.15V228H544.556Z" fill="#5A5A5A"/>
<path d="M717.166 228.216C713.458 228.216 710.704 225.354 710.704 221.736V221.7C710.704 218.118 713.404 215.184 717.274 215.184C719.65 215.184 721.072 215.976 722.242 217.128L720.478 219.162C719.506 218.28 718.516 217.74 717.256 217.74C715.132 217.74 713.602 219.504 713.602 221.664V221.7C713.602 223.86 715.096 225.66 717.256 225.66C718.696 225.66 719.578 225.084 720.568 224.184L722.332 225.966C721.036 227.352 719.596 228.216 717.166 228.216ZM725.631 228V215.4H728.403V220.386H733.515V215.4H736.287V228H733.515V222.942H728.403V228H725.631ZM739.307 228L744.707 215.31H747.263L752.663 228H749.765L748.613 225.174H743.285L742.133 228H739.307ZM744.275 222.726H747.623L745.949 218.64L744.275 222.726ZM755.688 228V215.4H761.448C763.05 215.4 764.292 215.85 765.12 216.678C765.822 217.38 766.2 218.37 766.2 219.558V219.594C766.2 221.628 765.102 222.906 763.5 223.5L766.578 228H763.338L760.638 223.968H758.46V228H755.688ZM758.46 221.52H761.268C762.618 221.52 763.392 220.8 763.392 219.738V219.702C763.392 218.514 762.564 217.902 761.214 217.902H758.46V221.52ZM775.895 228.216C772.007 228.216 769.217 225.318 769.217 221.736V221.7C769.217 218.118 772.043 215.184 775.931 215.184C779.819 215.184 782.609 218.082 782.609 221.664V221.7C782.609 225.282 779.783 228.216 775.895 228.216ZM775.931 225.66C778.163 225.66 779.711 223.896 779.711 221.736V221.7C779.711 219.54 778.127 217.74 775.895 217.74C773.663 217.74 772.115 219.504 772.115 221.664V221.7C772.115 223.86 773.699 225.66 775.931 225.66ZM786.148 228V215.4H788.704L794.608 223.158V215.4H797.344V228H794.986L788.884 219.99V228H786.148Z" fill="#5A5A5A"/>
<path d="M923.994 228.18C922.086 228.18 920.16 227.514 918.648 226.164L920.286 224.202C921.42 225.138 922.608 225.732 924.048 225.732C925.182 225.732 925.866 225.282 925.866 224.544V224.508C925.866 223.806 925.434 223.446 923.328 222.906C920.79 222.258 919.152 221.556 919.152 219.054V219.018C919.152 216.732 920.988 215.22 923.562 215.22C925.398 215.22 926.964 215.796 928.242 216.822L926.802 218.91C925.686 218.136 924.588 217.668 923.526 217.668C922.464 217.668 921.906 218.154 921.906 218.766V218.802C921.906 219.63 922.446 219.9 924.624 220.458C927.18 221.124 928.62 222.042 928.62 224.238V224.274C928.62 226.776 926.712 228.18 923.994 228.18ZM934.776 228V217.956H930.942V215.4H941.382V217.956H937.548V228H934.776ZM948.14 228V223.032L943.298 215.4H946.538L949.544 220.458L952.604 215.4H955.754L950.912 222.978V228H948.14ZM965.79 215.4H968.94L964.728 221.556L969.12 228H965.88L963.054 223.68L960.21 228H957.06L961.452 221.592L957.24 215.4H960.48L963.108 219.486L965.79 215.4Z" fill="#5A5A5A"/>
<path d="M1127.01 228V215.4H1129.57L1135.47 223.158V215.4H1138.21V228H1135.85L1129.75 219.99V228H1127.01ZM1142.44 228V215.4H1145.21V228H1142.44ZM1157.22 215.4H1160.37L1156.15 221.556L1160.55 228H1157.31L1154.48 223.68L1151.64 228H1148.49L1152.88 221.592L1148.67 215.4H1151.91L1154.53 219.486L1157.22 215.4Z" fill="#5A5A5A"/>
<path d="M1335.26 228V215.4H1338.03V220.908L1343.11 215.4H1346.51L1341.36 220.746L1346.73 228H1343.4L1339.49 222.636L1338.03 224.148V228H1335.26ZM1349.49 228V215.4H1358.99V217.866H1352.24V220.422H1358.18V222.888H1352.24V225.534H1359.08V228H1349.49ZM1362.63 228V215.4H1368.39C1369.99 215.4 1371.23 215.85 1372.06 216.678C1372.76 217.38 1373.14 218.37 1373.14 219.558V219.594C1373.14 221.628 1372.04 222.906 1370.44 223.5L1373.52 228H1370.28L1367.58 223.968H1365.4V228H1362.63ZM1365.4 221.52H1368.21C1369.56 221.52 1370.33 220.8 1370.33 219.738V219.702C1370.33 218.514 1369.51 217.902 1368.16 217.902H1365.4V221.52ZM1376.72 228V215.4H1382.57C1384.01 215.4 1385.14 215.796 1385.86 216.516C1386.44 217.092 1386.72 217.794 1386.72 218.658V218.694C1386.72 220.116 1385.97 220.908 1385.07 221.412C1386.53 221.97 1387.43 222.816 1387.43 224.508V224.544C1387.43 226.848 1385.55 228 1382.71 228H1376.72ZM1383.97 219.162V219.126C1383.97 218.298 1383.32 217.83 1382.15 217.83H1379.42V220.494H1381.97C1383.2 220.494 1383.97 220.098 1383.97 219.162ZM1384.67 224.166C1384.67 223.32 1384.04 222.798 1382.62 222.798H1379.42V225.57H1382.71C1383.93 225.57 1384.67 225.138 1384.67 224.202V224.166ZM1390.79 228V215.4H1400.29V217.866H1393.54V220.422H1399.48V222.888H1393.54V225.534H1400.38V228H1390.79ZM1403.93 228V215.4H1409.69C1411.29 215.4 1412.53 215.85 1413.36 216.678C1414.06 217.38 1414.44 218.37 1414.44 219.558V219.594C1414.44 221.628 1413.34 222.906 1411.74 223.5L1414.82 228H1411.58L1408.88 223.968H1406.7V228H1403.93ZM1406.7 221.52H1409.51C1410.86 221.52 1411.63 220.8 1411.63 219.738V219.702C1411.63 218.514 1410.8 217.902 1409.45 217.902H1406.7V221.52ZM1424.13 228.216C1420.25 228.216 1417.46 225.318 1417.46 221.736V221.7C1417.46 218.118 1420.28 215.184 1424.17 215.184C1428.06 215.184 1430.85 218.082 1430.85 221.664V221.7C1430.85 225.282 1428.02 228.216 1424.13 228.216ZM1424.17 225.66C1426.4 225.66 1427.95 223.896 1427.95 221.736V221.7C1427.95 219.54 1426.37 217.74 1424.13 217.74C1421.9 217.74 1420.35 219.504 1420.35 221.664V221.7C1420.35 223.86 1421.94 225.66 1424.17 225.66ZM1438.78 228.18C1436.87 228.18 1434.95 227.514 1433.43 226.164L1435.07 224.202C1436.21 225.138 1437.39 225.732 1438.83 225.732C1439.97 225.732 1440.65 225.282 1440.65 224.544V224.508C1440.65 223.806 1440.22 223.446 1438.11 222.906C1435.58 222.258 1433.94 221.556 1433.94 219.054V219.018C1433.94 216.732 1435.77 215.22 1438.35 215.22C1440.18 215.22 1441.75 215.796 1443.03 216.822L1441.59 218.91C1440.47 218.136 1439.37 217.668 1438.31 217.668C1437.25 217.668 1436.69 218.154 1436.69 218.766V218.802C1436.69 219.63 1437.23 219.9 1439.41 220.458C1441.97 221.124 1443.41 222.042 1443.41 224.238V224.274C1443.41 226.776 1441.5 228.18 1438.78 228.18Z" fill="#5A5A5A"/>
<path d="M1543.76 228V215.4H1546.53V220.386H1551.65V215.4H1554.42V228H1551.65V222.942H1546.53V228H1543.76ZM1562.06 228V223.032L1557.22 215.4H1560.46L1563.47 220.458L1566.53 215.4H1569.68L1564.84 222.978V228H1562.06ZM1572.48 228V215.4H1577.4C1581.36 215.4 1584.09 218.118 1584.09 221.664V221.7C1584.09 225.246 1581.36 228 1577.4 228H1572.48ZM1577.4 217.902H1575.25V225.498H1577.4C1579.66 225.498 1581.19 223.968 1581.19 221.736V221.7C1581.19 219.468 1579.66 217.902 1577.4 217.902ZM1587.64 228V215.4H1593.4C1595 215.4 1596.25 215.85 1597.07 216.678C1597.78 217.38 1598.15 218.37 1598.15 219.558V219.594C1598.15 221.628 1597.06 222.906 1595.45 223.5L1598.53 228H1595.29L1592.59 223.968H1590.41V228H1587.64ZM1590.41 221.52H1593.22C1594.57 221.52 1595.35 220.8 1595.35 219.738V219.702C1595.35 218.514 1594.52 217.902 1593.17 217.902H1590.41V221.52ZM1600.65 228L1606.05 215.31H1608.61L1614.01 228H1611.11L1609.96 225.174H1604.63L1603.48 228H1600.65ZM1605.62 222.726H1608.97L1607.29 218.64L1605.62 222.726Z" fill="#5A5A5A"/>
<path d="M1714.84 228.09L1710.54 215.4H1713.51L1716.12 223.932L1718.95 215.364H1721.32L1724.15 223.932L1726.76 215.4H1729.66L1725.35 228.09H1722.94L1720.1 219.846L1717.25 228.09H1714.84ZM1732.92 228V215.4H1735.69V228H1732.92ZM1739.92 228V215.4H1744.83C1748.79 215.4 1751.53 218.118 1751.53 221.664V221.7C1751.53 225.246 1748.79 228 1744.83 228H1739.92ZM1744.83 217.902H1742.69V225.498H1744.83C1747.1 225.498 1748.63 223.968 1748.63 221.736V221.7C1748.63 219.468 1747.1 217.902 1744.83 217.902ZM1757.29 228V217.956H1753.46V215.4H1763.9V217.956H1760.06V228H1757.29ZM1767.11 228V215.4H1769.88V220.386H1774.99V215.4H1777.76V228H1774.99V222.942H1769.88V228H1767.11Z" fill="#5A5A5A"/>
<path d="M1092.99 852.18C1091.09 852.18 1089.16 851.514 1087.65 850.164L1089.29 848.202C1090.42 849.138 1091.61 849.732 1093.05 849.732C1094.18 849.732 1094.87 849.282 1094.87 848.544V848.508C1094.87 847.806 1094.43 847.446 1092.33 846.906C1089.79 846.258 1088.15 845.556 1088.15 843.054V843.018C1088.15 840.732 1089.99 839.22 1092.56 839.22C1094.4 839.22 1095.96 839.796 1097.24 840.822L1095.8 842.91C1094.69 842.136 1093.59 841.668 1092.53 841.668C1091.46 841.668 1090.91 842.154 1090.91 842.766V842.802C1090.91 843.63 1091.45 843.9 1093.62 844.458C1096.18 845.124 1097.62 846.042 1097.62 848.238V848.274C1097.62 850.776 1095.71 852.18 1092.99 852.18ZM1101.11 852V839.4H1110.61V841.866H1103.86V844.422H1109.8V846.888H1103.86V849.534H1110.7V852H1101.11ZM1127.26 850.416L1125.49 852.378L1124.11 851.136C1123.05 851.82 1121.77 852.216 1120.36 852.216C1116.48 852.216 1113.69 849.318 1113.69 845.736V845.7C1113.69 842.118 1116.51 839.184 1120.4 839.184C1124.29 839.184 1127.08 842.082 1127.08 845.664V845.7C1127.08 847.032 1126.66 848.274 1125.96 849.318L1127.26 850.416ZM1120.4 849.66C1121.01 849.66 1121.57 849.552 1122.06 849.318L1120 847.572L1121.77 845.592L1123.84 847.464C1124.05 846.96 1124.18 846.366 1124.18 845.736V845.7C1124.18 843.54 1122.6 841.74 1120.36 841.74C1118.13 841.74 1116.58 843.504 1116.58 845.664V845.7C1116.58 847.86 1118.17 849.66 1120.4 849.66ZM1135.87 852.198C1132.49 852.198 1130.42 850.308 1130.42 846.6V839.4H1133.19V846.528C1133.19 848.58 1134.22 849.642 1135.91 849.642C1137.6 849.642 1138.63 848.616 1138.63 846.618V839.4H1141.4V846.51C1141.4 850.326 1139.26 852.198 1135.87 852.198ZM1145.3 852V839.4H1154.81V841.866H1148.06V844.422H1154V846.888H1148.06V849.534H1154.9V852H1145.3ZM1158.44 852V839.4H1161L1166.9 847.158V839.4H1169.64V852H1167.28L1161.18 843.99V852H1158.44ZM1179.65 852.216C1175.94 852.216 1173.18 849.354 1173.18 845.736V845.7C1173.18 842.118 1175.88 839.184 1179.75 839.184C1182.13 839.184 1183.55 839.976 1184.72 841.128L1182.96 843.162C1181.99 842.28 1181 841.74 1179.74 841.74C1177.61 841.74 1176.08 843.504 1176.08 845.664V845.7C1176.08 847.86 1177.58 849.66 1179.74 849.66C1181.18 849.66 1182.06 849.084 1183.05 848.184L1184.81 849.966C1183.52 851.352 1182.08 852.216 1179.65 852.216ZM1188.11 852V839.4H1197.62V841.866H1190.87V844.422H1196.81V846.888H1190.87V849.534H1197.71V852H1188.11ZM1207.1 852V849.804L1211.29 846.366C1212.86 845.07 1213.47 844.386 1213.47 843.342C1213.47 842.28 1212.77 841.704 1211.78 841.704C1210.8 841.704 1210.14 842.244 1209.2 843.396L1207.26 841.83C1208.5 840.138 1209.71 839.22 1211.96 839.22C1214.57 839.22 1216.29 840.75 1216.29 843.108V843.144C1216.29 845.25 1215.21 846.294 1212.98 848.022L1210.93 849.606H1216.42V852H1207.1Z" fill="#5A5A5A"/>
<path d="M51.994 436.18C50.086 436.18 48.16 435.514 46.648 434.164L48.286 432.202C49.42 433.138 50.608 433.732 52.048 433.732C53.182 433.732 53.866 433.282 53.866 432.544V432.508C53.866 431.806 53.434 431.446 51.328 430.906C48.79 430.258 47.152 429.556 47.152 427.054V427.018C47.152 424.732 48.988 423.22 51.562 423.22C53.398 423.22 54.964 423.796 56.242 424.822L54.802 426.91C53.686 426.136 52.588 425.668 51.526 425.668C50.464 425.668 49.906 426.154 49.906 426.766V426.802C49.906 427.63 50.446 427.9 52.624 428.458C55.18 429.124 56.62 430.042 56.62 432.238V432.274C56.62 434.776 54.712 436.18 51.994 436.18ZM62.776 436V425.956H58.942V423.4H69.382V425.956H65.548V436H62.776ZM72.5939 436V423.4H82.0979V425.866H75.3479V428.422H81.2879V430.888H75.3479V433.534H82.1879V436H72.5939ZM85.7325 436V423.4H90.8805C93.8865 423.4 95.7045 425.182 95.7045 427.756V427.792C95.7045 430.708 93.4365 432.22 90.6105 432.22H88.5045V436H85.7325ZM88.5045 429.754H90.7005C92.0865 429.754 92.8965 428.926 92.8965 427.846V427.81C92.8965 426.568 92.0325 425.902 90.6465 425.902H88.5045V429.754Z" fill="#5A5A5A"/>
<path d="M259.994 436.18C258.086 436.18 256.16 435.514 254.648 434.164L256.286 432.202C257.42 433.138 258.608 433.732 260.048 433.732C261.182 433.732 261.866 433.282 261.866 432.544V432.508C261.866 431.806 261.434 431.446 259.328 430.906C256.79 430.258 255.152 429.556 255.152 427.054V427.018C255.152 424.732 256.988 423.22 259.562 423.22C261.398 423.22 262.964 423.796 264.242 424.822L262.802 426.91C261.686 426.136 260.588 425.668 259.526 425.668C258.464 425.668 257.906 426.154 257.906 426.766V426.802C257.906 427.63 258.446 427.9 260.624 428.458C263.18 429.124 264.62 430.042 264.62 432.238V432.274C264.62 434.776 262.712 436.18 259.994 436.18ZM270.776 436V425.956H266.942V423.4H277.382V425.956H273.548V436H270.776ZM280.594 436V423.4H290.098V425.866H283.348V428.422H289.288V430.888H283.348V433.534H290.188V436H280.594ZM293.732 436V423.4H298.88C301.886 423.4 303.704 425.182 303.704 427.756V427.792C303.704 430.708 301.436 432.22 298.61 432.22H296.504V436H293.732ZM296.504 429.754H298.7C300.086 429.754 300.896 428.926 300.896 427.846V427.81C300.896 426.568 300.032 425.902 298.646 425.902H296.504V429.754ZM313.438 436V423.4H316.21V436H313.438ZM320.439 436V423.4H322.995L328.899 431.158V423.4H331.635V436H329.277L323.175 427.99V436H320.439ZM339.754 436.09L334.66 423.4H337.72L341.014 432.274L344.308 423.4H347.296L342.202 436.09H339.754ZM350.32 436V423.4H359.824V425.866H353.074V428.422H359.014V430.888H353.074V433.534H359.914V436H350.32ZM363.459 436V423.4H369.219C370.821 423.4 372.063 423.85 372.891 424.678C373.593 425.38 373.971 426.37 373.971 427.558V427.594C373.971 429.628 372.873 430.906 371.271 431.5L374.349 436H371.109L368.409 431.968H366.231V436H363.459ZM366.231 429.52H369.039C370.389 429.52 371.163 428.8 371.163 427.738V427.702C371.163 426.514 370.335 425.902 368.985 425.902H366.231V429.52ZM380.48 436V425.956H376.646V423.4H387.086V425.956H383.252V436H380.48Z" fill="#5A5A5A"/>
<path d="M467.446 436V425.956H463.612V423.4H474.052V425.956H470.218V436H467.446ZM477.264 436V423.4H480.036V428.386H485.148V423.4H487.92V436H485.148V430.942H480.036V436H477.264ZM492.02 436V423.4H497.78C499.382 423.4 500.624 423.85 501.452 424.678C502.154 425.38 502.532 426.37 502.532 427.558V427.594C502.532 429.628 501.434 430.906 499.832 431.5L502.91 436H499.67L496.97 431.968H494.792V436H492.02ZM494.792 429.52H497.6C498.95 429.52 499.724 428.8 499.724 427.738V427.702C499.724 426.514 498.896 425.902 497.546 425.902H494.792V429.52ZM506.107 436V423.4H515.611V425.866H508.861V428.422H514.801V430.888H508.861V433.534H515.701V436H506.107ZM523.728 436.18C521.82 436.18 519.894 435.514 518.382 434.164L520.02 432.202C521.154 433.138 522.342 433.732 523.782 433.732C524.916 433.732 525.6 433.282 525.6 432.544V432.508C525.6 431.806 525.168 431.446 523.062 430.906C520.524 430.258 518.886 429.556 518.886 427.054V427.018C518.886 424.732 520.722 423.22 523.296 423.22C525.132 423.22 526.698 423.796 527.976 424.822L526.536 426.91C525.42 426.136 524.322 425.668 523.26 425.668C522.198 425.668 521.64 426.154 521.64 426.766V426.802C521.64 427.63 522.18 427.9 524.358 428.458C526.914 429.124 528.354 430.042 528.354 432.238V432.274C528.354 434.776 526.446 436.18 523.728 436.18ZM531.84 436V423.4H534.612V428.386H539.724V423.4H542.496V436H539.724V430.942H534.612V436H531.84ZM552.716 436.216C548.828 436.216 546.038 433.318 546.038 429.736V429.7C546.038 426.118 548.864 423.184 552.752 423.184C556.64 423.184 559.43 426.082 559.43 429.664V429.7C559.43 433.282 556.604 436.216 552.716 436.216ZM552.752 433.66C554.984 433.66 556.532 431.896 556.532 429.736V429.7C556.532 427.54 554.948 425.74 552.716 425.74C550.484 425.74 548.936 427.504 548.936 429.664V429.7C548.936 431.86 550.52 433.66 552.752 433.66ZM562.968 436V423.4H565.74V433.48H572.022V436H562.968ZM575.193 436V423.4H580.107C584.067 423.4 586.803 426.118 586.803 429.664V429.7C586.803 433.246 584.067 436 580.107 436H575.193ZM580.107 425.902H577.965V433.498H580.107C582.375 433.498 583.905 431.968 583.905 429.736V429.7C583.905 427.468 582.375 425.902 580.107 425.902Z" fill="#5A5A5A"/>
<path d="M675.196 436V425.956H671.362V423.4H681.802V425.956H677.968V436H675.196ZM690.589 436.216C686.701 436.216 683.911 433.318 683.911 429.736V429.7C683.911 426.118 686.737 423.184 690.625 423.184C694.513 423.184 697.303 426.082 697.303 429.664V429.7C697.303 433.282 694.477 436.216 690.589 436.216ZM690.625 433.66C692.857 433.66 694.405 431.896 694.405 429.736V429.7C694.405 427.54 692.821 425.74 690.589 425.74C688.357 425.74 686.809 427.504 686.809 429.664V429.7C686.809 431.86 688.393 433.66 690.625 433.66ZM706.098 436.198C702.714 436.198 700.644 434.308 700.644 430.6V423.4H703.416V430.528C703.416 432.58 704.442 433.642 706.134 433.642C707.826 433.642 708.852 432.616 708.852 430.618V423.4H711.624V430.51C711.624 434.326 709.482 436.198 706.098 436.198ZM721.431 436.216C717.723 436.216 714.969 433.354 714.969 429.736V429.7C714.969 426.118 717.669 423.184 721.539 423.184C723.915 423.184 725.337 423.976 726.507 425.128L724.743 427.162C723.771 426.28 722.781 425.74 721.521 425.74C719.397 425.74 717.867 427.504 717.867 429.664V429.7C717.867 431.86 719.361 433.66 721.521 433.66C722.961 433.66 723.843 433.084 724.833 432.184L726.597 433.966C725.301 435.352 723.861 436.216 721.431 436.216ZM729.896 436V423.4H732.668V428.386H737.78V423.4H740.552V436H737.78V430.942H732.668V436H729.896Z" fill="#5A5A5A"/>
<path d="M879.512 436V423.4H882.284V433.48H888.566V436H879.512ZM891.737 436V423.4H901.241V425.866H894.491V428.422H900.431V430.888H894.491V433.534H901.331V436H891.737ZM908.889 436.09L903.795 423.4H906.855L910.149 432.274L913.443 423.4H916.431L911.337 436.09H908.889ZM919.455 436V423.4H928.959V425.866H922.209V428.422H928.149V430.888H922.209V433.534H929.049V436H919.455ZM932.594 436V423.4H935.366V433.48H941.648V436H932.594Z" fill="#5A5A5A"/>
<path d="M1092.99 436.18C1091.09 436.18 1089.16 435.514 1087.65 434.164L1089.29 432.202C1090.42 433.138 1091.61 433.732 1093.05 433.732C1094.18 433.732 1094.87 433.282 1094.87 432.544V432.508C1094.87 431.806 1094.43 431.446 1092.33 430.906C1089.79 430.258 1088.15 429.556 1088.15 427.054V427.018C1088.15 424.732 1089.99 423.22 1092.56 423.22C1094.4 423.22 1095.96 423.796 1097.24 424.822L1095.8 426.91C1094.69 426.136 1093.59 425.668 1092.53 425.668C1091.46 425.668 1090.91 426.154 1090.91 426.766V426.802C1090.91 427.63 1091.45 427.9 1093.62 428.458C1096.18 429.124 1097.62 430.042 1097.62 432.238V432.274C1097.62 434.776 1095.71 436.18 1092.99 436.18ZM1103.78 436V425.956H1099.94V423.4H1110.38V425.956H1106.55V436H1103.78ZM1113.59 436V423.4H1123.1V425.866H1116.35V428.422H1122.29V430.888H1116.35V433.534H1123.19V436H1113.59ZM1126.73 436V423.4H1131.88C1134.89 423.4 1136.7 425.182 1136.7 427.756V427.792C1136.7 430.708 1134.44 432.22 1131.61 432.22H1129.5V436H1126.73ZM1129.5 429.754H1131.7C1133.09 429.754 1133.9 428.926 1133.9 427.846V427.81C1133.9 426.568 1133.03 425.902 1131.65 425.902H1129.5V429.754Z" fill="#5A5A5A"/>
<path d="M1295.51 436V423.4H1300.43C1304.39 423.4 1307.12 426.118 1307.12 429.664V429.7C1307.12 433.246 1304.39 436 1300.43 436H1295.51ZM1300.43 425.902H1298.28V433.498H1300.43C1302.69 433.498 1304.22 431.968 1304.22 429.736V429.7C1304.22 427.468 1302.69 425.902 1300.43 425.902ZM1310.8 436V423.4H1313.57V436H1310.8ZM1317.8 436V423.4H1323.56C1325.16 423.4 1326.4 423.85 1327.23 424.678C1327.93 425.38 1328.31 426.37 1328.31 427.558V427.594C1328.31 429.628 1327.21 430.906 1325.61 431.5L1328.69 436H1325.45L1322.75 431.968H1320.57V436H1317.8ZM1320.57 429.52H1323.38C1324.73 429.52 1325.5 428.8 1325.5 427.738V427.702C1325.5 426.514 1324.67 425.902 1323.32 425.902H1320.57V429.52ZM1331.89 436V423.4H1341.39V425.866H1334.64V428.422H1340.58V430.888H1334.64V433.534H1341.48V436H1331.89ZM1350.93 436.216C1347.22 436.216 1344.47 433.354 1344.47 429.736V429.7C1344.47 426.118 1347.17 423.184 1351.04 423.184C1353.41 423.184 1354.84 423.976 1356.01 425.128L1354.24 427.162C1353.27 426.28 1352.28 425.74 1351.02 425.74C1348.9 425.74 1347.37 427.504 1347.37 429.664V429.7C1347.37 431.86 1348.86 433.66 1351.02 433.66C1352.46 433.66 1353.34 433.084 1354.33 432.184L1356.1 433.966C1354.8 435.352 1353.36 436.216 1350.93 436.216ZM1362.33 436V425.956H1358.49V423.4H1368.93V425.956H1365.1V436H1362.33ZM1372.27 436V423.4H1375.04V436H1372.27ZM1385.39 436.216C1381.51 436.216 1378.72 433.318 1378.72 429.736V429.7C1378.72 426.118 1381.54 423.184 1385.43 423.184C1389.32 423.184 1392.11 426.082 1392.11 429.664V429.7C1392.11 433.282 1389.28 436.216 1385.39 436.216ZM1385.43 433.66C1387.66 433.66 1389.21 431.896 1389.21 429.736V429.7C1389.21 427.54 1387.63 425.74 1385.39 425.74C1383.16 425.74 1381.61 427.504 1381.61 429.664V429.7C1381.61 431.86 1383.2 433.66 1385.43 433.66ZM1395.65 436V423.4H1398.2L1404.11 431.158V423.4H1406.84V436H1404.48L1398.38 427.99V436H1395.65Z" fill="#5A5A5A"/>
<path d="M1502.51 436V423.4H1505.28V433.48H1511.57V436H1502.51ZM1514.74 436V423.4H1524.24V425.866H1517.49V428.422H1523.43V430.888H1517.49V433.534H1524.33V436H1514.74ZM1531.89 436.09L1526.8 423.4H1529.86L1533.15 432.274L1536.44 423.4H1539.43L1534.34 436.09H1531.89ZM1542.46 436V423.4H1551.96V425.866H1545.21V428.422H1551.15V430.888H1545.21V433.534H1552.05V436H1542.46ZM1555.59 436V423.4H1558.37V433.48H1564.65V436H1555.59Z" fill="#5A5A5A"/>
<path d="M1711.64 436V423.4H1714.41V436H1711.64ZM1718.64 436V423.4H1721.19L1727.1 431.158V423.4H1729.83V436H1727.48L1721.37 427.99V436H1718.64ZM1736.87 436V425.956H1733.04V423.4H1743.48V425.956H1739.65V436H1736.87ZM1746.69 436V423.4H1756.2V425.866H1749.45V428.422H1755.39V430.888H1749.45V433.534H1756.29V436H1746.69ZM1759.83 436V423.4H1762.39L1768.29 431.158V423.4H1771.03V436H1768.67L1762.57 427.99V436H1759.83ZM1779.61 436.18C1777.7 436.18 1775.78 435.514 1774.27 434.164L1775.9 432.202C1777.04 433.138 1778.23 433.732 1779.67 433.732C1780.8 433.732 1781.48 433.282 1781.48 432.544V432.508C1781.48 431.806 1781.05 431.446 1778.95 430.906C1776.41 430.258 1774.77 429.556 1774.77 427.054V427.018C1774.77 424.732 1776.61 423.22 1779.18 423.22C1781.02 423.22 1782.58 423.796 1783.86 424.822L1782.42 426.91C1781.3 426.136 1780.21 425.668 1779.14 425.668C1778.08 425.668 1777.52 426.154 1777.52 426.766V426.802C1777.52 427.63 1778.06 427.9 1780.24 428.458C1782.8 429.124 1784.24 430.042 1784.24 432.238V432.274C1784.24 434.776 1782.33 436.18 1779.61 436.18ZM1787.85 436V423.4H1790.62V436H1787.85ZM1797.79 436V425.956H1793.95V423.4H1804.39V425.956H1800.56V436H1797.79ZM1811.15 436V431.032L1806.31 423.4H1809.55L1812.55 428.458L1815.61 423.4H1818.76L1813.92 430.978V436H1811.15Z" fill="#5A5A5A"/>
<path d="M1714.45 643.75V633.706H1710.61V631.15H1721.05V633.706H1717.22V643.75H1714.45ZM1724.39 643.75V631.15H1727.16V643.75H1724.39ZM1731.39 643.75V631.15H1734.38L1737.69 636.478L1741 631.15H1743.99V643.75H1741.24V635.524L1737.69 640.906H1737.62L1734.11 635.578V643.75H1731.39ZM1748.1 643.75V631.15H1757.6V633.616H1750.85V636.172H1756.79V638.638H1750.85V641.284H1757.69V643.75H1748.1Z" fill="#5A5A5A"/>
<path d="M1715.99 852.18C1714.09 852.18 1712.16 851.514 1710.65 850.164L1712.29 848.202C1713.42 849.138 1714.61 849.732 1716.05 849.732C1717.18 849.732 1717.87 849.282 1717.87 848.544V848.508C1717.87 847.806 1717.43 847.446 1715.33 846.906C1712.79 846.258 1711.15 845.556 1711.15 843.054V843.018C1711.15 840.732 1712.99 839.22 1715.56 839.22C1717.4 839.22 1718.96 839.796 1720.24 840.822L1718.8 842.91C1717.69 842.136 1716.59 841.668 1715.53 841.668C1714.46 841.668 1713.91 842.154 1713.91 842.766V842.802C1713.91 843.63 1714.45 843.9 1716.62 844.458C1719.18 845.124 1720.62 846.042 1720.62 848.238V848.274C1720.62 850.776 1718.71 852.18 1715.99 852.18ZM1730.01 852.216C1726.3 852.216 1723.55 849.354 1723.55 845.736V845.7C1723.55 842.118 1726.25 839.184 1730.12 839.184C1732.49 839.184 1733.92 839.976 1735.09 841.128L1733.32 843.162C1732.35 842.28 1731.36 841.74 1730.1 841.74C1727.98 841.74 1726.45 843.504 1726.45 845.664V845.7C1726.45 847.86 1727.94 849.66 1730.1 849.66C1731.54 849.66 1732.42 849.084 1733.41 848.184L1735.18 849.966C1733.88 851.352 1732.44 852.216 1730.01 852.216ZM1737.39 852L1742.79 839.31H1745.35L1750.75 852H1747.85L1746.7 849.174H1741.37L1740.22 852H1737.39ZM1742.36 846.726H1745.71L1744.04 842.64L1742.36 846.726ZM1753.78 852V839.4H1756.55V849.48H1762.83V852H1753.78ZM1766 852V839.4H1775.5V841.866H1768.75V844.422H1774.69V846.888H1768.75V849.534H1775.59V852H1766Z" fill="#5A5A5A"/>
<path d="M1506.53 852.09L1501.43 839.4H1504.49L1507.79 848.274L1511.08 839.4H1514.07L1508.97 852.09H1506.53ZM1522.4 852.216C1518.52 852.216 1515.73 849.318 1515.73 845.736V845.7C1515.73 842.118 1518.55 839.184 1522.44 839.184C1526.33 839.184 1529.12 842.082 1529.12 845.664V845.7C1529.12 849.282 1526.29 852.216 1522.4 852.216ZM1522.44 849.66C1524.67 849.66 1526.22 847.896 1526.22 845.736V845.7C1526.22 843.54 1524.64 841.74 1522.4 841.74C1520.17 841.74 1518.62 843.504 1518.62 845.664V845.7C1518.62 847.86 1520.21 849.66 1522.44 849.66ZM1532.78 852V839.4H1535.55V852H1532.78ZM1545.69 852.216C1541.98 852.216 1539.23 849.354 1539.23 845.736V845.7C1539.23 842.118 1541.93 839.184 1545.8 839.184C1548.17 839.184 1549.59 839.976 1550.76 841.128L1549 843.162C1548.03 842.28 1547.04 841.74 1545.78 841.74C1543.65 841.74 1542.12 843.504 1542.12 845.664V845.7C1542.12 847.86 1543.62 849.66 1545.78 849.66C1547.22 849.66 1548.1 849.084 1549.09 848.184L1550.85 849.966C1549.56 851.352 1548.12 852.216 1545.69 852.216ZM1554.15 852V839.4H1563.66V841.866H1556.91V844.422H1562.85V846.888H1556.91V849.534H1563.75V852H1554.15ZM1573.14 852V849.804L1577.33 846.366C1578.9 845.07 1579.51 844.386 1579.51 843.342C1579.51 842.28 1578.81 841.704 1577.82 841.704C1576.85 841.704 1576.18 842.244 1575.24 843.396L1573.3 841.83C1574.54 840.138 1575.75 839.22 1578 839.22C1580.61 839.22 1582.34 840.75 1582.34 843.108V843.144C1582.34 845.25 1581.26 846.294 1579.02 848.022L1576.97 849.606H1582.46V852H1573.14Z" fill="#5A5A5A"/>
<path d="M51.994 852.18C50.086 852.18 48.16 851.514 46.648 850.164L48.286 848.202C49.42 849.138 50.608 849.732 52.048 849.732C53.182 849.732 53.866 849.282 53.866 848.544V848.508C53.866 847.806 53.434 847.446 51.328 846.906C48.79 846.258 47.152 845.556 47.152 843.054V843.018C47.152 840.732 48.988 839.22 51.562 839.22C53.398 839.22 54.964 839.796 56.242 840.822L54.802 842.91C53.686 842.136 52.588 841.668 51.526 841.668C50.464 841.668 49.906 842.154 49.906 842.766V842.802C49.906 843.63 50.446 843.9 52.624 844.458C55.18 845.124 56.62 846.042 56.62 848.238V848.274C56.62 850.776 54.712 852.18 51.994 852.18ZM60.1057 852V839.4H69.6097V841.866H62.8597V844.422H68.7997V846.888H62.8597V849.534H69.6997V852H60.1057ZM86.2583 850.416L84.4943 852.378L83.1083 851.136C82.0463 851.82 80.7683 852.216 79.3643 852.216C75.4763 852.216 72.6863 849.318 72.6863 845.736V845.7C72.6863 842.118 75.5123 839.184 79.4003 839.184C83.2883 839.184 86.0783 842.082 86.0783 845.664V845.7C86.0783 847.032 85.6643 848.274 84.9623 849.318L86.2583 850.416ZM79.4003 849.66C80.0123 849.66 80.5703 849.552 81.0563 849.318L79.0043 847.572L80.7683 845.592L82.8383 847.464C83.0543 846.96 83.1803 846.366 83.1803 845.736V845.7C83.1803 843.54 81.5963 841.74 79.3643 841.74C77.1323 841.74 75.5843 843.504 75.5843 845.664V845.7C75.5843 847.86 77.1683 849.66 79.4003 849.66ZM94.8732 852.198C91.4892 852.198 89.4192 850.308 89.4192 846.6V839.4H92.1912V846.528C92.1912 848.58 93.2172 849.642 94.9092 849.642C96.6012 849.642 97.6272 848.616 97.6272 846.618V839.4H100.399V846.51C100.399 850.326 98.2572 852.198 94.8732 852.198ZM104.303 852V839.4H113.807V841.866H107.057V844.422H112.997V846.888H107.057V849.534H113.897V852H104.303ZM117.441 852V839.4H119.997L125.901 847.158V839.4H128.637V852H126.279L120.177 843.99V852H117.441ZM138.646 852.216C134.938 852.216 132.184 849.354 132.184 845.736V845.7C132.184 842.118 134.884 839.184 138.754 839.184C141.13 839.184 142.552 839.976 143.722 841.128L141.958 843.162C140.986 842.28 139.996 841.74 138.736 841.74C136.612 841.74 135.082 843.504 135.082 845.664V845.7C135.082 847.86 136.576 849.66 138.736 849.66C140.176 849.66 141.058 849.084 142.048 848.184L143.812 849.966C142.516 851.352 141.076 852.216 138.646 852.216ZM147.111 852V839.4H156.615V841.866H149.865V844.422H155.805V846.888H149.865V849.534H156.705V852H147.111ZM166.096 852V849.804L170.29 846.366C171.856 845.07 172.468 844.386 172.468 843.342C172.468 842.28 171.766 841.704 170.776 841.704C169.804 841.704 169.138 842.244 168.202 843.396L166.258 841.83C167.5 840.138 168.706 839.22 170.956 839.22C173.566 839.22 175.294 840.75 175.294 843.108V843.144C175.294 845.25 174.214 846.294 171.982 848.022L169.93 849.606H175.42V852H166.096Z" fill="#5A5A5A"/>
<path d="M883.526 852.09L878.432 839.4H881.492L884.786 848.274L888.08 839.4H891.068L885.974 852.09H883.526ZM899.403 852.216C895.515 852.216 892.725 849.318 892.725 845.736V845.7C892.725 842.118 895.551 839.184 899.439 839.184C903.327 839.184 906.117 842.082 906.117 845.664V845.7C906.117 849.282 903.291 852.216 899.403 852.216ZM899.439 849.66C901.671 849.66 903.219 847.896 903.219 845.736V845.7C903.219 843.54 901.635 841.74 899.403 841.74C897.171 841.74 895.623 843.504 895.623 845.664V845.7C895.623 847.86 897.207 849.66 899.439 849.66ZM909.782 852V839.4H912.554V852H909.782ZM922.687 852.216C918.979 852.216 916.225 849.354 916.225 845.736V845.7C916.225 842.118 918.925 839.184 922.795 839.184C925.171 839.184 926.593 839.976 927.763 841.128L925.999 843.162C925.027 842.28 924.037 841.74 922.777 841.74C920.653 841.74 919.123 843.504 919.123 845.664V845.7C919.123 847.86 920.617 849.66 922.777 849.66C924.217 849.66 925.099 849.084 926.089 848.184L927.853 849.966C926.557 851.352 925.117 852.216 922.687 852.216ZM931.152 852V839.4H940.656V841.866H933.906V844.422H939.846V846.888H933.906V849.534H940.746V852H931.152ZM952.459 852V842.118L950.263 842.658L949.687 840.39L953.305 839.31H955.195V852H952.459Z" fill="#5A5A5A"/>
</svg>
