<svg width="73" height="72" viewBox="0 0 73 72" fill="none" xmlns="http://www.w3.org/2000/svg">
<path d="M53.5628 13.3429C53.5628 11.3763 52.8963 10.2053 52.1717 9.51106C51.3923 8.7646 50.2934 8.33159 49.1232 8.31891C47.9557 8.30626 46.8957 8.71208 46.1535 9.41763C45.4643 10.0729 44.7741 11.2466 44.774 13.3429V20.1465C46.3425 19.5167 47.7798 18.8652 49.0481 18.1673C52.7671 16.1211 53.5628 14.5164 53.5628 13.3429ZM61.8815 13.3429C61.8815 19.3568 57.3418 23.0989 53.0581 25.4558C50.6009 26.8078 47.7335 27.9784 44.774 29.0389V40.9964C44.774 43.2935 42.9118 45.1557 40.6147 45.1557C38.3176 45.1557 36.4554 43.2935 36.4554 40.9964V31.7933C31.4669 33.3915 26.9887 34.8669 23.6484 36.6269C19.8333 38.637 19.1997 40.119 19.1997 40.9964C19.1997 42.2662 19.589 42.8518 20.175 43.3741C21.0063 44.1149 22.2562 44.7152 24.2516 45.569C25.955 46.2979 28.4768 47.3111 30.45 48.918C32.7107 50.7592 34.3498 53.4216 34.3498 57.1351C34.3498 62.4746 30.5402 65.766 27.1588 67.6837C23.7077 69.6409 19.4555 70.9071 16.1792 71.84C13.97 72.4689 11.6691 71.188 11.0399 68.9789C10.4108 66.7696 11.6922 64.4683 13.9015 63.8392C17.2689 62.8803 20.5919 61.8444 23.0549 60.4475C25.5874 59.0113 26.0311 57.8967 26.0312 57.1351C26.0312 56.239 25.7768 55.8404 25.197 55.3682C24.3295 54.6617 23.0634 54.1087 20.9793 53.217C19.1873 52.4502 16.6496 51.3754 14.6403 49.5847C12.3857 47.5754 10.8811 44.7727 10.881 40.9964C10.881 35.0594 15.5827 31.4738 19.7704 29.2673C24.1685 26.95 29.9096 25.1524 35.114 23.4878C35.5649 23.3436 36.0121 23.199 36.4554 23.0563V13.3429C36.4554 9.22437 37.9034 5.78312 40.4218 3.38885C42.8872 1.04488 46.1044 -0.0329497 49.2136 0.000766495C52.3202 0.0344799 55.498 1.17794 57.9263 3.5041C60.4092 5.88258 61.8815 9.28014 61.8815 13.3429Z" fill="black"/>
</svg>
