<svg width="142" height="361" viewBox="0 0 142 361" fill="none" xmlns="http://www.w3.org/2000/svg">
<path d="M9.271 243.31C35.0823 235.96 68.13 225.425 68.13 201.722C68.13 165.904 9.27149 175.41 9.27149 139.023C9.27149 93.7404 134.592 98.2874 134.592 42.4403C134.592 -4.40939 71.3277 -5.85086 71.3277 42.4403C71.3277 81.0733 71.3277 122.926 71.3277 139.023" stroke="black" stroke-width="12.1193" stroke-linecap="round"/>
<circle cx="9.27097" cy="243.31" r="8.26102" stroke="black" stroke-width="2.01989"/>
<circle cx="71" cy="138.972" r="8.26102" stroke="black" stroke-width="2.01989"/>
<path d="M22.6593 301.566C20.3997 301.566 18.4494 301.203 16.8085 300.476C15.1945 299.75 13.8898 298.782 12.8945 297.571L15.598 295.15C16.5126 296.145 17.5348 296.912 18.6646 297.45C19.8213 297.961 21.1798 298.217 22.74 298.217C24.1657 298.217 25.309 297.975 26.1698 297.49C27.0575 297.006 27.5013 296.253 27.5013 295.231C27.5013 294.8 27.4206 294.437 27.2592 294.141C27.0978 293.845 26.8692 293.603 26.5733 293.415C26.2774 293.227 25.9277 293.079 25.5242 292.971C25.1476 292.864 24.7441 292.783 24.3137 292.729L21.0049 292.205C20.1979 292.097 19.3775 291.922 18.5436 291.68C17.7097 291.438 16.9565 291.102 16.2839 290.671C15.6383 290.214 15.1003 289.636 14.6699 288.936C14.2664 288.237 14.0647 287.349 14.0647 286.273C14.0647 284.148 14.8717 282.534 16.4857 281.431C18.1266 280.328 20.2786 279.777 22.9418 279.777C24.8786 279.777 26.5464 280.073 27.9452 280.664C29.3709 281.229 30.5545 282.023 31.496 283.045L29.0347 285.627C28.4967 285.009 27.73 284.444 26.7347 283.933C25.7394 283.395 24.4213 283.126 22.7804 283.126C19.8482 283.126 18.3822 284.054 18.3822 285.91C18.3822 286.798 18.6915 287.416 19.3102 287.766C19.9558 288.089 20.709 288.304 21.5698 288.412L24.8786 288.936C25.7125 289.071 26.5329 289.246 27.3399 289.461C28.1739 289.676 28.9136 290.012 29.5592 290.47C30.2317 290.9 30.7697 291.465 31.1732 292.164C31.6036 292.864 31.8188 293.751 31.8188 294.827C31.8188 296.926 30.9984 298.58 29.3575 299.79C27.7435 300.974 25.5107 301.566 22.6593 301.566ZM52.9063 280.261H57.3449L47.2573 305.117C46.7193 306.462 46.0064 307.47 45.1187 308.143C44.2579 308.815 43.007 309.152 41.3661 309.152H37.8556V305.601H42.7784L44.6748 300.799L36.282 280.261H40.8819L44.1906 288.977L46.7731 296.119H47.0152L49.5976 288.977L52.9063 280.261ZM62.2922 301.082V280.261H66.6904V283.812H66.8921C67.1073 283.274 67.3763 282.763 67.6991 282.278C68.0489 281.767 68.4658 281.337 68.95 280.987C69.4342 280.611 69.9991 280.315 70.6447 280.099C71.2903 279.884 72.0435 279.777 72.9043 279.777C75.0026 279.777 76.6973 280.463 77.9885 281.835C79.2797 283.206 79.9253 285.157 79.9253 287.685V301.082H75.5271V288.331C75.5271 285.022 74.088 283.368 71.2096 283.368C70.6447 283.368 70.0933 283.449 69.5553 283.61C69.0173 283.744 68.5331 283.96 68.1027 284.256C67.6722 284.551 67.3225 284.928 67.0535 285.385C66.8114 285.843 66.6904 286.367 66.6904 286.959V301.082H62.2922ZM96.4532 301.082C94.624 301.082 93.279 300.597 92.4182 299.629C91.5574 298.634 91.127 297.356 91.127 295.796V283.812H84.7112V280.261H89.2708C90.0509 280.261 90.6024 280.113 90.9252 279.817C91.248 279.494 91.4094 278.929 91.4094 278.122V272.917H95.5251V280.261H104.402V283.812H95.5251V297.531H104.402V301.082H96.4532ZM110.681 271.222H115.079V283.812H115.281C115.496 283.274 115.765 282.763 116.088 282.278C116.438 281.767 116.855 281.337 117.339 280.987C117.823 280.611 118.388 280.315 119.034 280.099C119.679 279.884 120.432 279.777 121.293 279.777C123.391 279.777 125.086 280.463 126.377 281.835C127.669 283.206 128.314 285.157 128.314 287.685V301.082H123.916V288.331C123.916 285.022 122.477 283.368 119.599 283.368C119.034 283.368 118.482 283.449 117.944 283.61C117.406 283.744 116.922 283.96 116.492 284.256C116.061 284.551 115.711 284.928 115.442 285.385C115.2 285.843 115.079 286.367 115.079 286.959V301.082H110.681V271.222ZM13.7015 320.261H18.0997V323.812H18.3418C18.9605 322.547 19.781 321.566 20.8032 320.866C21.8254 320.14 23.1032 319.777 24.6365 319.777C27.0844 319.777 29.0347 320.691 30.4873 322.52C31.9399 324.35 32.6662 327.067 32.6662 330.671C32.6662 334.276 31.9399 336.993 30.4873 338.822C29.0347 340.651 27.0844 341.566 24.6365 341.566C23.1032 341.566 21.8254 341.216 20.8032 340.517C19.781 339.79 18.9605 338.795 18.3418 337.531H18.0997V349.152H13.7015V320.261ZM22.8207 337.975C24.4885 337.975 25.7663 337.464 26.654 336.441C27.5686 335.419 28.0259 334.061 28.0259 332.366V328.977C28.0259 327.282 27.5686 325.923 26.654 324.901C25.7663 323.879 24.4885 323.368 22.8207 323.368C22.1751 323.368 21.5698 323.449 21.0049 323.61C20.44 323.771 19.9424 324.013 19.512 324.336C19.0816 324.659 18.7319 325.063 18.4629 325.547C18.2208 326.004 18.0997 326.556 18.0997 327.201V334.141C18.0997 334.787 18.2208 335.352 18.4629 335.836C18.7319 336.293 19.0816 336.683 19.512 337.006C19.9424 337.329 20.44 337.571 21.0049 337.733C21.5698 337.894 22.1751 337.975 22.8207 337.975ZM54.5607 341.082C53.2964 341.082 52.3414 340.759 51.6958 340.113C51.0771 339.468 50.7005 338.62 50.566 337.571H50.3642C49.9607 338.835 49.221 339.817 48.145 340.517C47.0959 341.216 45.7509 341.566 44.1099 341.566C41.9848 341.566 40.2901 341.014 39.0258 339.912C37.7615 338.782 37.1293 337.235 37.1293 335.271C37.1293 333.254 37.8691 331.72 39.3486 330.671C40.855 329.595 43.155 329.057 46.2485 329.057H50.2432V327.443C50.2432 324.619 48.7502 323.206 45.7643 323.206C44.4193 323.206 43.3298 323.475 42.4959 324.013C41.662 324.525 40.9626 325.211 40.3977 326.071L37.7749 323.933C38.3667 322.803 39.362 321.835 40.7609 321.028C42.1597 320.194 43.962 319.777 46.1678 319.777C48.804 319.777 50.8754 320.409 52.3818 321.673C53.8882 322.937 54.6414 324.767 54.6414 327.161V337.612H57.2642V341.082H54.5607ZM45.3608 338.338C46.7865 338.338 47.9567 338.015 48.8713 337.369C49.7859 336.724 50.2432 335.89 50.2432 334.868V331.841H46.3292C43.155 331.841 41.5679 332.796 41.5679 334.706V335.513C41.5679 336.455 41.9041 337.168 42.5766 337.652C43.2491 338.109 44.1772 338.338 45.3608 338.338ZM72.2587 341.082C70.4295 341.082 69.0845 340.597 68.2237 339.629C67.3629 338.634 66.9325 337.356 66.9325 335.796V323.812H60.5168V320.261H65.0764C65.8565 320.261 66.4079 320.113 66.7307 319.817C67.0535 319.494 67.2149 318.929 67.2149 318.122V312.917H71.3307V320.261H80.2078V323.812H71.3307V337.531H80.2078V341.082H72.2587ZM95.969 341.566C94.4088 341.566 93.01 341.31 91.7726 340.799C90.562 340.288 89.5264 339.562 88.6656 338.62C87.8317 337.679 87.1861 336.536 86.7288 335.191C86.2984 333.845 86.0832 332.339 86.0832 330.671C86.0832 329.003 86.2984 327.497 86.7288 326.152C87.1861 324.807 87.8317 323.664 88.6656 322.722C89.5264 321.781 90.562 321.054 91.7726 320.543C93.01 320.032 94.3953 319.777 95.9286 319.777C98.0807 319.777 99.8023 320.234 101.093 321.149C102.412 322.063 103.393 323.247 104.039 324.699L100.609 326.556C100.233 325.587 99.6543 324.82 98.8742 324.256C98.121 323.691 97.1392 323.408 95.9286 323.408C94.2608 323.408 92.9696 323.919 92.055 324.942C91.1404 325.937 90.6831 327.268 90.6831 328.936V332.406C90.6831 334.047 91.1404 335.379 92.055 336.401C92.9696 337.423 94.2877 337.934 96.0094 337.934C97.3006 337.934 98.3497 337.638 99.1567 337.047C99.9906 336.455 100.65 335.648 101.134 334.626L104.362 336.603C103.689 338.055 102.667 339.252 101.295 340.194C99.9233 341.109 98.1479 341.566 95.969 341.566ZM110.681 311.222H115.079V323.812H115.281C115.496 323.274 115.765 322.763 116.088 322.278C116.438 321.767 116.855 321.337 117.339 320.987C117.823 320.611 118.388 320.315 119.034 320.099C119.679 319.884 120.432 319.777 121.293 319.777C123.391 319.777 125.086 320.463 126.377 321.835C127.669 323.206 128.314 325.157 128.314 327.685V341.082H123.916V328.331C123.916 325.022 122.477 323.368 119.599 323.368C119.034 323.368 118.482 323.449 117.944 323.61C117.406 323.744 116.922 323.96 116.492 324.256C116.061 324.551 115.711 324.928 115.442 325.385C115.2 325.843 115.079 326.367 115.079 326.959V341.082H110.681V311.222Z" fill="black"/>
</svg>
